M48
;DRILL file {KiCad (5.0.0)} date 02/16/19 19:44:36
;FORMAT={-:-/ absolute / inch / decimal}
FMAT,2
INCH,TZ
T1C0.0157
T2C0.0236
T3C0.0394
T4C0.0409
T5C0.0579
%
G90
G05
M72
T1
X3.16Y-2.695
X3.16Y-2.74
X3.405Y-4.95
X3.72Y-4.24
X3.91Y-2.74
X4.47Y-4.24
X4.66Y-2.74
X9.72Y-4.24
X9.91Y-2.74
X10.47Y-4.24
X10.66Y-2.74
X10.99Y-4.09
X10.99Y-4.89
X10.99Y-5.635
X11.06Y-3.985
X11.285Y-4.125
X11.315Y-2.55
X11.365Y-2.625
X11.385Y-3.395
X11.41Y-1.795
X11.415Y-2.61
X11.515Y-2.97
X11.515Y-3.525
X11.565Y-3.07
X11.565Y-3.21
X11.695Y-4.33
X11.715Y-2.19
X11.76Y-1.805
X11.8Y-1.65
X12.385Y-3.355
X12.575Y-1.655
X12.575Y-2.905
X12.6Y-2.605
X12.685Y-1.305
X12.72Y-1.695
X12.74Y-4.755
X12.765Y-1.295
X12.795Y-1.26
X12.87Y-4.395
X12.9Y-1.26
X12.9Y-1.295
X12.98Y-1.305
X12.995Y-4.29
X13.04Y-4.055
X13.07Y-4.025
X13.15Y-1.655
X13.15Y-1.7
X13.15Y-2.605
X13.15Y-3.355
X13.17Y-4.69
X13.21Y-3.87
X13.21Y-3.93
X13.35Y-4.69
X13.39Y-3.975
X13.425Y-4.575
X13.43Y-3.87
X13.45Y-4.555
X13.475Y-4.535
X13.5Y-4.515
X13.525Y-4.495
X13.71Y-3.98
X13.91Y-4.425
X13.945Y-4.425
X13.945Y-5.57
X13.98Y-4.855
X14.305Y-3.905
X14.425Y-5.285
X14.435Y-4.28
X14.435Y-4.89
X14.45Y-4.445
X14.535Y-2.64
X14.535Y-3.39
X14.55Y-1.7
X14.55Y-3.48
X14.55Y-3.56
X14.55Y-5.64
X14.84Y-3.88
X15.035Y-4.385
X17.115Y-4.475
X17.595Y-4.445
T3
X14.825Y-4.0406
X14.825Y-4.1406
X14.825Y-4.2406
X14.925Y-4.0406
X14.925Y-4.1406
X14.925Y-4.2406
T4
X10.825Y-2.7
X10.925Y-2.7
X7.075Y-2.7
X7.175Y-2.7
X5.95Y-3.45
X6.05Y-3.45
X15.7Y-4.95
X15.8Y-4.95
X17.95Y-5.7
X18.05Y-5.7
X7.45Y-3.45
X7.55Y-3.45
X16.45Y-1.7625
X16.55Y-1.7625
X3.5125Y-4.95
X3.6125Y-4.95
X17.2Y-1.7625
X17.3Y-1.7625
X7.45Y-1.7625
X7.55Y-1.7625
X13.2625Y-2.7
X13.3625Y-2.7
X10.3562Y-5.7
X10.4562Y-5.7
X8.95Y-1.7625
X9.05Y-1.7625
X2.0125Y-5.7
X2.1125Y-5.7
X12.1375Y-5.7
X12.2375Y-5.7
X1.825Y-1.7625
X1.925Y-1.7625
X2.1062Y-4.2
X2.2062Y-4.2
X10.2625Y-4.95
X10.3625Y-4.95
X12.0812Y-3.575
X12.0812Y-3.675
X8.7625Y-4.95
X8.8625Y-4.95
X3.8875Y-4.2
X3.9875Y-4.2
X17.95Y-4.95
X18.05Y-4.95
X16.45Y-4.2
X16.55Y-4.2
X2.95Y-3.45
X3.05Y-3.45
X15.7Y-3.45
X15.8Y-3.45
X2.0125Y-3.45
X2.1125Y-3.45
X15.7Y-1.7625
X15.8Y-1.7625
X18.2Y-3.575
X18.2Y-3.675
X12.325Y-4.95
X12.425Y-4.95
X4.45Y-3.45
X4.55Y-3.45
X2.8562Y-5.7
X2.9562Y-5.7
X14.0125Y-4.95
X14.1125Y-4.95
X10.075Y-1.7625
X10.175Y-1.7625
X2.7625Y-4.95
X2.8625Y-4.95
X7.075Y-5.7
X7.175Y-5.7
X4.6375Y-4.2
X4.7375Y-4.2
X11.95Y-2.7
X12.05Y-2.7
X3.8875Y-5.7
X3.9875Y-5.7
X10.075Y-2.7
X10.175Y-2.7
X6.325Y-2.7
X6.425Y-2.7
X3.325Y-2.7
X3.425Y-2.7
X11.8562Y-4.2
X11.9562Y-4.2
X17.2Y-4.2
X17.3Y-4.2
X15.7Y-4.2
X15.8Y-4.2
X8.2Y-3.45
X8.3Y-3.45
X17.95Y-2.7
X18.05Y-2.7
X6.7Y-3.45
X6.8Y-3.45
X4.075Y-1.7625
X4.175Y-1.7625
X13.2625Y-5.7
X13.3625Y-5.7
X13.2625Y-1.7625
X13.3625Y-1.7625
X6.7Y-1.7625
X6.8Y-1.7625
X1.9187Y-4.95
X2.0187Y-4.95
X1.825Y-2.7
X1.925Y-2.7
X12.2312Y-5.7
X12.3312Y-5.7
X10.6375Y-4.2
X10.7375Y-4.2
X14.0125Y-5.7
X14.1125Y-5.7
X9.7Y-3.45
X9.8Y-3.45
X17.2Y-5.7
X17.3Y-5.7
X5.2Y-3.45
X5.3Y-3.45
X17.95Y-3.45
X18.05Y-3.45
X16.45Y-2.7
X16.55Y-2.7
X11.575Y-1.7625
X11.675Y-1.7625
X6.6063Y-5.7
X6.7062Y-5.7
X16.075Y-5.7
X16.175Y-5.7
X3.1375Y-4.2
X3.2375Y-4.2
X1.9187Y-5.7
X2.0187Y-5.7
X14.7625Y-2.7
X14.8625Y-2.7
X5.575Y-1.7625
X5.675Y-1.7625
X14.0125Y-2.7
X14.1125Y-2.7
X11.2937Y-5.7
X11.3937Y-5.7
X5.0125Y-4.95
X5.1125Y-4.95
X12.325Y-2.7
X12.425Y-2.7
X9.325Y-2.7
X9.425Y-2.7
X1.9187Y-4.2
X2.0187Y-4.2
X9.5125Y-4.95
X9.6125Y-4.95
X6.8875Y-4.2
X6.9875Y-4.2
X17.2Y-4.95
X17.3Y-4.95
X8.0125Y-4.95
X8.1125Y-4.95
X16.45Y-5.7
X16.55Y-5.7
X3.7Y-3.45
X3.8Y-3.45
X15.7Y-2.7
X15.8Y-2.7
X5.7625Y-4.95
X5.8625Y-4.95
X11.6687Y-4.95
X11.7687Y-4.95
X2.95Y-5.7
X3.05Y-5.7
X18.2Y-5.075
X18.2Y-5.175
X11.2Y-3.45
X11.3Y-3.45
X14.7625Y-1.7625
X14.8625Y-1.7625
X10.2625Y-5.7
X10.3625Y-5.7
X4.825Y-1.7625
X4.925Y-1.7625
X14.7625Y-3.45
X14.8625Y-3.45
X11.2937Y-4.95
X11.3937Y-4.95
X6.5125Y-4.95
X6.6125Y-4.95
X14.0125Y-1.7625
X14.1125Y-1.7625
X8.575Y-2.7
X8.675Y-2.7
X4.075Y-2.7
X4.175Y-2.7
X8.95Y-3.45
X9.05Y-3.45
X15.7Y-5.7
X15.8Y-5.7
X16.45Y-4.95
X16.55Y-4.95
X6.1375Y-4.2
X6.2375Y-4.2
X17.2Y-3.45
X17.3Y-3.45
X4.2625Y-4.95
X4.3625Y-4.95
X17.2Y-2.7
X17.3Y-2.7
X7.2625Y-4.95
X7.3625Y-4.95
X10.45Y-3.45
X10.55Y-3.45
X2.2937Y-4.95
X2.3937Y-4.95
X3.325Y-1.7625
X3.425Y-1.7625
X13.2625Y-3.45
X13.3625Y-3.45
X12.1375Y-3.45
X12.2375Y-3.45
X14.7625Y-5.7
X14.8625Y-5.7
X7.825Y-2.7
X7.925Y-2.7
X11.575Y-2.7
X11.675Y-2.7
X5.575Y-2.7
X5.675Y-2.7
X4.825Y-2.7
X4.925Y-2.7
X8.3875Y-4.2
X8.4875Y-4.2
X9.1375Y-4.2
X9.2375Y-4.2
X17.95Y-4.2
X18.05Y-4.2
X7.6375Y-4.2
X7.7375Y-4.2
X16.45Y-3.45
X16.55Y-3.45
X17.95Y-1.7625
X18.05Y-1.7625
X12.325Y-1.7625
X12.425Y-1.7625
X11.2Y-5.7
X11.3Y-5.7
X8.2Y-1.7625
X8.3Y-1.7625
X14.0125Y-3.45
X14.1125Y-3.45
X10.825Y-1.7625
X10.925Y-1.7625
X3.7937Y-5.7
X3.8937Y-5.7
X5.3875Y-4.2
X5.4875Y-4.2
X9.8875Y-4.2
X9.9875Y-4.2
X11.3875Y-4.2
X11.4875Y-4.2
X9.4187Y-5.7
X9.5187Y-5.7
X2.575Y-2.7
X2.675Y-2.7
T5
X17.85Y-1.4625
X17.9016Y-1.405
X18.0984Y-1.3853
X18.1Y-1.3625
X12.225Y-1.4625
X12.2766Y-1.405
X12.4734Y-1.3853
X12.475Y-1.3625
X11.1Y-5.4
X11.1516Y-5.3425
X11.3484Y-5.3228
X11.35Y-5.3
X8.1Y-1.4625
X8.1516Y-1.405
X8.3484Y-1.3853
X8.35Y-1.3625
X13.9125Y-3.15
X13.9641Y-3.0925
X14.1609Y-3.0728
X14.1625Y-3.05
X10.725Y-1.4625
X10.7766Y-1.405
X10.9734Y-1.3853
X10.975Y-1.3625
X3.6938Y-5.4
X3.7453Y-5.3425
X3.9422Y-5.3228
X3.9438Y-5.3
X5.2875Y-3.9
X5.3391Y-3.8425
X5.5359Y-3.8228
X5.5375Y-3.8
X9.7875Y-3.9
X9.8391Y-3.8425
X10.0359Y-3.8228
X10.0375Y-3.8
X11.2875Y-3.9
X11.3391Y-3.8425
X11.5359Y-3.8228
X11.5375Y-3.8
X9.3187Y-5.4
X9.3703Y-5.3425
X9.5672Y-5.3228
X9.5687Y-5.3
X2.475Y-2.4
X2.5266Y-2.3425
X2.7234Y-2.3228
X2.725Y-2.3
X10.725Y-2.4
X10.7766Y-2.3425
X10.9734Y-2.3228
X10.975Y-2.3
X6.975Y-2.4
X7.0266Y-2.3425
X7.2234Y-2.3228
X7.225Y-2.3
X5.85Y-3.15
X5.9016Y-3.0925
X6.0984Y-3.0728
X6.1Y-3.05
X15.6Y-4.65
X15.6516Y-4.5925
X15.8484Y-4.5728
X15.85Y-4.55
X17.85Y-5.4
X17.9016Y-5.3425
X18.0984Y-5.3228
X18.1Y-5.3
X7.35Y-3.15
X7.4016Y-3.0925
X7.5984Y-3.0728
X7.6Y-3.05
X16.35Y-1.4625
X16.4016Y-1.405
X16.5984Y-1.3853
X16.6Y-1.3625
X3.4125Y-4.65
X3.4641Y-4.5925
X3.6609Y-4.5728
X3.6625Y-4.55
X17.1Y-1.4625
X17.1516Y-1.405
X17.3484Y-1.3853
X17.35Y-1.3625
X7.35Y-1.4625
X7.4016Y-1.405
X7.5984Y-1.3853
X7.6Y-1.3625
X13.1625Y-2.4
X13.2141Y-2.3425
X13.4109Y-2.3228
X13.4125Y-2.3
X10.2562Y-5.4
X10.3078Y-5.3425
X10.5047Y-5.3228
X10.5062Y-5.3
X8.85Y-1.4625
X8.9016Y-1.405
X9.0984Y-1.3853
X9.1Y-1.3625
X1.9125Y-5.4
X1.9641Y-5.3425
X2.1609Y-5.3228
X2.1625Y-5.3
X12.0375Y-5.4
X12.0891Y-5.3425
X12.2859Y-5.3228
X12.2875Y-5.3
X1.725Y-1.4625
X1.7766Y-1.405
X1.9734Y-1.3853
X1.975Y-1.3625
X2.0063Y-3.9
X2.0578Y-3.8425
X2.2547Y-3.8228
X2.2563Y-3.8
X10.1625Y-4.65
X10.2141Y-4.5925
X10.4109Y-4.5728
X10.4125Y-4.55
X12.1828Y-3.8022
X12.3797Y-3.7825
X12.3812Y-3.475
X12.4387Y-3.5266
X12.4584Y-3.7234
X12.4812Y-3.725
X8.6625Y-4.65
X8.7141Y-4.5925
X8.9109Y-4.5728
X8.9125Y-4.55
X3.7875Y-3.9
X3.8391Y-3.8425
X4.0359Y-3.8228
X4.0375Y-3.8
X17.85Y-4.65
X17.9016Y-4.5925
X18.0984Y-4.5728
X18.1Y-4.55
X16.35Y-3.9
X16.4016Y-3.8425
X16.5984Y-3.8228
X16.6Y-3.8
X2.85Y-3.15
X2.9016Y-3.0925
X3.0984Y-3.0728
X3.1Y-3.05
X15.6Y-3.15
X15.6516Y-3.0925
X15.8484Y-3.0728
X15.85Y-3.05
X1.9125Y-3.15
X1.9641Y-3.0925
X2.1609Y-3.0728
X2.1625Y-3.05
X15.6Y-1.4625
X15.6516Y-1.405
X15.8484Y-1.3853
X15.85Y-1.3625
X17.8Y-3.525
X17.8228Y-3.5266
X17.8425Y-3.7234
X17.9Y-3.775
X12.225Y-4.65
X12.2766Y-4.5925
X12.4734Y-4.5728
X12.475Y-4.55
X4.35Y-3.15
X4.4016Y-3.0925
X4.5984Y-3.0728
X4.6Y-3.05
X2.7563Y-5.4
X2.8078Y-5.3425
X3.0047Y-5.3228
X3.0063Y-5.3
X13.9125Y-4.65
X13.9641Y-4.5925
X14.1609Y-4.5728
X14.1625Y-4.55
X9.975Y-1.4625
X10.0266Y-1.405
X10.2234Y-1.3853
X10.225Y-1.3625
X2.6625Y-4.65
X2.7141Y-4.5925
X2.9109Y-4.5728
X2.9125Y-4.55
X6.975Y-5.4
X7.0266Y-5.3425
X7.2234Y-5.3228
X7.225Y-5.3
X4.5375Y-3.9
X4.5891Y-3.8425
X4.7859Y-3.8228
X4.7875Y-3.8
X11.85Y-2.4
X11.9016Y-2.3425
X12.0984Y-2.3228
X12.1Y-2.3
X3.7875Y-5.4
X3.8391Y-5.3425
X4.0359Y-5.3228
X4.0375Y-5.3
X9.975Y-2.4
X10.0266Y-2.3425
X10.2234Y-2.3228
X10.225Y-2.3
X6.225Y-2.4
X6.2766Y-2.3425
X6.4734Y-2.3228
X6.475Y-2.3
X3.225Y-2.4
X3.2766Y-2.3425
X3.4734Y-2.3228
X3.475Y-2.3
X11.7562Y-3.9
X11.8078Y-3.8425
X12.0047Y-3.8228
X12.0062Y-3.8
X17.1Y-3.9
X17.1516Y-3.8425
X17.3484Y-3.8228
X17.35Y-3.8
X15.6Y-3.9
X15.6516Y-3.8425
X15.8484Y-3.8228
X15.85Y-3.8
X8.1Y-3.15
X8.1516Y-3.0925
X8.3484Y-3.0728
X8.35Y-3.05
X17.85Y-2.4
X17.9016Y-2.3425
X18.0984Y-2.3228
X18.1Y-2.3
X6.6Y-3.15
X6.6516Y-3.0925
X6.8484Y-3.0728
X6.85Y-3.05
X3.975Y-1.4625
X4.0266Y-1.405
X4.2234Y-1.3853
X4.225Y-1.3625
X13.1625Y-5.4
X13.2141Y-5.3425
X13.4109Y-5.3228
X13.4125Y-5.3
X13.1625Y-1.4625
X13.2141Y-1.405
X13.4109Y-1.3853
X13.4125Y-1.3625
X6.6Y-1.4625
X6.6516Y-1.405
X6.8484Y-1.3853
X6.85Y-1.3625
X1.8187Y-4.65
X1.8703Y-4.5925
X2.0672Y-4.5728
X2.0688Y-4.55
X1.725Y-2.4
X1.7766Y-2.3425
X1.9734Y-2.3228
X1.975Y-2.3
X12.1312Y-5.4
X12.1828Y-5.3425
X12.3797Y-5.3228
X12.3812Y-5.3
X10.5375Y-3.9
X10.5891Y-3.8425
X10.7859Y-3.8228
X10.7875Y-3.8
X13.9125Y-5.4
X13.9641Y-5.3425
X14.1609Y-5.3228
X14.1625Y-5.3
X9.6Y-3.15
X9.6516Y-3.0925
X9.8484Y-3.0728
X9.85Y-3.05
X17.1Y-5.4
X17.1516Y-5.3425
X17.3484Y-5.3228
X17.35Y-5.3
X5.1Y-3.15
X5.1516Y-3.0925
X5.3484Y-3.0728
X5.35Y-3.05
X17.85Y-3.15
X17.9016Y-3.0925
X18.0984Y-3.0728
X18.1Y-3.05
X16.35Y-2.4
X16.4016Y-2.3425
X16.5984Y-2.3228
X16.6Y-2.3
X11.475Y-1.4625
X11.5266Y-1.405
X11.7234Y-1.3853
X11.725Y-1.3625
X6.5062Y-5.4
X6.5578Y-5.3425
X6.7547Y-5.3228
X6.7562Y-5.3
X15.975Y-5.4
X16.0266Y-5.3425
X16.2234Y-5.3228
X16.225Y-5.3
X3.0375Y-3.9
X3.0891Y-3.8425
X3.2859Y-3.8228
X3.2875Y-3.8
X1.8187Y-5.4
X1.8703Y-5.3425
X2.0672Y-5.3228
X2.0688Y-5.3
X14.6625Y-2.4
X14.7141Y-2.3425
X14.9109Y-2.3228
X14.9125Y-2.3
X5.475Y-1.4625
X5.5266Y-1.405
X5.7234Y-1.3853
X5.725Y-1.3625
X13.9125Y-2.4
X13.9641Y-2.3425
X14.1609Y-2.3228
X14.1625Y-2.3
X11.1937Y-5.4
X11.2453Y-5.3425
X11.4422Y-5.3228
X11.4437Y-5.3
X4.9125Y-4.65
X4.9641Y-4.5925
X5.1609Y-4.5728
X5.1625Y-4.55
X12.225Y-2.4
X12.2766Y-2.3425
X12.4734Y-2.3228
X12.475Y-2.3
X9.225Y-2.4
X9.2766Y-2.3425
X9.4734Y-2.3228
X9.475Y-2.3
X1.8187Y-3.9
X1.8703Y-3.8425
X2.0672Y-3.8228
X2.0688Y-3.8
X9.4125Y-4.65
X9.4641Y-4.5925
X9.6609Y-4.5728
X9.6625Y-4.55
X6.7875Y-3.9
X6.8391Y-3.8425
X7.0359Y-3.8228
X7.0375Y-3.8
X17.1Y-4.65
X17.1516Y-4.5925
X17.3484Y-4.5728
X17.35Y-4.55
X7.9125Y-4.65
X7.9641Y-4.5925
X8.1609Y-4.5728
X8.1625Y-4.55
X16.35Y-5.4
X16.4016Y-5.3425
X16.5984Y-5.3228
X16.6Y-5.3
X3.6Y-3.15
X3.6516Y-3.0925
X3.8484Y-3.0728
X3.85Y-3.05
X15.6Y-2.4
X15.6516Y-2.3425
X15.8484Y-2.3228
X15.85Y-2.3
X5.6625Y-4.65
X5.7141Y-4.5925
X5.9109Y-4.5728
X5.9125Y-4.55
X11.5687Y-4.65
X11.6203Y-4.5925
X11.8172Y-4.5728
X11.8187Y-4.55
X2.85Y-5.4
X2.9016Y-5.3425
X3.0984Y-5.3228
X3.1Y-5.3
X17.8Y-5.025
X17.8228Y-5.0266
X17.8425Y-5.2234
X17.9Y-5.275
X11.1Y-3.15
X11.1516Y-3.0925
X11.3484Y-3.0728
X11.35Y-3.05
X14.6625Y-1.4625
X14.7141Y-1.405
X14.9109Y-1.3853
X14.9125Y-1.3625
X10.1625Y-5.4
X10.2141Y-5.3425
X10.4109Y-5.3228
X10.4125Y-5.3
X4.725Y-1.4625
X4.7766Y-1.405
X4.9734Y-1.3853
X4.975Y-1.3625
X14.6625Y-3.15
X14.7141Y-3.0925
X14.9109Y-3.0728
X14.9125Y-3.05
X11.1937Y-4.65
X11.2453Y-4.5925
X11.4422Y-4.5728
X11.4437Y-4.55
X6.4125Y-4.65
X6.4641Y-4.5925
X6.6609Y-4.5728
X6.6625Y-4.55
X13.9125Y-1.4625
X13.9641Y-1.405
X14.1609Y-1.3853
X14.1625Y-1.3625
X8.475Y-2.4
X8.5266Y-2.3425
X8.7234Y-2.3228
X8.725Y-2.3
X3.975Y-2.4
X4.0266Y-2.3425
X4.2234Y-2.3228
X4.225Y-2.3
X8.85Y-3.15
X8.9016Y-3.0925
X9.0984Y-3.0728
X9.1Y-3.05
X15.6Y-5.4
X15.6516Y-5.3425
X15.8484Y-5.3228
X15.85Y-5.3
X16.35Y-4.65
X16.4016Y-4.5925
X16.5984Y-4.5728
X16.6Y-4.55
X6.0375Y-3.9
X6.0891Y-3.8425
X6.2859Y-3.8228
X6.2875Y-3.8
X17.1Y-3.15
X17.1516Y-3.0925
X17.3484Y-3.0728
X17.35Y-3.05
X4.1625Y-4.65
X4.2141Y-4.5925
X4.4109Y-4.5728
X4.4125Y-4.55
X17.1Y-2.4
X17.1516Y-2.3425
X17.3484Y-2.3228
X17.35Y-2.3
X7.1625Y-4.65
X7.2141Y-4.5925
X7.4109Y-4.5728
X7.4125Y-4.55
X10.35Y-3.15
X10.4016Y-3.0925
X10.5984Y-3.0728
X10.6Y-3.05
X2.1938Y-4.65
X2.2453Y-4.5925
X2.4422Y-4.5728
X2.4438Y-4.55
X3.225Y-1.4625
X3.2766Y-1.405
X3.4734Y-1.3853
X3.475Y-1.3625
X13.1625Y-3.15
X13.2141Y-3.0925
X13.4109Y-3.0728
X13.4125Y-3.05
X12.0375Y-3.15
X12.0891Y-3.0925
X12.2859Y-3.0728
X12.2875Y-3.05
X14.6625Y-5.4
X14.7141Y-5.3425
X14.9109Y-5.3228
X14.9125Y-5.3
X7.725Y-2.4
X7.7766Y-2.3425
X7.9734Y-2.3228
X7.975Y-2.3
X11.475Y-2.4
X11.5266Y-2.3425
X11.7234Y-2.3228
X11.725Y-2.3
X5.475Y-2.4
X5.5266Y-2.3425
X5.7234Y-2.3228
X5.725Y-2.3
X4.725Y-2.4
X4.7766Y-2.3425
X4.9734Y-2.3228
X4.975Y-2.3
X8.2875Y-3.9
X8.3391Y-3.8425
X8.5359Y-3.8228
X8.5375Y-3.8
X9.0375Y-3.9
X9.0891Y-3.8425
X9.2859Y-3.8228
X9.2875Y-3.8
X17.85Y-3.9
X17.9016Y-3.8425
X18.0984Y-3.8228
X18.1Y-3.8
X7.5375Y-3.9
X7.5891Y-3.8425
X7.7859Y-3.8228
X7.7875Y-3.8
X16.35Y-3.15
X16.4016Y-3.0925
X16.5984Y-3.0728
X16.6Y-3.05
T2
X12.6737Y-0.9856G85X12.6737Y-1.0092
G05
X12.6737Y-1.1403G85X12.6737Y-1.1836
G05
X13.0138Y-0.9856G85X13.0138Y-1.0092
G05
X13.0138Y-1.1403G85X13.0138Y-1.1836
G05
T0
M30
