G04 #@! TF.GenerationSoftware,KiCad,Pcbnew,(5.0.0)*
G04 #@! TF.CreationDate,2019-02-16T19:44:34-08:00*
G04 #@! TF.ProjectId,Voyager104,566F79616765723130342E6B69636164,rev?*
G04 #@! TF.SameCoordinates,Original*
G04 #@! TF.FileFunction,Copper,L1,Top,Signal*
G04 #@! TF.FilePolarity,Positive*
%FSLAX46Y46*%
G04 Gerber Fmt 4.6, Leading zero omitted, Abs format (unit mm)*
G04 Created by KiCad (PCBNEW (5.0.0)) date 02/16/19 19:44:34*
%MOMM*%
%LPD*%
G01*
G04 APERTURE LIST*
G04 #@! TA.AperFunction,ComponentPad*
%ADD10R,1.905000X1.905000*%
G04 #@! TD*
G04 #@! TA.AperFunction,ComponentPad*
%ADD11C,1.905000*%
G04 #@! TD*
G04 #@! TA.AperFunction,ComponentPad*
%ADD12C,2.250000*%
G04 #@! TD*
G04 #@! TA.AperFunction,Conductor*
%ADD13C,2.250000*%
G04 #@! TD*
G04 #@! TA.AperFunction,ComponentPad*
%ADD14O,1.000000X1.600000*%
G04 #@! TD*
G04 #@! TA.AperFunction,ComponentPad*
%ADD15O,1.000000X2.100000*%
G04 #@! TD*
G04 #@! TA.AperFunction,ComponentPad*
%ADD16C,1.700000*%
G04 #@! TD*
G04 #@! TA.AperFunction,ComponentPad*
%ADD17R,1.700000X1.700000*%
G04 #@! TD*
G04 #@! TA.AperFunction,ViaPad*
%ADD18C,0.600000*%
G04 #@! TD*
G04 #@! TA.AperFunction,Conductor*
%ADD19C,0.254000*%
G04 #@! TD*
G04 #@! TA.AperFunction,Conductor*
%ADD20C,0.381000*%
G04 #@! TD*
G04 APERTURE END LIST*
D10*
G04 #@! TO.P,MX_.1,4*
G04 #@! TO.N,Net-(MX_.1-Pad4)*
X244157500Y-125730000D03*
D11*
G04 #@! TO.P,MX_.1,3*
G04 #@! TO.N,+5V*
X241617500Y-125730000D03*
D12*
G04 #@! TO.P,MX_.1,1*
G04 #@! TO.N,COL10*
X240387500Y-116650000D03*
X239732501Y-117380000D03*
D13*
G04 #@! TD*
G04 #@! TO.N,COL10*
G04 #@! TO.C,MX_.1*
X239077500Y-118110000D02*
X240387502Y-116650000D01*
D12*
G04 #@! TO.P,MX_.1,2*
G04 #@! TO.N,Net-(D76-Pad2)*
X245427500Y-115570000D03*
X245407500Y-115860000D03*
D13*
G04 #@! TD*
G04 #@! TO.N,Net-(D76-Pad2)*
G04 #@! TO.C,MX_.1*
X245387500Y-116150000D02*
X245427500Y-115570000D01*
D10*
G04 #@! TO.P,MX_\002C1,4*
G04 #@! TO.N,Net-(MX_\002C1-Pad4)*
X225107500Y-125730000D03*
D11*
G04 #@! TO.P,MX_\002C1,3*
G04 #@! TO.N,+5V*
X222567500Y-125730000D03*
D12*
G04 #@! TO.P,MX_\002C1,1*
G04 #@! TO.N,COL9*
X221337500Y-116650000D03*
X220682501Y-117380000D03*
D13*
G04 #@! TD*
G04 #@! TO.N,COL9*
G04 #@! TO.C,MX_\002C1*
X220027500Y-118110000D02*
X221337502Y-116650000D01*
D12*
G04 #@! TO.P,MX_\002C1,2*
G04 #@! TO.N,Net-(D75-Pad2)*
X226377500Y-115570000D03*
X226357500Y-115860000D03*
D13*
G04 #@! TD*
G04 #@! TO.N,Net-(D75-Pad2)*
G04 #@! TO.C,MX_\002C1*
X226337500Y-116150000D02*
X226377500Y-115570000D01*
D12*
G04 #@! TO.P,MX_#1,2*
G04 #@! TO.N,Net-(D18-Pad2)*
X69195000Y-58710000D03*
D13*
G04 #@! TD*
G04 #@! TO.N,Net-(D18-Pad2)*
G04 #@! TO.C,MX_#1*
X69175000Y-59000000D02*
X69215000Y-58420000D01*
D12*
G04 #@! TO.P,MX_#1,2*
G04 #@! TO.N,Net-(D18-Pad2)*
X69215000Y-58420000D03*
G04 #@! TO.P,MX_#1,1*
G04 #@! TO.N,COL1*
X63520001Y-60230000D03*
D13*
G04 #@! TD*
G04 #@! TO.N,COL1*
G04 #@! TO.C,MX_#1*
X62865000Y-60960000D02*
X64175002Y-59500000D01*
D12*
G04 #@! TO.P,MX_#1,1*
G04 #@! TO.N,COL1*
X64175000Y-59500000D03*
D11*
G04 #@! TO.P,MX_#1,3*
G04 #@! TO.N,+5V*
X65405000Y-68580000D03*
D10*
G04 #@! TO.P,MX_#1,4*
G04 #@! TO.N,Net-(MX_#1-Pad4)*
X67945000Y-68580000D03*
G04 #@! TD*
G04 #@! TO.P,MX_#2,4*
G04 #@! TO.N,Net-(MX_#2-Pad4)*
X86995000Y-68580000D03*
D11*
G04 #@! TO.P,MX_#2,3*
G04 #@! TO.N,+5V*
X84455000Y-68580000D03*
D12*
G04 #@! TO.P,MX_#2,1*
G04 #@! TO.N,COL2*
X83225000Y-59500000D03*
X82570001Y-60230000D03*
D13*
G04 #@! TD*
G04 #@! TO.N,COL2*
G04 #@! TO.C,MX_#2*
X81915000Y-60960000D02*
X83225002Y-59500000D01*
D12*
G04 #@! TO.P,MX_#2,2*
G04 #@! TO.N,Net-(D19-Pad2)*
X88265000Y-58420000D03*
X88245000Y-58710000D03*
D13*
G04 #@! TD*
G04 #@! TO.N,Net-(D19-Pad2)*
G04 #@! TO.C,MX_#2*
X88225000Y-59000000D02*
X88265000Y-58420000D01*
D12*
G04 #@! TO.P,MX_#3,2*
G04 #@! TO.N,Net-(D20-Pad2)*
X107295000Y-58710000D03*
D13*
G04 #@! TD*
G04 #@! TO.N,Net-(D20-Pad2)*
G04 #@! TO.C,MX_#3*
X107275000Y-59000000D02*
X107315000Y-58420000D01*
D12*
G04 #@! TO.P,MX_#3,2*
G04 #@! TO.N,Net-(D20-Pad2)*
X107315000Y-58420000D03*
G04 #@! TO.P,MX_#3,1*
G04 #@! TO.N,COL3*
X101620001Y-60230000D03*
D13*
G04 #@! TD*
G04 #@! TO.N,COL3*
G04 #@! TO.C,MX_#3*
X100965000Y-60960000D02*
X102275002Y-59500000D01*
D12*
G04 #@! TO.P,MX_#3,1*
G04 #@! TO.N,COL3*
X102275000Y-59500000D03*
D11*
G04 #@! TO.P,MX_#3,3*
G04 #@! TO.N,+5V*
X103505000Y-68580000D03*
D10*
G04 #@! TO.P,MX_#3,4*
G04 #@! TO.N,Net-(MX_#3-Pad4)*
X106045000Y-68580000D03*
G04 #@! TD*
G04 #@! TO.P,MX_#4,4*
G04 #@! TO.N,Net-(MX_#4-Pad4)*
X125095000Y-68580000D03*
D11*
G04 #@! TO.P,MX_#4,3*
G04 #@! TO.N,+5V*
X122555000Y-68580000D03*
D12*
G04 #@! TO.P,MX_#4,1*
G04 #@! TO.N,COL4*
X121325000Y-59500000D03*
X120670001Y-60230000D03*
D13*
G04 #@! TD*
G04 #@! TO.N,COL4*
G04 #@! TO.C,MX_#4*
X120015000Y-60960000D02*
X121325002Y-59500000D01*
D12*
G04 #@! TO.P,MX_#4,2*
G04 #@! TO.N,Net-(D21-Pad2)*
X126365000Y-58420000D03*
X126345000Y-58710000D03*
D13*
G04 #@! TD*
G04 #@! TO.N,Net-(D21-Pad2)*
G04 #@! TO.C,MX_#4*
X126325000Y-59000000D02*
X126365000Y-58420000D01*
D10*
G04 #@! TO.P,MX_#5,4*
G04 #@! TO.N,Net-(MX_#5-Pad4)*
X144145000Y-68580000D03*
D11*
G04 #@! TO.P,MX_#5,3*
G04 #@! TO.N,+5V*
X141605000Y-68580000D03*
D12*
G04 #@! TO.P,MX_#5,1*
G04 #@! TO.N,COL5*
X140375000Y-59500000D03*
X139720001Y-60230000D03*
D13*
G04 #@! TD*
G04 #@! TO.N,COL5*
G04 #@! TO.C,MX_#5*
X139065000Y-60960000D02*
X140375002Y-59500000D01*
D12*
G04 #@! TO.P,MX_#5,2*
G04 #@! TO.N,Net-(D22-Pad2)*
X145415000Y-58420000D03*
X145395000Y-58710000D03*
D13*
G04 #@! TD*
G04 #@! TO.N,Net-(D22-Pad2)*
G04 #@! TO.C,MX_#5*
X145375000Y-59000000D02*
X145415000Y-58420000D01*
D10*
G04 #@! TO.P,MX_#6,4*
G04 #@! TO.N,Net-(MX_#6-Pad4)*
X163195000Y-68580000D03*
D11*
G04 #@! TO.P,MX_#6,3*
G04 #@! TO.N,+5V*
X160655000Y-68580000D03*
D12*
G04 #@! TO.P,MX_#6,1*
G04 #@! TO.N,COL6*
X159425000Y-59500000D03*
X158770001Y-60230000D03*
D13*
G04 #@! TD*
G04 #@! TO.N,COL6*
G04 #@! TO.C,MX_#6*
X158115000Y-60960000D02*
X159425002Y-59500000D01*
D12*
G04 #@! TO.P,MX_#6,2*
G04 #@! TO.N,Net-(D23-Pad2)*
X164465000Y-58420000D03*
X164445000Y-58710000D03*
D13*
G04 #@! TD*
G04 #@! TO.N,Net-(D23-Pad2)*
G04 #@! TO.C,MX_#6*
X164425000Y-59000000D02*
X164465000Y-58420000D01*
D10*
G04 #@! TO.P,MX_#7,4*
G04 #@! TO.N,Net-(MX_#7-Pad4)*
X182245000Y-68580000D03*
D11*
G04 #@! TO.P,MX_#7,3*
G04 #@! TO.N,+5V*
X179705000Y-68580000D03*
D12*
G04 #@! TO.P,MX_#7,1*
G04 #@! TO.N,COL7*
X178475000Y-59500000D03*
X177820001Y-60230000D03*
D13*
G04 #@! TD*
G04 #@! TO.N,COL7*
G04 #@! TO.C,MX_#7*
X177165000Y-60960000D02*
X178475002Y-59500000D01*
D12*
G04 #@! TO.P,MX_#7,2*
G04 #@! TO.N,Net-(D24-Pad2)*
X183515000Y-58420000D03*
X183495000Y-58710000D03*
D13*
G04 #@! TD*
G04 #@! TO.N,Net-(D24-Pad2)*
G04 #@! TO.C,MX_#7*
X183475000Y-59000000D02*
X183515000Y-58420000D01*
D12*
G04 #@! TO.P,MX_#8,2*
G04 #@! TO.N,Net-(D25-Pad2)*
X202545000Y-58710000D03*
D13*
G04 #@! TD*
G04 #@! TO.N,Net-(D25-Pad2)*
G04 #@! TO.C,MX_#8*
X202525000Y-59000000D02*
X202565000Y-58420000D01*
D12*
G04 #@! TO.P,MX_#8,2*
G04 #@! TO.N,Net-(D25-Pad2)*
X202565000Y-58420000D03*
G04 #@! TO.P,MX_#8,1*
G04 #@! TO.N,COL8*
X196870001Y-60230000D03*
D13*
G04 #@! TD*
G04 #@! TO.N,COL8*
G04 #@! TO.C,MX_#8*
X196215000Y-60960000D02*
X197525002Y-59500000D01*
D12*
G04 #@! TO.P,MX_#8,1*
G04 #@! TO.N,COL8*
X197525000Y-59500000D03*
D11*
G04 #@! TO.P,MX_#8,3*
G04 #@! TO.N,+5V*
X198755000Y-68580000D03*
D10*
G04 #@! TO.P,MX_#8,4*
G04 #@! TO.N,Net-(MX_#8-Pad4)*
X201295000Y-68580000D03*
G04 #@! TD*
D12*
G04 #@! TO.P,MX_#9,2*
G04 #@! TO.N,Net-(D26-Pad2)*
X221595000Y-58710000D03*
D13*
G04 #@! TD*
G04 #@! TO.N,Net-(D26-Pad2)*
G04 #@! TO.C,MX_#9*
X221575000Y-59000000D02*
X221615000Y-58420000D01*
D12*
G04 #@! TO.P,MX_#9,2*
G04 #@! TO.N,Net-(D26-Pad2)*
X221615000Y-58420000D03*
G04 #@! TO.P,MX_#9,1*
G04 #@! TO.N,COL9*
X215920001Y-60230000D03*
D13*
G04 #@! TD*
G04 #@! TO.N,COL9*
G04 #@! TO.C,MX_#9*
X215265000Y-60960000D02*
X216575002Y-59500000D01*
D12*
G04 #@! TO.P,MX_#9,1*
G04 #@! TO.N,COL9*
X216575000Y-59500000D03*
D11*
G04 #@! TO.P,MX_#9,3*
G04 #@! TO.N,+5V*
X217805000Y-68580000D03*
D10*
G04 #@! TO.P,MX_#9,4*
G04 #@! TO.N,Net-(MX_#9-Pad4)*
X220345000Y-68580000D03*
G04 #@! TD*
D12*
G04 #@! TO.P,MX_#0_1,2*
G04 #@! TO.N,Net-(D27-Pad2)*
X240645000Y-58710000D03*
D13*
G04 #@! TD*
G04 #@! TO.N,Net-(D27-Pad2)*
G04 #@! TO.C,MX_#0_1*
X240625000Y-59000000D02*
X240665000Y-58420000D01*
D12*
G04 #@! TO.P,MX_#0_1,2*
G04 #@! TO.N,Net-(D27-Pad2)*
X240665000Y-58420000D03*
G04 #@! TO.P,MX_#0_1,1*
G04 #@! TO.N,COL10*
X234970001Y-60230000D03*
D13*
G04 #@! TD*
G04 #@! TO.N,COL10*
G04 #@! TO.C,MX_#0_1*
X234315000Y-60960000D02*
X235625002Y-59500000D01*
D12*
G04 #@! TO.P,MX_#0_1,1*
G04 #@! TO.N,COL10*
X235625000Y-59500000D03*
D11*
G04 #@! TO.P,MX_#0_1,3*
G04 #@! TO.N,+5V*
X236855000Y-68580000D03*
D10*
G04 #@! TO.P,MX_#0_1,4*
G04 #@! TO.N,Net-(MX_#0_1-Pad4)*
X239395000Y-68580000D03*
G04 #@! TD*
G04 #@! TO.P,MX_'1,4*
G04 #@! TO.N,Net-(MX_'1-Pad4)*
X272732500Y-106680000D03*
D11*
G04 #@! TO.P,MX_'1,3*
G04 #@! TO.N,+5V*
X270192500Y-106680000D03*
D12*
G04 #@! TO.P,MX_'1,1*
G04 #@! TO.N,COL11*
X268962500Y-97600000D03*
X268307501Y-98330000D03*
D13*
G04 #@! TD*
G04 #@! TO.N,COL11*
G04 #@! TO.C,MX_'1*
X267652500Y-99060000D02*
X268962502Y-97600000D01*
D12*
G04 #@! TO.P,MX_'1,2*
G04 #@! TO.N,Net-(D63-Pad2)*
X274002500Y-96520000D03*
X273982500Y-96810000D03*
D13*
G04 #@! TD*
G04 #@! TO.N,Net-(D63-Pad2)*
G04 #@! TO.C,MX_'1*
X273962500Y-97100000D02*
X274002500Y-96520000D01*
D12*
G04 #@! TO.P,MX_-1,2*
G04 #@! TO.N,Net-(D28-Pad2)*
X259695000Y-58710000D03*
D13*
G04 #@! TD*
G04 #@! TO.N,Net-(D28-Pad2)*
G04 #@! TO.C,MX_-1*
X259675000Y-59000000D02*
X259715000Y-58420000D01*
D12*
G04 #@! TO.P,MX_-1,2*
G04 #@! TO.N,Net-(D28-Pad2)*
X259715000Y-58420000D03*
G04 #@! TO.P,MX_-1,1*
G04 #@! TO.N,COL11*
X254020001Y-60230000D03*
D13*
G04 #@! TD*
G04 #@! TO.N,COL11*
G04 #@! TO.C,MX_-1*
X253365000Y-60960000D02*
X254675002Y-59500000D01*
D12*
G04 #@! TO.P,MX_-1,1*
G04 #@! TO.N,COL11*
X254675000Y-59500000D03*
D11*
G04 #@! TO.P,MX_-1,3*
G04 #@! TO.N,+5V*
X255905000Y-68580000D03*
D10*
G04 #@! TO.P,MX_-1,4*
G04 #@! TO.N,Net-(MX_-1-Pad4)*
X258445000Y-68580000D03*
G04 #@! TD*
G04 #@! TO.P,MX_/1,4*
G04 #@! TO.N,Net-(MX_/1-Pad4)*
X263207500Y-125730000D03*
D11*
G04 #@! TO.P,MX_/1,3*
G04 #@! TO.N,+5V*
X260667500Y-125730000D03*
D12*
G04 #@! TO.P,MX_/1,1*
G04 #@! TO.N,COL11*
X259437500Y-116650000D03*
X258782501Y-117380000D03*
D13*
G04 #@! TD*
G04 #@! TO.N,COL11*
G04 #@! TO.C,MX_/1*
X258127500Y-118110000D02*
X259437502Y-116650000D01*
D12*
G04 #@! TO.P,MX_/1,2*
G04 #@! TO.N,Net-(D77-Pad2)*
X264477500Y-115570000D03*
X264457500Y-115860000D03*
D13*
G04 #@! TD*
G04 #@! TO.N,Net-(D77-Pad2)*
G04 #@! TO.C,MX_/1*
X264437500Y-116150000D02*
X264477500Y-115570000D01*
D12*
G04 #@! TO.P,MX_;1,2*
G04 #@! TO.N,Net-(D62-Pad2)*
X254932500Y-96810000D03*
D13*
G04 #@! TD*
G04 #@! TO.N,Net-(D62-Pad2)*
G04 #@! TO.C,MX_;1*
X254912500Y-97100000D02*
X254952500Y-96520000D01*
D12*
G04 #@! TO.P,MX_;1,2*
G04 #@! TO.N,Net-(D62-Pad2)*
X254952500Y-96520000D03*
G04 #@! TO.P,MX_;1,1*
G04 #@! TO.N,COL10*
X249257501Y-98330000D03*
D13*
G04 #@! TD*
G04 #@! TO.N,COL10*
G04 #@! TO.C,MX_;1*
X248602500Y-99060000D02*
X249912502Y-97600000D01*
D12*
G04 #@! TO.P,MX_;1,1*
G04 #@! TO.N,COL10*
X249912500Y-97600000D03*
D11*
G04 #@! TO.P,MX_;1,3*
G04 #@! TO.N,+5V*
X251142500Y-106680000D03*
D10*
G04 #@! TO.P,MX_;1,4*
G04 #@! TO.N,Net-(MX_;1-Pad4)*
X253682500Y-106680000D03*
G04 #@! TD*
D12*
G04 #@! TO.P,MX_=1,2*
G04 #@! TO.N,Net-(D29-Pad2)*
X278745000Y-58710000D03*
D13*
G04 #@! TD*
G04 #@! TO.N,Net-(D29-Pad2)*
G04 #@! TO.C,MX_=1*
X278725000Y-59000000D02*
X278765000Y-58420000D01*
D12*
G04 #@! TO.P,MX_=1,2*
G04 #@! TO.N,Net-(D29-Pad2)*
X278765000Y-58420000D03*
G04 #@! TO.P,MX_=1,1*
G04 #@! TO.N,COL12*
X273070001Y-60230000D03*
D13*
G04 #@! TD*
G04 #@! TO.N,COL12*
G04 #@! TO.C,MX_=1*
X272415000Y-60960000D02*
X273725002Y-59500000D01*
D12*
G04 #@! TO.P,MX_=1,1*
G04 #@! TO.N,COL12*
X273725000Y-59500000D03*
D11*
G04 #@! TO.P,MX_=1,3*
G04 #@! TO.N,+5V*
X274955000Y-68580000D03*
D10*
G04 #@! TO.P,MX_=1,4*
G04 #@! TO.N,Net-(MX_=1-Pad4)*
X277495000Y-68580000D03*
G04 #@! TD*
D12*
G04 #@! TO.P,MX_[1,2*
G04 #@! TO.N,Net-(D46-Pad2)*
X269220000Y-77760000D03*
D13*
G04 #@! TD*
G04 #@! TO.N,Net-(D46-Pad2)*
G04 #@! TO.C,MX_[1*
X269200000Y-78050000D02*
X269240000Y-77470000D01*
D12*
G04 #@! TO.P,MX_[1,2*
G04 #@! TO.N,Net-(D46-Pad2)*
X269240000Y-77470000D03*
G04 #@! TO.P,MX_[1,1*
G04 #@! TO.N,COL11*
X263545001Y-79280000D03*
D13*
G04 #@! TD*
G04 #@! TO.N,COL11*
G04 #@! TO.C,MX_[1*
X262890000Y-80010000D02*
X264200002Y-78550000D01*
D12*
G04 #@! TO.P,MX_[1,1*
G04 #@! TO.N,COL11*
X264200000Y-78550000D03*
D11*
G04 #@! TO.P,MX_[1,3*
G04 #@! TO.N,+5V*
X265430000Y-87630000D03*
D10*
G04 #@! TO.P,MX_[1,4*
G04 #@! TO.N,Net-(MX_[1-Pad4)*
X267970000Y-87630000D03*
G04 #@! TD*
G04 #@! TO.P,MX_\005C1,4*
G04 #@! TO.N,Net-(MX_\005C1-Pad4)*
X310832500Y-87630000D03*
D11*
G04 #@! TO.P,MX_\005C1,3*
G04 #@! TO.N,+5V*
X308292500Y-87630000D03*
D12*
G04 #@! TO.P,MX_\005C1,1*
G04 #@! TO.N,COL13*
X307062500Y-78550000D03*
X306407501Y-79280000D03*
D13*
G04 #@! TD*
G04 #@! TO.N,COL13*
G04 #@! TO.C,MX_\005C1*
X305752500Y-80010000D02*
X307062502Y-78550000D01*
D12*
G04 #@! TO.P,MX_\005C1,2*
G04 #@! TO.N,Net-(D48-Pad2)*
X312102500Y-77470000D03*
X312082500Y-77760000D03*
D13*
G04 #@! TD*
G04 #@! TO.N,Net-(D48-Pad2)*
G04 #@! TO.C,MX_\005C1*
X312062500Y-78050000D02*
X312102500Y-77470000D01*
D10*
G04 #@! TO.P,MX_]1,4*
G04 #@! TO.N,Net-(MX_]1-Pad4)*
X287020000Y-87630000D03*
D11*
G04 #@! TO.P,MX_]1,3*
G04 #@! TO.N,+5V*
X284480000Y-87630000D03*
D12*
G04 #@! TO.P,MX_]1,1*
G04 #@! TO.N,COL12*
X283250000Y-78550000D03*
X282595001Y-79280000D03*
D13*
G04 #@! TD*
G04 #@! TO.N,COL12*
G04 #@! TO.C,MX_]1*
X281940000Y-80010000D02*
X283250002Y-78550000D01*
D12*
G04 #@! TO.P,MX_]1,2*
G04 #@! TO.N,Net-(D47-Pad2)*
X288290000Y-77470000D03*
X288270000Y-77760000D03*
D13*
G04 #@! TD*
G04 #@! TO.N,Net-(D47-Pad2)*
G04 #@! TO.C,MX_]1*
X288250000Y-78050000D02*
X288290000Y-77470000D01*
D12*
G04 #@! TO.P,MX_`1,2*
G04 #@! TO.N,Net-(D17-Pad2)*
X50145000Y-58710000D03*
D13*
G04 #@! TD*
G04 #@! TO.N,Net-(D17-Pad2)*
G04 #@! TO.C,MX_`1*
X50125000Y-59000000D02*
X50165000Y-58420000D01*
D12*
G04 #@! TO.P,MX_`1,2*
G04 #@! TO.N,Net-(D17-Pad2)*
X50165000Y-58420000D03*
G04 #@! TO.P,MX_`1,1*
G04 #@! TO.N,COL0*
X44470001Y-60230000D03*
D13*
G04 #@! TD*
G04 #@! TO.N,COL0*
G04 #@! TO.C,MX_`1*
X43815000Y-60960000D02*
X45125002Y-59500000D01*
D12*
G04 #@! TO.P,MX_`1,1*
G04 #@! TO.N,COL0*
X45125000Y-59500000D03*
D11*
G04 #@! TO.P,MX_`1,3*
G04 #@! TO.N,+5V*
X46355000Y-68580000D03*
D10*
G04 #@! TO.P,MX_`1,4*
G04 #@! TO.N,Net-(MX_`1-Pad4)*
X48895000Y-68580000D03*
G04 #@! TD*
D12*
G04 #@! TO.P,MX_A1,2*
G04 #@! TO.N,Net-(D53-Pad2)*
X83482500Y-96810000D03*
D13*
G04 #@! TD*
G04 #@! TO.N,Net-(D53-Pad2)*
G04 #@! TO.C,MX_A1*
X83462500Y-97100000D02*
X83502500Y-96520000D01*
D12*
G04 #@! TO.P,MX_A1,2*
G04 #@! TO.N,Net-(D53-Pad2)*
X83502500Y-96520000D03*
G04 #@! TO.P,MX_A1,1*
G04 #@! TO.N,COL1*
X77807501Y-98330000D03*
D13*
G04 #@! TD*
G04 #@! TO.N,COL1*
G04 #@! TO.C,MX_A1*
X77152500Y-99060000D02*
X78462502Y-97600000D01*
D12*
G04 #@! TO.P,MX_A1,1*
G04 #@! TO.N,COL1*
X78462500Y-97600000D03*
D11*
G04 #@! TO.P,MX_A1,3*
G04 #@! TO.N,+5V*
X79692500Y-106680000D03*
D10*
G04 #@! TO.P,MX_A1,4*
G04 #@! TO.N,Net-(MX_A1-Pad4)*
X82232500Y-106680000D03*
G04 #@! TD*
D12*
G04 #@! TO.P,MX_B1,2*
G04 #@! TO.N,Net-(D72-Pad2)*
X169207500Y-115860000D03*
D13*
G04 #@! TD*
G04 #@! TO.N,Net-(D72-Pad2)*
G04 #@! TO.C,MX_B1*
X169187500Y-116150000D02*
X169227500Y-115570000D01*
D12*
G04 #@! TO.P,MX_B1,2*
G04 #@! TO.N,Net-(D72-Pad2)*
X169227500Y-115570000D03*
G04 #@! TO.P,MX_B1,1*
G04 #@! TO.N,COL6*
X163532501Y-117380000D03*
D13*
G04 #@! TD*
G04 #@! TO.N,COL6*
G04 #@! TO.C,MX_B1*
X162877500Y-118110000D02*
X164187502Y-116650000D01*
D12*
G04 #@! TO.P,MX_B1,1*
G04 #@! TO.N,COL6*
X164187500Y-116650000D03*
D11*
G04 #@! TO.P,MX_B1,3*
G04 #@! TO.N,+5V*
X165417500Y-125730000D03*
D10*
G04 #@! TO.P,MX_B1,4*
G04 #@! TO.N,Net-(MX_B1-Pad4)*
X167957500Y-125730000D03*
G04 #@! TD*
D12*
G04 #@! TO.P,MX_C1,2*
G04 #@! TO.N,Net-(D70-Pad2)*
X131107500Y-115860000D03*
D13*
G04 #@! TD*
G04 #@! TO.N,Net-(D70-Pad2)*
G04 #@! TO.C,MX_C1*
X131087500Y-116150000D02*
X131127500Y-115570000D01*
D12*
G04 #@! TO.P,MX_C1,2*
G04 #@! TO.N,Net-(D70-Pad2)*
X131127500Y-115570000D03*
G04 #@! TO.P,MX_C1,1*
G04 #@! TO.N,COL4*
X125432501Y-117380000D03*
D13*
G04 #@! TD*
G04 #@! TO.N,COL4*
G04 #@! TO.C,MX_C1*
X124777500Y-118110000D02*
X126087502Y-116650000D01*
D12*
G04 #@! TO.P,MX_C1,1*
G04 #@! TO.N,COL4*
X126087500Y-116650000D03*
D11*
G04 #@! TO.P,MX_C1,3*
G04 #@! TO.N,+5V*
X127317500Y-125730000D03*
D10*
G04 #@! TO.P,MX_C1,4*
G04 #@! TO.N,Net-(MX_C1-Pad4)*
X129857500Y-125730000D03*
G04 #@! TD*
G04 #@! TO.P,MX_D1,4*
G04 #@! TO.N,Net-(MX_D1-Pad4)*
X120332500Y-106680000D03*
D11*
G04 #@! TO.P,MX_D1,3*
G04 #@! TO.N,+5V*
X117792500Y-106680000D03*
D12*
G04 #@! TO.P,MX_D1,1*
G04 #@! TO.N,COL3*
X116562500Y-97600000D03*
X115907501Y-98330000D03*
D13*
G04 #@! TD*
G04 #@! TO.N,COL3*
G04 #@! TO.C,MX_D1*
X115252500Y-99060000D02*
X116562502Y-97600000D01*
D12*
G04 #@! TO.P,MX_D1,2*
G04 #@! TO.N,Net-(D55-Pad2)*
X121602500Y-96520000D03*
X121582500Y-96810000D03*
D13*
G04 #@! TD*
G04 #@! TO.N,Net-(D55-Pad2)*
G04 #@! TO.C,MX_D1*
X121562500Y-97100000D02*
X121602500Y-96520000D01*
D12*
G04 #@! TO.P,MX_E1,2*
G04 #@! TO.N,Net-(D38-Pad2)*
X116820000Y-77760000D03*
D13*
G04 #@! TD*
G04 #@! TO.N,Net-(D38-Pad2)*
G04 #@! TO.C,MX_E1*
X116800000Y-78050000D02*
X116840000Y-77470000D01*
D12*
G04 #@! TO.P,MX_E1,2*
G04 #@! TO.N,Net-(D38-Pad2)*
X116840000Y-77470000D03*
G04 #@! TO.P,MX_E1,1*
G04 #@! TO.N,COL3*
X111145001Y-79280000D03*
D13*
G04 #@! TD*
G04 #@! TO.N,COL3*
G04 #@! TO.C,MX_E1*
X110490000Y-80010000D02*
X111800002Y-78550000D01*
D12*
G04 #@! TO.P,MX_E1,1*
G04 #@! TO.N,COL3*
X111800000Y-78550000D03*
D11*
G04 #@! TO.P,MX_E1,3*
G04 #@! TO.N,+5V*
X113030000Y-87630000D03*
D10*
G04 #@! TO.P,MX_E1,4*
G04 #@! TO.N,Net-(MX_E1-Pad4)*
X115570000Y-87630000D03*
G04 #@! TD*
D12*
G04 #@! TO.P,MX_ESC1,2*
G04 #@! TO.N,Net-(D1-Pad2)*
X50145000Y-34897500D03*
D13*
G04 #@! TD*
G04 #@! TO.N,Net-(D1-Pad2)*
G04 #@! TO.C,MX_ESC1*
X50125000Y-35187500D02*
X50165000Y-34607500D01*
D12*
G04 #@! TO.P,MX_ESC1,2*
G04 #@! TO.N,Net-(D1-Pad2)*
X50165000Y-34607500D03*
G04 #@! TO.P,MX_ESC1,1*
G04 #@! TO.N,COL0*
X44470001Y-36417500D03*
D13*
G04 #@! TD*
G04 #@! TO.N,COL0*
G04 #@! TO.C,MX_ESC1*
X43815000Y-37147500D02*
X45125002Y-35687500D01*
D12*
G04 #@! TO.P,MX_ESC1,1*
G04 #@! TO.N,COL0*
X45125000Y-35687500D03*
D11*
G04 #@! TO.P,MX_ESC1,3*
G04 #@! TO.N,+5V*
X46355000Y-44767500D03*
D10*
G04 #@! TO.P,MX_ESC1,4*
G04 #@! TO.N,Net-(MX_ESC1-Pad4)*
X48895000Y-44767500D03*
G04 #@! TD*
D12*
G04 #@! TO.P,MX_F1,2*
G04 #@! TO.N,Net-(D56-Pad2)*
X140632500Y-96810000D03*
D13*
G04 #@! TD*
G04 #@! TO.N,Net-(D56-Pad2)*
G04 #@! TO.C,MX_F1*
X140612500Y-97100000D02*
X140652500Y-96520000D01*
D12*
G04 #@! TO.P,MX_F1,2*
G04 #@! TO.N,Net-(D56-Pad2)*
X140652500Y-96520000D03*
G04 #@! TO.P,MX_F1,1*
G04 #@! TO.N,COL4*
X134957501Y-98330000D03*
D13*
G04 #@! TD*
G04 #@! TO.N,COL4*
G04 #@! TO.C,MX_F1*
X134302500Y-99060000D02*
X135612502Y-97600000D01*
D12*
G04 #@! TO.P,MX_F1,1*
G04 #@! TO.N,COL4*
X135612500Y-97600000D03*
D11*
G04 #@! TO.P,MX_F1,3*
G04 #@! TO.N,+5V*
X136842500Y-106680000D03*
D10*
G04 #@! TO.P,MX_F1,4*
G04 #@! TO.N,Net-(MX_F1-Pad4)*
X139382500Y-106680000D03*
G04 #@! TD*
G04 #@! TO.P,MX_FN1,4*
G04 #@! TO.N,Net-(MX_FN1-Pad4)*
X86995000Y-44767500D03*
D11*
G04 #@! TO.P,MX_FN1,3*
G04 #@! TO.N,+5V*
X84455000Y-44767500D03*
D12*
G04 #@! TO.P,MX_FN1,1*
G04 #@! TO.N,COL2*
X83225000Y-35687500D03*
X82570001Y-36417500D03*
D13*
G04 #@! TD*
G04 #@! TO.N,COL2*
G04 #@! TO.C,MX_FN1*
X81915000Y-37147500D02*
X83225002Y-35687500D01*
D12*
G04 #@! TO.P,MX_FN1,2*
G04 #@! TO.N,Net-(D2-Pad2)*
X88265000Y-34607500D03*
X88245000Y-34897500D03*
D13*
G04 #@! TD*
G04 #@! TO.N,Net-(D2-Pad2)*
G04 #@! TO.C,MX_FN1*
X88225000Y-35187500D02*
X88265000Y-34607500D01*
D12*
G04 #@! TO.P,MX_FN2,2*
G04 #@! TO.N,Net-(D3-Pad2)*
X107295000Y-34897500D03*
D13*
G04 #@! TD*
G04 #@! TO.N,Net-(D3-Pad2)*
G04 #@! TO.C,MX_FN2*
X107275000Y-35187500D02*
X107315000Y-34607500D01*
D12*
G04 #@! TO.P,MX_FN2,2*
G04 #@! TO.N,Net-(D3-Pad2)*
X107315000Y-34607500D03*
G04 #@! TO.P,MX_FN2,1*
G04 #@! TO.N,COL3*
X101620001Y-36417500D03*
D13*
G04 #@! TD*
G04 #@! TO.N,COL3*
G04 #@! TO.C,MX_FN2*
X100965000Y-37147500D02*
X102275002Y-35687500D01*
D12*
G04 #@! TO.P,MX_FN2,1*
G04 #@! TO.N,COL3*
X102275000Y-35687500D03*
D11*
G04 #@! TO.P,MX_FN2,3*
G04 #@! TO.N,+5V*
X103505000Y-44767500D03*
D10*
G04 #@! TO.P,MX_FN2,4*
G04 #@! TO.N,Net-(MX_FN2-Pad4)*
X106045000Y-44767500D03*
G04 #@! TD*
D12*
G04 #@! TO.P,MX_FN3,2*
G04 #@! TO.N,Net-(D4-Pad2)*
X126345000Y-34897500D03*
D13*
G04 #@! TD*
G04 #@! TO.N,Net-(D4-Pad2)*
G04 #@! TO.C,MX_FN3*
X126325000Y-35187500D02*
X126365000Y-34607500D01*
D12*
G04 #@! TO.P,MX_FN3,2*
G04 #@! TO.N,Net-(D4-Pad2)*
X126365000Y-34607500D03*
G04 #@! TO.P,MX_FN3,1*
G04 #@! TO.N,COL4*
X120670001Y-36417500D03*
D13*
G04 #@! TD*
G04 #@! TO.N,COL4*
G04 #@! TO.C,MX_FN3*
X120015000Y-37147500D02*
X121325002Y-35687500D01*
D12*
G04 #@! TO.P,MX_FN3,1*
G04 #@! TO.N,COL4*
X121325000Y-35687500D03*
D11*
G04 #@! TO.P,MX_FN3,3*
G04 #@! TO.N,+5V*
X122555000Y-44767500D03*
D10*
G04 #@! TO.P,MX_FN3,4*
G04 #@! TO.N,Net-(MX_FN3-Pad4)*
X125095000Y-44767500D03*
G04 #@! TD*
D12*
G04 #@! TO.P,MX_FN4,2*
G04 #@! TO.N,Net-(D5-Pad2)*
X145395000Y-34897500D03*
D13*
G04 #@! TD*
G04 #@! TO.N,Net-(D5-Pad2)*
G04 #@! TO.C,MX_FN4*
X145375000Y-35187500D02*
X145415000Y-34607500D01*
D12*
G04 #@! TO.P,MX_FN4,2*
G04 #@! TO.N,Net-(D5-Pad2)*
X145415000Y-34607500D03*
G04 #@! TO.P,MX_FN4,1*
G04 #@! TO.N,COL5*
X139720001Y-36417500D03*
D13*
G04 #@! TD*
G04 #@! TO.N,COL5*
G04 #@! TO.C,MX_FN4*
X139065000Y-37147500D02*
X140375002Y-35687500D01*
D12*
G04 #@! TO.P,MX_FN4,1*
G04 #@! TO.N,COL5*
X140375000Y-35687500D03*
D11*
G04 #@! TO.P,MX_FN4,3*
G04 #@! TO.N,+5V*
X141605000Y-44767500D03*
D10*
G04 #@! TO.P,MX_FN4,4*
G04 #@! TO.N,Net-(MX_FN4-Pad4)*
X144145000Y-44767500D03*
G04 #@! TD*
D12*
G04 #@! TO.P,MX_FN5,2*
G04 #@! TO.N,Net-(D6-Pad2)*
X173970000Y-34897500D03*
D13*
G04 #@! TD*
G04 #@! TO.N,Net-(D6-Pad2)*
G04 #@! TO.C,MX_FN5*
X173950000Y-35187500D02*
X173990000Y-34607500D01*
D12*
G04 #@! TO.P,MX_FN5,2*
G04 #@! TO.N,Net-(D6-Pad2)*
X173990000Y-34607500D03*
G04 #@! TO.P,MX_FN5,1*
G04 #@! TO.N,COL6*
X168295001Y-36417500D03*
D13*
G04 #@! TD*
G04 #@! TO.N,COL6*
G04 #@! TO.C,MX_FN5*
X167640000Y-37147500D02*
X168950002Y-35687500D01*
D12*
G04 #@! TO.P,MX_FN5,1*
G04 #@! TO.N,COL6*
X168950000Y-35687500D03*
D11*
G04 #@! TO.P,MX_FN5,3*
G04 #@! TO.N,+5V*
X170180000Y-44767500D03*
D10*
G04 #@! TO.P,MX_FN5,4*
G04 #@! TO.N,Net-(MX_FN5-Pad4)*
X172720000Y-44767500D03*
G04 #@! TD*
G04 #@! TO.P,MX_FN6,4*
G04 #@! TO.N,Net-(MX_FN6-Pad4)*
X191770000Y-44767500D03*
D11*
G04 #@! TO.P,MX_FN6,3*
G04 #@! TO.N,+5V*
X189230000Y-44767500D03*
D12*
G04 #@! TO.P,MX_FN6,1*
G04 #@! TO.N,COL7*
X188000000Y-35687500D03*
X187345001Y-36417500D03*
D13*
G04 #@! TD*
G04 #@! TO.N,COL7*
G04 #@! TO.C,MX_FN6*
X186690000Y-37147500D02*
X188000002Y-35687500D01*
D12*
G04 #@! TO.P,MX_FN6,2*
G04 #@! TO.N,Net-(D7-Pad2)*
X193040000Y-34607500D03*
X193020000Y-34897500D03*
D13*
G04 #@! TD*
G04 #@! TO.N,Net-(D7-Pad2)*
G04 #@! TO.C,MX_FN6*
X193000000Y-35187500D02*
X193040000Y-34607500D01*
D12*
G04 #@! TO.P,MX_FN7,2*
G04 #@! TO.N,Net-(D8-Pad2)*
X212070000Y-34897500D03*
D13*
G04 #@! TD*
G04 #@! TO.N,Net-(D8-Pad2)*
G04 #@! TO.C,MX_FN7*
X212050000Y-35187500D02*
X212090000Y-34607500D01*
D12*
G04 #@! TO.P,MX_FN7,2*
G04 #@! TO.N,Net-(D8-Pad2)*
X212090000Y-34607500D03*
G04 #@! TO.P,MX_FN7,1*
G04 #@! TO.N,COL8*
X206395001Y-36417500D03*
D13*
G04 #@! TD*
G04 #@! TO.N,COL8*
G04 #@! TO.C,MX_FN7*
X205740000Y-37147500D02*
X207050002Y-35687500D01*
D12*
G04 #@! TO.P,MX_FN7,1*
G04 #@! TO.N,COL8*
X207050000Y-35687500D03*
D11*
G04 #@! TO.P,MX_FN7,3*
G04 #@! TO.N,+5V*
X208280000Y-44767500D03*
D10*
G04 #@! TO.P,MX_FN7,4*
G04 #@! TO.N,Net-(MX_FN7-Pad4)*
X210820000Y-44767500D03*
G04 #@! TD*
D12*
G04 #@! TO.P,MX_FN8,2*
G04 #@! TO.N,Net-(D9-Pad2)*
X231120000Y-34897500D03*
D13*
G04 #@! TD*
G04 #@! TO.N,Net-(D9-Pad2)*
G04 #@! TO.C,MX_FN8*
X231100000Y-35187500D02*
X231140000Y-34607500D01*
D12*
G04 #@! TO.P,MX_FN8,2*
G04 #@! TO.N,Net-(D9-Pad2)*
X231140000Y-34607500D03*
G04 #@! TO.P,MX_FN8,1*
G04 #@! TO.N,COL9*
X225445001Y-36417500D03*
D13*
G04 #@! TD*
G04 #@! TO.N,COL9*
G04 #@! TO.C,MX_FN8*
X224790000Y-37147500D02*
X226100002Y-35687500D01*
D12*
G04 #@! TO.P,MX_FN8,1*
G04 #@! TO.N,COL9*
X226100000Y-35687500D03*
D11*
G04 #@! TO.P,MX_FN8,3*
G04 #@! TO.N,+5V*
X227330000Y-44767500D03*
D10*
G04 #@! TO.P,MX_FN8,4*
G04 #@! TO.N,Net-(MX_FN8-Pad4)*
X229870000Y-44767500D03*
G04 #@! TD*
G04 #@! TO.P,MX_FN9,4*
G04 #@! TO.N,Net-(MX_FN9-Pad4)*
X258445000Y-44767500D03*
D11*
G04 #@! TO.P,MX_FN9,3*
G04 #@! TO.N,+5V*
X255905000Y-44767500D03*
D12*
G04 #@! TO.P,MX_FN9,1*
G04 #@! TO.N,COL10*
X254675000Y-35687500D03*
X254020001Y-36417500D03*
D13*
G04 #@! TD*
G04 #@! TO.N,COL10*
G04 #@! TO.C,MX_FN9*
X253365000Y-37147500D02*
X254675002Y-35687500D01*
D12*
G04 #@! TO.P,MX_FN9,2*
G04 #@! TO.N,Net-(D10-Pad2)*
X259715000Y-34607500D03*
X259695000Y-34897500D03*
D13*
G04 #@! TD*
G04 #@! TO.N,Net-(D10-Pad2)*
G04 #@! TO.C,MX_FN9*
X259675000Y-35187500D02*
X259715000Y-34607500D01*
D10*
G04 #@! TO.P,MX_FN10,4*
G04 #@! TO.N,Net-(MX_FN10-Pad4)*
X277495000Y-44767500D03*
D11*
G04 #@! TO.P,MX_FN10,3*
G04 #@! TO.N,+5V*
X274955000Y-44767500D03*
D12*
G04 #@! TO.P,MX_FN10,1*
G04 #@! TO.N,COL11*
X273725000Y-35687500D03*
X273070001Y-36417500D03*
D13*
G04 #@! TD*
G04 #@! TO.N,COL11*
G04 #@! TO.C,MX_FN10*
X272415000Y-37147500D02*
X273725002Y-35687500D01*
D12*
G04 #@! TO.P,MX_FN10,2*
G04 #@! TO.N,Net-(D11-Pad2)*
X278765000Y-34607500D03*
X278745000Y-34897500D03*
D13*
G04 #@! TD*
G04 #@! TO.N,Net-(D11-Pad2)*
G04 #@! TO.C,MX_FN10*
X278725000Y-35187500D02*
X278765000Y-34607500D01*
D10*
G04 #@! TO.P,MX_FN11,4*
G04 #@! TO.N,Net-(MX_FN11-Pad4)*
X296545000Y-44767500D03*
D11*
G04 #@! TO.P,MX_FN11,3*
G04 #@! TO.N,+5V*
X294005000Y-44767500D03*
D12*
G04 #@! TO.P,MX_FN11,1*
G04 #@! TO.N,COL12*
X292775000Y-35687500D03*
X292120001Y-36417500D03*
D13*
G04 #@! TD*
G04 #@! TO.N,COL12*
G04 #@! TO.C,MX_FN11*
X291465000Y-37147500D02*
X292775002Y-35687500D01*
D12*
G04 #@! TO.P,MX_FN11,2*
G04 #@! TO.N,Net-(D12-Pad2)*
X297815000Y-34607500D03*
X297795000Y-34897500D03*
D13*
G04 #@! TD*
G04 #@! TO.N,Net-(D12-Pad2)*
G04 #@! TO.C,MX_FN11*
X297775000Y-35187500D02*
X297815000Y-34607500D01*
D10*
G04 #@! TO.P,MX_FN12,4*
G04 #@! TO.N,Net-(MX_FN12-Pad4)*
X315595000Y-44767500D03*
D11*
G04 #@! TO.P,MX_FN12,3*
G04 #@! TO.N,+5V*
X313055000Y-44767500D03*
D12*
G04 #@! TO.P,MX_FN12,1*
G04 #@! TO.N,COL13*
X311825000Y-35687500D03*
X311170001Y-36417500D03*
D13*
G04 #@! TD*
G04 #@! TO.N,COL13*
G04 #@! TO.C,MX_FN12*
X310515000Y-37147500D02*
X311825002Y-35687500D01*
D12*
G04 #@! TO.P,MX_FN12,2*
G04 #@! TO.N,Net-(D13-Pad2)*
X316865000Y-34607500D03*
X316845000Y-34897500D03*
D13*
G04 #@! TD*
G04 #@! TO.N,Net-(D13-Pad2)*
G04 #@! TO.C,MX_FN12*
X316825000Y-35187500D02*
X316865000Y-34607500D01*
D12*
G04 #@! TO.P,MX_G1,2*
G04 #@! TO.N,Net-(D57-Pad2)*
X159682500Y-96810000D03*
D13*
G04 #@! TD*
G04 #@! TO.N,Net-(D57-Pad2)*
G04 #@! TO.C,MX_G1*
X159662500Y-97100000D02*
X159702500Y-96520000D01*
D12*
G04 #@! TO.P,MX_G1,2*
G04 #@! TO.N,Net-(D57-Pad2)*
X159702500Y-96520000D03*
G04 #@! TO.P,MX_G1,1*
G04 #@! TO.N,COL5*
X154007501Y-98330000D03*
D13*
G04 #@! TD*
G04 #@! TO.N,COL5*
G04 #@! TO.C,MX_G1*
X153352500Y-99060000D02*
X154662502Y-97600000D01*
D12*
G04 #@! TO.P,MX_G1,1*
G04 #@! TO.N,COL5*
X154662500Y-97600000D03*
D11*
G04 #@! TO.P,MX_G1,3*
G04 #@! TO.N,+5V*
X155892500Y-106680000D03*
D10*
G04 #@! TO.P,MX_G1,4*
G04 #@! TO.N,Net-(MX_G1-Pad4)*
X158432500Y-106680000D03*
G04 #@! TD*
G04 #@! TO.P,MX_H1,4*
G04 #@! TO.N,Net-(MX_H1-Pad4)*
X177482500Y-106680000D03*
D11*
G04 #@! TO.P,MX_H1,3*
G04 #@! TO.N,+5V*
X174942500Y-106680000D03*
D12*
G04 #@! TO.P,MX_H1,1*
G04 #@! TO.N,COL6*
X173712500Y-97600000D03*
X173057501Y-98330000D03*
D13*
G04 #@! TD*
G04 #@! TO.N,COL6*
G04 #@! TO.C,MX_H1*
X172402500Y-99060000D02*
X173712502Y-97600000D01*
D12*
G04 #@! TO.P,MX_H1,2*
G04 #@! TO.N,Net-(D58-Pad2)*
X178752500Y-96520000D03*
X178732500Y-96810000D03*
D13*
G04 #@! TD*
G04 #@! TO.N,Net-(D58-Pad2)*
G04 #@! TO.C,MX_H1*
X178712500Y-97100000D02*
X178752500Y-96520000D01*
D12*
G04 #@! TO.P,MX_I1,2*
G04 #@! TO.N,Net-(D43-Pad2)*
X212070000Y-77760000D03*
D13*
G04 #@! TD*
G04 #@! TO.N,Net-(D43-Pad2)*
G04 #@! TO.C,MX_I1*
X212050000Y-78050000D02*
X212090000Y-77470000D01*
D12*
G04 #@! TO.P,MX_I1,2*
G04 #@! TO.N,Net-(D43-Pad2)*
X212090000Y-77470000D03*
G04 #@! TO.P,MX_I1,1*
G04 #@! TO.N,COL8*
X206395001Y-79280000D03*
D13*
G04 #@! TD*
G04 #@! TO.N,COL8*
G04 #@! TO.C,MX_I1*
X205740000Y-80010000D02*
X207050002Y-78550000D01*
D12*
G04 #@! TO.P,MX_I1,1*
G04 #@! TO.N,COL8*
X207050000Y-78550000D03*
D11*
G04 #@! TO.P,MX_I1,3*
G04 #@! TO.N,+5V*
X208280000Y-87630000D03*
D10*
G04 #@! TO.P,MX_I1,4*
G04 #@! TO.N,Net-(MX_I1-Pad4)*
X210820000Y-87630000D03*
G04 #@! TD*
D12*
G04 #@! TO.P,MX_J1,2*
G04 #@! TO.N,Net-(D59-Pad2)*
X197782500Y-96810000D03*
D13*
G04 #@! TD*
G04 #@! TO.N,Net-(D59-Pad2)*
G04 #@! TO.C,MX_J1*
X197762500Y-97100000D02*
X197802500Y-96520000D01*
D12*
G04 #@! TO.P,MX_J1,2*
G04 #@! TO.N,Net-(D59-Pad2)*
X197802500Y-96520000D03*
G04 #@! TO.P,MX_J1,1*
G04 #@! TO.N,COL7*
X192107501Y-98330000D03*
D13*
G04 #@! TD*
G04 #@! TO.N,COL7*
G04 #@! TO.C,MX_J1*
X191452500Y-99060000D02*
X192762502Y-97600000D01*
D12*
G04 #@! TO.P,MX_J1,1*
G04 #@! TO.N,COL7*
X192762500Y-97600000D03*
D11*
G04 #@! TO.P,MX_J1,3*
G04 #@! TO.N,+5V*
X193992500Y-106680000D03*
D10*
G04 #@! TO.P,MX_J1,4*
G04 #@! TO.N,Net-(MX_J1-Pad4)*
X196532500Y-106680000D03*
G04 #@! TD*
D12*
G04 #@! TO.P,MX_K1,2*
G04 #@! TO.N,Net-(D60-Pad2)*
X216832500Y-96810000D03*
D13*
G04 #@! TD*
G04 #@! TO.N,Net-(D60-Pad2)*
G04 #@! TO.C,MX_K1*
X216812500Y-97100000D02*
X216852500Y-96520000D01*
D12*
G04 #@! TO.P,MX_K1,2*
G04 #@! TO.N,Net-(D60-Pad2)*
X216852500Y-96520000D03*
G04 #@! TO.P,MX_K1,1*
G04 #@! TO.N,COL8*
X211157501Y-98330000D03*
D13*
G04 #@! TD*
G04 #@! TO.N,COL8*
G04 #@! TO.C,MX_K1*
X210502500Y-99060000D02*
X211812502Y-97600000D01*
D12*
G04 #@! TO.P,MX_K1,1*
G04 #@! TO.N,COL8*
X211812500Y-97600000D03*
D11*
G04 #@! TO.P,MX_K1,3*
G04 #@! TO.N,+5V*
X213042500Y-106680000D03*
D10*
G04 #@! TO.P,MX_K1,4*
G04 #@! TO.N,Net-(MX_K1-Pad4)*
X215582500Y-106680000D03*
G04 #@! TD*
D12*
G04 #@! TO.P,MX_L1,2*
G04 #@! TO.N,Net-(D61-Pad2)*
X235882500Y-96810000D03*
D13*
G04 #@! TD*
G04 #@! TO.N,Net-(D61-Pad2)*
G04 #@! TO.C,MX_L1*
X235862500Y-97100000D02*
X235902500Y-96520000D01*
D12*
G04 #@! TO.P,MX_L1,2*
G04 #@! TO.N,Net-(D61-Pad2)*
X235902500Y-96520000D03*
G04 #@! TO.P,MX_L1,1*
G04 #@! TO.N,COL9*
X230207501Y-98330000D03*
D13*
G04 #@! TD*
G04 #@! TO.N,COL9*
G04 #@! TO.C,MX_L1*
X229552500Y-99060000D02*
X230862502Y-97600000D01*
D12*
G04 #@! TO.P,MX_L1,1*
G04 #@! TO.N,COL9*
X230862500Y-97600000D03*
D11*
G04 #@! TO.P,MX_L1,3*
G04 #@! TO.N,+5V*
X232092500Y-106680000D03*
D10*
G04 #@! TO.P,MX_L1,4*
G04 #@! TO.N,Net-(MX_L1-Pad4)*
X234632500Y-106680000D03*
G04 #@! TD*
D12*
G04 #@! TO.P,MX_M1,2*
G04 #@! TO.N,Net-(D74-Pad2)*
X207307500Y-115860000D03*
D13*
G04 #@! TD*
G04 #@! TO.N,Net-(D74-Pad2)*
G04 #@! TO.C,MX_M1*
X207287500Y-116150000D02*
X207327500Y-115570000D01*
D12*
G04 #@! TO.P,MX_M1,2*
G04 #@! TO.N,Net-(D74-Pad2)*
X207327500Y-115570000D03*
G04 #@! TO.P,MX_M1,1*
G04 #@! TO.N,COL8*
X201632501Y-117380000D03*
D13*
G04 #@! TD*
G04 #@! TO.N,COL8*
G04 #@! TO.C,MX_M1*
X200977500Y-118110000D02*
X202287502Y-116650000D01*
D12*
G04 #@! TO.P,MX_M1,1*
G04 #@! TO.N,COL8*
X202287500Y-116650000D03*
D11*
G04 #@! TO.P,MX_M1,3*
G04 #@! TO.N,+5V*
X203517500Y-125730000D03*
D10*
G04 #@! TO.P,MX_M1,4*
G04 #@! TO.N,Net-(MX_M1-Pad4)*
X206057500Y-125730000D03*
G04 #@! TD*
D12*
G04 #@! TO.P,MX_N1,2*
G04 #@! TO.N,Net-(D73-Pad2)*
X188257500Y-115860000D03*
D13*
G04 #@! TD*
G04 #@! TO.N,Net-(D73-Pad2)*
G04 #@! TO.C,MX_N1*
X188237500Y-116150000D02*
X188277500Y-115570000D01*
D12*
G04 #@! TO.P,MX_N1,2*
G04 #@! TO.N,Net-(D73-Pad2)*
X188277500Y-115570000D03*
G04 #@! TO.P,MX_N1,1*
G04 #@! TO.N,COL7*
X182582501Y-117380000D03*
D13*
G04 #@! TD*
G04 #@! TO.N,COL7*
G04 #@! TO.C,MX_N1*
X181927500Y-118110000D02*
X183237502Y-116650000D01*
D12*
G04 #@! TO.P,MX_N1,1*
G04 #@! TO.N,COL7*
X183237500Y-116650000D03*
D11*
G04 #@! TO.P,MX_N1,3*
G04 #@! TO.N,+5V*
X184467500Y-125730000D03*
D10*
G04 #@! TO.P,MX_N1,4*
G04 #@! TO.N,Net-(MX_N1-Pad4)*
X187007500Y-125730000D03*
G04 #@! TD*
G04 #@! TO.P,MX_O1,4*
G04 #@! TO.N,Net-(MX_O1-Pad4)*
X229870000Y-87630000D03*
D11*
G04 #@! TO.P,MX_O1,3*
G04 #@! TO.N,+5V*
X227330000Y-87630000D03*
D12*
G04 #@! TO.P,MX_O1,1*
G04 #@! TO.N,COL9*
X226100000Y-78550000D03*
X225445001Y-79280000D03*
D13*
G04 #@! TD*
G04 #@! TO.N,COL9*
G04 #@! TO.C,MX_O1*
X224790000Y-80010000D02*
X226100002Y-78550000D01*
D12*
G04 #@! TO.P,MX_O1,2*
G04 #@! TO.N,Net-(D44-Pad2)*
X231140000Y-77470000D03*
X231120000Y-77760000D03*
D13*
G04 #@! TD*
G04 #@! TO.N,Net-(D44-Pad2)*
G04 #@! TO.C,MX_O1*
X231100000Y-78050000D02*
X231140000Y-77470000D01*
D10*
G04 #@! TO.P,MX_P1,4*
G04 #@! TO.N,Net-(MX_P1-Pad4)*
X248920000Y-87630000D03*
D11*
G04 #@! TO.P,MX_P1,3*
G04 #@! TO.N,+5V*
X246380000Y-87630000D03*
D12*
G04 #@! TO.P,MX_P1,1*
G04 #@! TO.N,COL10*
X245150000Y-78550000D03*
X244495001Y-79280000D03*
D13*
G04 #@! TD*
G04 #@! TO.N,COL10*
G04 #@! TO.C,MX_P1*
X243840000Y-80010000D02*
X245150002Y-78550000D01*
D12*
G04 #@! TO.P,MX_P1,2*
G04 #@! TO.N,Net-(D45-Pad2)*
X250190000Y-77470000D03*
X250170000Y-77760000D03*
D13*
G04 #@! TD*
G04 #@! TO.N,Net-(D45-Pad2)*
G04 #@! TO.C,MX_P1*
X250150000Y-78050000D02*
X250190000Y-77470000D01*
D12*
G04 #@! TO.P,MX_Q1,2*
G04 #@! TO.N,Net-(D36-Pad2)*
X78720000Y-77760000D03*
D13*
G04 #@! TD*
G04 #@! TO.N,Net-(D36-Pad2)*
G04 #@! TO.C,MX_Q1*
X78700000Y-78050000D02*
X78740000Y-77470000D01*
D12*
G04 #@! TO.P,MX_Q1,2*
G04 #@! TO.N,Net-(D36-Pad2)*
X78740000Y-77470000D03*
G04 #@! TO.P,MX_Q1,1*
G04 #@! TO.N,COL1*
X73045001Y-79280000D03*
D13*
G04 #@! TD*
G04 #@! TO.N,COL1*
G04 #@! TO.C,MX_Q1*
X72390000Y-80010000D02*
X73700002Y-78550000D01*
D12*
G04 #@! TO.P,MX_Q1,1*
G04 #@! TO.N,COL1*
X73700000Y-78550000D03*
D11*
G04 #@! TO.P,MX_Q1,3*
G04 #@! TO.N,+5V*
X74930000Y-87630000D03*
D10*
G04 #@! TO.P,MX_Q1,4*
G04 #@! TO.N,Net-(MX_Q1-Pad4)*
X77470000Y-87630000D03*
G04 #@! TD*
G04 #@! TO.P,MX_R1,4*
G04 #@! TO.N,Net-(MX_R1-Pad4)*
X134620000Y-87630000D03*
D11*
G04 #@! TO.P,MX_R1,3*
G04 #@! TO.N,+5V*
X132080000Y-87630000D03*
D12*
G04 #@! TO.P,MX_R1,1*
G04 #@! TO.N,COL4*
X130850000Y-78550000D03*
X130195001Y-79280000D03*
D13*
G04 #@! TD*
G04 #@! TO.N,COL4*
G04 #@! TO.C,MX_R1*
X129540000Y-80010000D02*
X130850002Y-78550000D01*
D12*
G04 #@! TO.P,MX_R1,2*
G04 #@! TO.N,Net-(D39-Pad2)*
X135890000Y-77470000D03*
X135870000Y-77760000D03*
D13*
G04 #@! TD*
G04 #@! TO.N,Net-(D39-Pad2)*
G04 #@! TO.C,MX_R1*
X135850000Y-78050000D02*
X135890000Y-77470000D01*
D10*
G04 #@! TO.P,MX_RETURN1,4*
G04 #@! TO.N,Net-(MX_RETURN1-Pad4)*
X303688750Y-106680000D03*
D11*
G04 #@! TO.P,MX_RETURN1,3*
G04 #@! TO.N,+5V*
X301148750Y-106680000D03*
D12*
G04 #@! TO.P,MX_RETURN1,1*
G04 #@! TO.N,COL13*
X299918750Y-97600000D03*
X299263751Y-98330000D03*
D13*
G04 #@! TD*
G04 #@! TO.N,COL13*
G04 #@! TO.C,MX_RETURN1*
X298608750Y-99060000D02*
X299918752Y-97600000D01*
D12*
G04 #@! TO.P,MX_RETURN1,2*
G04 #@! TO.N,Net-(D65-Pad2)*
X304958750Y-96520000D03*
X304938750Y-96810000D03*
D13*
G04 #@! TD*
G04 #@! TO.N,Net-(D65-Pad2)*
G04 #@! TO.C,MX_RETURN1*
X304918750Y-97100000D02*
X304958750Y-96520000D01*
D10*
G04 #@! TO.P,MX_S1,4*
G04 #@! TO.N,Net-(MX_S1-Pad4)*
X101282500Y-106680000D03*
D11*
G04 #@! TO.P,MX_S1,3*
G04 #@! TO.N,+5V*
X98742500Y-106680000D03*
D12*
G04 #@! TO.P,MX_S1,1*
G04 #@! TO.N,COL2*
X97512500Y-97600000D03*
X96857501Y-98330000D03*
D13*
G04 #@! TD*
G04 #@! TO.N,COL2*
G04 #@! TO.C,MX_S1*
X96202500Y-99060000D02*
X97512502Y-97600000D01*
D12*
G04 #@! TO.P,MX_S1,2*
G04 #@! TO.N,Net-(D54-Pad2)*
X102552500Y-96520000D03*
X102532500Y-96810000D03*
D13*
G04 #@! TD*
G04 #@! TO.N,Net-(D54-Pad2)*
G04 #@! TO.C,MX_S1*
X102512500Y-97100000D02*
X102552500Y-96520000D01*
D12*
G04 #@! TO.P,MX_T1,2*
G04 #@! TO.N,Net-(D40-Pad2)*
X154920000Y-77760000D03*
D13*
G04 #@! TD*
G04 #@! TO.N,Net-(D40-Pad2)*
G04 #@! TO.C,MX_T1*
X154900000Y-78050000D02*
X154940000Y-77470000D01*
D12*
G04 #@! TO.P,MX_T1,2*
G04 #@! TO.N,Net-(D40-Pad2)*
X154940000Y-77470000D03*
G04 #@! TO.P,MX_T1,1*
G04 #@! TO.N,COL5*
X149245001Y-79280000D03*
D13*
G04 #@! TD*
G04 #@! TO.N,COL5*
G04 #@! TO.C,MX_T1*
X148590000Y-80010000D02*
X149900002Y-78550000D01*
D12*
G04 #@! TO.P,MX_T1,1*
G04 #@! TO.N,COL5*
X149900000Y-78550000D03*
D11*
G04 #@! TO.P,MX_T1,3*
G04 #@! TO.N,+5V*
X151130000Y-87630000D03*
D10*
G04 #@! TO.P,MX_T1,4*
G04 #@! TO.N,Net-(MX_T1-Pad4)*
X153670000Y-87630000D03*
G04 #@! TD*
D12*
G04 #@! TO.P,MX_TAB1,2*
G04 #@! TO.N,Net-(D35-Pad2)*
X54907500Y-77760000D03*
D13*
G04 #@! TD*
G04 #@! TO.N,Net-(D35-Pad2)*
G04 #@! TO.C,MX_TAB1*
X54887500Y-78050000D02*
X54927500Y-77470000D01*
D12*
G04 #@! TO.P,MX_TAB1,2*
G04 #@! TO.N,Net-(D35-Pad2)*
X54927500Y-77470000D03*
G04 #@! TO.P,MX_TAB1,1*
G04 #@! TO.N,COL0*
X49232501Y-79280000D03*
D13*
G04 #@! TD*
G04 #@! TO.N,COL0*
G04 #@! TO.C,MX_TAB1*
X48577500Y-80010000D02*
X49887502Y-78550000D01*
D12*
G04 #@! TO.P,MX_TAB1,1*
G04 #@! TO.N,COL0*
X49887500Y-78550000D03*
D11*
G04 #@! TO.P,MX_TAB1,3*
G04 #@! TO.N,+5V*
X51117500Y-87630000D03*
D10*
G04 #@! TO.P,MX_TAB1,4*
G04 #@! TO.N,Net-(MX_TAB1-Pad4)*
X53657500Y-87630000D03*
G04 #@! TD*
D12*
G04 #@! TO.P,MX_U1,2*
G04 #@! TO.N,Net-(D42-Pad2)*
X193020000Y-77760000D03*
D13*
G04 #@! TD*
G04 #@! TO.N,Net-(D42-Pad2)*
G04 #@! TO.C,MX_U1*
X193000000Y-78050000D02*
X193040000Y-77470000D01*
D12*
G04 #@! TO.P,MX_U1,2*
G04 #@! TO.N,Net-(D42-Pad2)*
X193040000Y-77470000D03*
G04 #@! TO.P,MX_U1,1*
G04 #@! TO.N,COL7*
X187345001Y-79280000D03*
D13*
G04 #@! TD*
G04 #@! TO.N,COL7*
G04 #@! TO.C,MX_U1*
X186690000Y-80010000D02*
X188000002Y-78550000D01*
D12*
G04 #@! TO.P,MX_U1,1*
G04 #@! TO.N,COL7*
X188000000Y-78550000D03*
D11*
G04 #@! TO.P,MX_U1,3*
G04 #@! TO.N,+5V*
X189230000Y-87630000D03*
D10*
G04 #@! TO.P,MX_U1,4*
G04 #@! TO.N,Net-(MX_U1-Pad4)*
X191770000Y-87630000D03*
G04 #@! TD*
G04 #@! TO.P,MX_V1,4*
G04 #@! TO.N,Net-(MX_V1-Pad4)*
X148907500Y-125730000D03*
D11*
G04 #@! TO.P,MX_V1,3*
G04 #@! TO.N,+5V*
X146367500Y-125730000D03*
D12*
G04 #@! TO.P,MX_V1,1*
G04 #@! TO.N,COL5*
X145137500Y-116650000D03*
X144482501Y-117380000D03*
D13*
G04 #@! TD*
G04 #@! TO.N,COL5*
G04 #@! TO.C,MX_V1*
X143827500Y-118110000D02*
X145137502Y-116650000D01*
D12*
G04 #@! TO.P,MX_V1,2*
G04 #@! TO.N,Net-(D71-Pad2)*
X150177500Y-115570000D03*
X150157500Y-115860000D03*
D13*
G04 #@! TD*
G04 #@! TO.N,Net-(D71-Pad2)*
G04 #@! TO.C,MX_V1*
X150137500Y-116150000D02*
X150177500Y-115570000D01*
D10*
G04 #@! TO.P,MX_W1,4*
G04 #@! TO.N,Net-(MX_W1-Pad4)*
X96520000Y-87630000D03*
D11*
G04 #@! TO.P,MX_W1,3*
G04 #@! TO.N,+5V*
X93980000Y-87630000D03*
D12*
G04 #@! TO.P,MX_W1,1*
G04 #@! TO.N,COL2*
X92750000Y-78550000D03*
X92095001Y-79280000D03*
D13*
G04 #@! TD*
G04 #@! TO.N,COL2*
G04 #@! TO.C,MX_W1*
X91440000Y-80010000D02*
X92750002Y-78550000D01*
D12*
G04 #@! TO.P,MX_W1,2*
G04 #@! TO.N,Net-(D37-Pad2)*
X97790000Y-77470000D03*
X97770000Y-77760000D03*
D13*
G04 #@! TD*
G04 #@! TO.N,Net-(D37-Pad2)*
G04 #@! TO.C,MX_W1*
X97750000Y-78050000D02*
X97790000Y-77470000D01*
D10*
G04 #@! TO.P,MX_X1,4*
G04 #@! TO.N,Net-(MX_X1-Pad4)*
X110807500Y-125730000D03*
D11*
G04 #@! TO.P,MX_X1,3*
G04 #@! TO.N,+5V*
X108267500Y-125730000D03*
D12*
G04 #@! TO.P,MX_X1,1*
G04 #@! TO.N,COL3*
X107037500Y-116650000D03*
X106382501Y-117380000D03*
D13*
G04 #@! TD*
G04 #@! TO.N,COL3*
G04 #@! TO.C,MX_X1*
X105727500Y-118110000D02*
X107037502Y-116650000D01*
D12*
G04 #@! TO.P,MX_X1,2*
G04 #@! TO.N,Net-(D69-Pad2)*
X112077500Y-115570000D03*
X112057500Y-115860000D03*
D13*
G04 #@! TD*
G04 #@! TO.N,Net-(D69-Pad2)*
G04 #@! TO.C,MX_X1*
X112037500Y-116150000D02*
X112077500Y-115570000D01*
D12*
G04 #@! TO.P,MX_Y1,2*
G04 #@! TO.N,Net-(D41-Pad2)*
X173970000Y-77760000D03*
D13*
G04 #@! TD*
G04 #@! TO.N,Net-(D41-Pad2)*
G04 #@! TO.C,MX_Y1*
X173950000Y-78050000D02*
X173990000Y-77470000D01*
D12*
G04 #@! TO.P,MX_Y1,2*
G04 #@! TO.N,Net-(D41-Pad2)*
X173990000Y-77470000D03*
G04 #@! TO.P,MX_Y1,1*
G04 #@! TO.N,COL6*
X168295001Y-79280000D03*
D13*
G04 #@! TD*
G04 #@! TO.N,COL6*
G04 #@! TO.C,MX_Y1*
X167640000Y-80010000D02*
X168950002Y-78550000D01*
D12*
G04 #@! TO.P,MX_Y1,1*
G04 #@! TO.N,COL6*
X168950000Y-78550000D03*
D11*
G04 #@! TO.P,MX_Y1,3*
G04 #@! TO.N,+5V*
X170180000Y-87630000D03*
D10*
G04 #@! TO.P,MX_Y1,4*
G04 #@! TO.N,Net-(MX_Y1-Pad4)*
X172720000Y-87630000D03*
G04 #@! TD*
G04 #@! TO.P,MX_Z1,4*
G04 #@! TO.N,Net-(MX_Z1-Pad4)*
X91757500Y-125730000D03*
D11*
G04 #@! TO.P,MX_Z1,3*
G04 #@! TO.N,+5V*
X89217500Y-125730000D03*
D12*
G04 #@! TO.P,MX_Z1,1*
G04 #@! TO.N,COL2*
X87987500Y-116650000D03*
X87332501Y-117380000D03*
D13*
G04 #@! TD*
G04 #@! TO.N,COL2*
G04 #@! TO.C,MX_Z1*
X86677500Y-118110000D02*
X87987502Y-116650000D01*
D12*
G04 #@! TO.P,MX_Z1,2*
G04 #@! TO.N,Net-(D68-Pad2)*
X93027500Y-115570000D03*
X93007500Y-115860000D03*
D13*
G04 #@! TD*
G04 #@! TO.N,Net-(D68-Pad2)*
G04 #@! TO.C,MX_Z1*
X92987500Y-116150000D02*
X93027500Y-115570000D01*
D14*
G04 #@! TO.P,USB1,13*
G04 #@! TO.N,GND*
X330551250Y-25333000D03*
X321911250Y-25333000D03*
D15*
X330551250Y-29513000D03*
X321911250Y-29513000D03*
G04 #@! TD*
D12*
G04 #@! TO.P,MX_\005C2,2*
G04 #@! TO.N,Net-(D48-Pad2)*
X293032500Y-96810000D03*
D13*
G04 #@! TD*
G04 #@! TO.N,Net-(D48-Pad2)*
G04 #@! TO.C,MX_\005C2*
X293012500Y-97100000D02*
X293052500Y-96520000D01*
D12*
G04 #@! TO.P,MX_\005C2,2*
G04 #@! TO.N,Net-(D48-Pad2)*
X293052500Y-96520000D03*
G04 #@! TO.P,MX_\005C2,1*
G04 #@! TO.N,COL13*
X287357501Y-98330000D03*
D13*
G04 #@! TD*
G04 #@! TO.N,COL13*
G04 #@! TO.C,MX_\005C2*
X286702500Y-99060000D02*
X288012502Y-97600000D01*
D12*
G04 #@! TO.P,MX_\005C2,1*
G04 #@! TO.N,COL13*
X288012500Y-97600000D03*
D11*
G04 #@! TO.P,MX_\005C2,3*
G04 #@! TO.N,+5V*
X289242500Y-106680000D03*
D10*
G04 #@! TO.P,MX_\005C2,4*
G04 #@! TO.N,Net-(MX_\005C1-Pad4)*
X291782500Y-106680000D03*
G04 #@! TD*
D12*
G04 #@! TO.P,MX_BACK1,2*
G04 #@! TO.N,Net-(D30-Pad2)*
X307320000Y-58710000D03*
D13*
G04 #@! TD*
G04 #@! TO.N,Net-(D30-Pad2)*
G04 #@! TO.C,MX_BACK1*
X307300000Y-59000000D02*
X307340000Y-58420000D01*
D12*
G04 #@! TO.P,MX_BACK1,2*
G04 #@! TO.N,Net-(D30-Pad2)*
X307340000Y-58420000D03*
G04 #@! TO.P,MX_BACK1,1*
G04 #@! TO.N,COL13*
X301645001Y-60230000D03*
D13*
G04 #@! TD*
G04 #@! TO.N,COL13*
G04 #@! TO.C,MX_BACK1*
X300990000Y-60960000D02*
X302300002Y-59500000D01*
D12*
G04 #@! TO.P,MX_BACK1,1*
G04 #@! TO.N,COL13*
X302300000Y-59500000D03*
D11*
G04 #@! TO.P,MX_BACK1,3*
G04 #@! TO.N,+5V*
X303530000Y-68580000D03*
D10*
G04 #@! TO.P,MX_BACK1,4*
G04 #@! TO.N,Net-(MX_BACK1-Pad4)*
X306070000Y-68580000D03*
G04 #@! TD*
G04 #@! TO.P,MX_BACK2,4*
G04 #@! TO.N,Net-(MX_BACK1-Pad4)*
X296545000Y-68580000D03*
D11*
G04 #@! TO.P,MX_BACK2,3*
G04 #@! TO.N,+5V*
X294005000Y-68580000D03*
D12*
G04 #@! TO.P,MX_BACK2,1*
G04 #@! TO.N,COL13*
X292775000Y-59500000D03*
X292120001Y-60230000D03*
D13*
G04 #@! TD*
G04 #@! TO.N,COL13*
G04 #@! TO.C,MX_BACK2*
X291465000Y-60960000D02*
X292775002Y-59500000D01*
D12*
G04 #@! TO.P,MX_BACK2,2*
G04 #@! TO.N,Net-(D30-Pad2)*
X297815000Y-58420000D03*
X297795000Y-58710000D03*
D13*
G04 #@! TD*
G04 #@! TO.N,Net-(D30-Pad2)*
G04 #@! TO.C,MX_BACK2*
X297775000Y-59000000D02*
X297815000Y-58420000D01*
D12*
G04 #@! TO.P,MX_BACK3,2*
G04 #@! TO.N,Net-(D31-Pad2)*
X316845000Y-58710000D03*
D13*
G04 #@! TD*
G04 #@! TO.N,Net-(D31-Pad2)*
G04 #@! TO.C,MX_BACK3*
X316825000Y-59000000D02*
X316865000Y-58420000D01*
D12*
G04 #@! TO.P,MX_BACK3,2*
G04 #@! TO.N,Net-(D31-Pad2)*
X316865000Y-58420000D03*
G04 #@! TO.P,MX_BACK3,1*
G04 #@! TO.N,COL12*
X311170001Y-60230000D03*
D13*
G04 #@! TD*
G04 #@! TO.N,COL12*
G04 #@! TO.C,MX_BACK3*
X310515000Y-60960000D02*
X311825002Y-59500000D01*
D12*
G04 #@! TO.P,MX_BACK3,1*
G04 #@! TO.N,COL12*
X311825000Y-59500000D03*
D11*
G04 #@! TO.P,MX_BACK3,3*
G04 #@! TO.N,+5V*
X313055000Y-68580000D03*
D10*
G04 #@! TO.P,MX_BACK3,4*
G04 #@! TO.N,Net-(MX_BACK3-Pad4)*
X315595000Y-68580000D03*
G04 #@! TD*
G04 #@! TO.P,MX_CLOCK1,4*
G04 #@! TO.N,Net-(MX_CLOCK1-Pad4)*
X56038750Y-106680000D03*
D11*
G04 #@! TO.P,MX_CLOCK1,3*
G04 #@! TO.N,+5V*
X53498750Y-106680000D03*
D12*
G04 #@! TO.P,MX_CLOCK1,1*
G04 #@! TO.N,COL0*
X52268750Y-97600000D03*
X51613751Y-98330000D03*
D13*
G04 #@! TD*
G04 #@! TO.N,COL0*
G04 #@! TO.C,MX_CLOCK1*
X50958750Y-99060000D02*
X52268752Y-97600000D01*
D12*
G04 #@! TO.P,MX_CLOCK1,2*
G04 #@! TO.N,Net-(D52-Pad2)*
X57308750Y-96520000D03*
X57288750Y-96810000D03*
D13*
G04 #@! TD*
G04 #@! TO.N,Net-(D52-Pad2)*
G04 #@! TO.C,MX_CLOCK1*
X57268750Y-97100000D02*
X57308750Y-96520000D01*
D12*
G04 #@! TO.P,MX_CLOCK2,2*
G04 #@! TO.N,COL0*
X52526250Y-96810000D03*
D13*
G04 #@! TD*
G04 #@! TO.N,COL0*
G04 #@! TO.C,MX_CLOCK2*
X52506250Y-97100000D02*
X52546250Y-96520000D01*
D12*
G04 #@! TO.P,MX_CLOCK2,2*
G04 #@! TO.N,COL0*
X52546250Y-96520000D03*
G04 #@! TO.P,MX_CLOCK2,1*
G04 #@! TO.N,Net-(D52-Pad2)*
X46851251Y-98330000D03*
D13*
G04 #@! TD*
G04 #@! TO.N,Net-(D52-Pad2)*
G04 #@! TO.C,MX_CLOCK2*
X46196250Y-99060000D02*
X47506252Y-97600000D01*
D12*
G04 #@! TO.P,MX_CLOCK2,1*
G04 #@! TO.N,Net-(D52-Pad2)*
X47506250Y-97600000D03*
D11*
G04 #@! TO.P,MX_CLOCK2,3*
G04 #@! TO.N,+5V*
X51276250Y-106680000D03*
D10*
G04 #@! TO.P,MX_CLOCK2,4*
G04 #@! TO.N,Net-(MX_CLOCK1-Pad4)*
X48736250Y-106680000D03*
G04 #@! TD*
G04 #@! TO.P,MX_DEL1,4*
G04 #@! TO.N,Net-(MX_DEL1-Pad4)*
X339407500Y-87630000D03*
D11*
G04 #@! TO.P,MX_DEL1,3*
G04 #@! TO.N,+5V*
X336867500Y-87630000D03*
D12*
G04 #@! TO.P,MX_DEL1,1*
G04 #@! TO.N,COL14*
X335637500Y-78550000D03*
X334982501Y-79280000D03*
D13*
G04 #@! TD*
G04 #@! TO.N,COL14*
G04 #@! TO.C,MX_DEL1*
X334327500Y-80010000D02*
X335637502Y-78550000D01*
D12*
G04 #@! TO.P,MX_DEL1,2*
G04 #@! TO.N,Net-(D99-Pad2)*
X340677500Y-77470000D03*
X340657500Y-77760000D03*
D13*
G04 #@! TD*
G04 #@! TO.N,Net-(D99-Pad2)*
G04 #@! TO.C,MX_DEL1*
X340637500Y-78050000D02*
X340677500Y-77470000D01*
D10*
G04 #@! TO.P,MX_DN1,4*
G04 #@! TO.N,Net-(MX_DN1-Pad4)*
X358457500Y-144780000D03*
D11*
G04 #@! TO.P,MX_DN1,3*
G04 #@! TO.N,+5V*
X355917500Y-144780000D03*
D12*
G04 #@! TO.P,MX_DN1,1*
G04 #@! TO.N,COL15*
X354687500Y-135700000D03*
X354032501Y-136430000D03*
D13*
G04 #@! TD*
G04 #@! TO.N,COL15*
G04 #@! TO.C,MX_DN1*
X353377500Y-137160000D02*
X354687502Y-135700000D01*
D12*
G04 #@! TO.P,MX_DN1,2*
G04 #@! TO.N,Net-(D112-Pad2)*
X359727500Y-134620000D03*
X359707500Y-134910000D03*
D13*
G04 #@! TD*
G04 #@! TO.N,Net-(D112-Pad2)*
G04 #@! TO.C,MX_DN1*
X359687500Y-135200000D02*
X359727500Y-134620000D01*
D12*
G04 #@! TO.P,MX_END1,2*
G04 #@! TO.N,Net-(D100-Pad2)*
X359707500Y-77760000D03*
D13*
G04 #@! TD*
G04 #@! TO.N,Net-(D100-Pad2)*
G04 #@! TO.C,MX_END1*
X359687500Y-78050000D02*
X359727500Y-77470000D01*
D12*
G04 #@! TO.P,MX_END1,2*
G04 #@! TO.N,Net-(D100-Pad2)*
X359727500Y-77470000D03*
G04 #@! TO.P,MX_END1,1*
G04 #@! TO.N,COL15*
X354032501Y-79280000D03*
D13*
G04 #@! TD*
G04 #@! TO.N,COL15*
G04 #@! TO.C,MX_END1*
X353377500Y-80010000D02*
X354687502Y-78550000D01*
D12*
G04 #@! TO.P,MX_END1,1*
G04 #@! TO.N,COL15*
X354687500Y-78550000D03*
D11*
G04 #@! TO.P,MX_END1,3*
G04 #@! TO.N,+5V*
X355917500Y-87630000D03*
D10*
G04 #@! TO.P,MX_END1,4*
G04 #@! TO.N,Net-(MX_END1-Pad4)*
X358457500Y-87630000D03*
G04 #@! TD*
G04 #@! TO.P,MX_HOME1,4*
G04 #@! TO.N,Net-(MX_HOME1-Pad4)*
X358457500Y-68580000D03*
D11*
G04 #@! TO.P,MX_HOME1,3*
G04 #@! TO.N,+5V*
X355917500Y-68580000D03*
D12*
G04 #@! TO.P,MX_HOME1,1*
G04 #@! TO.N,COL15*
X354687500Y-59500000D03*
X354032501Y-60230000D03*
D13*
G04 #@! TD*
G04 #@! TO.N,COL15*
G04 #@! TO.C,MX_HOME1*
X353377500Y-60960000D02*
X354687502Y-59500000D01*
D12*
G04 #@! TO.P,MX_HOME1,2*
G04 #@! TO.N,Net-(D96-Pad2)*
X359727500Y-58420000D03*
X359707500Y-58710000D03*
D13*
G04 #@! TD*
G04 #@! TO.N,Net-(D96-Pad2)*
G04 #@! TO.C,MX_HOME1*
X359687500Y-59000000D02*
X359727500Y-58420000D01*
D10*
G04 #@! TO.P,MX_INS1,4*
G04 #@! TO.N,Net-(MX_INS1-Pad4)*
X339407500Y-68580000D03*
D11*
G04 #@! TO.P,MX_INS1,3*
G04 #@! TO.N,+5V*
X336867500Y-68580000D03*
D12*
G04 #@! TO.P,MX_INS1,1*
G04 #@! TO.N,COL14*
X335637500Y-59500000D03*
X334982501Y-60230000D03*
D13*
G04 #@! TD*
G04 #@! TO.N,COL14*
G04 #@! TO.C,MX_INS1*
X334327500Y-60960000D02*
X335637502Y-59500000D01*
D12*
G04 #@! TO.P,MX_INS1,2*
G04 #@! TO.N,Net-(D95-Pad2)*
X340677500Y-58420000D03*
X340657500Y-58710000D03*
D13*
G04 #@! TD*
G04 #@! TO.N,Net-(D95-Pad2)*
G04 #@! TO.C,MX_INS1*
X340637500Y-59000000D02*
X340677500Y-58420000D01*
D10*
G04 #@! TO.P,MX_LALT1,4*
G04 #@! TO.N,Net-(MX_LALT1-Pad4)*
X98901250Y-144780000D03*
D11*
G04 #@! TO.P,MX_LALT1,3*
G04 #@! TO.N,+5V*
X96361250Y-144780000D03*
D12*
G04 #@! TO.P,MX_LALT1,1*
G04 #@! TO.N,COL2*
X95131250Y-135700000D03*
X94476251Y-136430000D03*
D13*
G04 #@! TD*
G04 #@! TO.N,COL2*
G04 #@! TO.C,MX_LALT1*
X93821250Y-137160000D02*
X95131252Y-135700000D01*
D12*
G04 #@! TO.P,MX_LALT1,2*
G04 #@! TO.N,Net-(D86-Pad2)*
X100171250Y-134620000D03*
X100151250Y-134910000D03*
D13*
G04 #@! TD*
G04 #@! TO.N,Net-(D86-Pad2)*
G04 #@! TO.C,MX_LALT1*
X100131250Y-135200000D02*
X100171250Y-134620000D01*
D12*
G04 #@! TO.P,MX_LCTRL1,2*
G04 #@! TO.N,Net-(D84-Pad2)*
X52526250Y-134910000D03*
D13*
G04 #@! TD*
G04 #@! TO.N,Net-(D84-Pad2)*
G04 #@! TO.C,MX_LCTRL1*
X52506250Y-135200000D02*
X52546250Y-134620000D01*
D12*
G04 #@! TO.P,MX_LCTRL1,2*
G04 #@! TO.N,Net-(D84-Pad2)*
X52546250Y-134620000D03*
G04 #@! TO.P,MX_LCTRL1,1*
G04 #@! TO.N,COL0*
X46851251Y-136430000D03*
D13*
G04 #@! TD*
G04 #@! TO.N,COL0*
G04 #@! TO.C,MX_LCTRL1*
X46196250Y-137160000D02*
X47506252Y-135700000D01*
D12*
G04 #@! TO.P,MX_LCTRL1,1*
G04 #@! TO.N,COL0*
X47506250Y-135700000D03*
D11*
G04 #@! TO.P,MX_LCTRL1,3*
G04 #@! TO.N,+5V*
X48736250Y-144780000D03*
D10*
G04 #@! TO.P,MX_LCTRL1,4*
G04 #@! TO.N,Net-(MX_LCTRL1-Pad4)*
X51276250Y-144780000D03*
G04 #@! TD*
G04 #@! TO.P,MX_LCTRL2,4*
G04 #@! TO.N,Net-(MX_LCTRL1-Pad4)*
X51117500Y-144780000D03*
D11*
G04 #@! TO.P,MX_LCTRL2,3*
G04 #@! TO.N,+5V*
X53657500Y-144780000D03*
D12*
G04 #@! TO.P,MX_LCTRL2,1*
G04 #@! TO.N,COL0*
X49887500Y-135700000D03*
X49232501Y-136430000D03*
D13*
G04 #@! TD*
G04 #@! TO.N,COL0*
G04 #@! TO.C,MX_LCTRL2*
X48577500Y-137160000D02*
X49887502Y-135700000D01*
D12*
G04 #@! TO.P,MX_LCTRL2,2*
G04 #@! TO.N,Net-(D84-Pad2)*
X54927500Y-134620000D03*
X54907500Y-134910000D03*
D13*
G04 #@! TD*
G04 #@! TO.N,Net-(D84-Pad2)*
G04 #@! TO.C,MX_LCTRL2*
X54887500Y-135200000D02*
X54927500Y-134620000D01*
D12*
G04 #@! TO.P,MX_LFT1,2*
G04 #@! TO.N,Net-(D111-Pad2)*
X340657500Y-134910000D03*
D13*
G04 #@! TD*
G04 #@! TO.N,Net-(D111-Pad2)*
G04 #@! TO.C,MX_LFT1*
X340637500Y-135200000D02*
X340677500Y-134620000D01*
D12*
G04 #@! TO.P,MX_LFT1,2*
G04 #@! TO.N,Net-(D111-Pad2)*
X340677500Y-134620000D03*
G04 #@! TO.P,MX_LFT1,1*
G04 #@! TO.N,COL14*
X334982501Y-136430000D03*
D13*
G04 #@! TD*
G04 #@! TO.N,COL14*
G04 #@! TO.C,MX_LFT1*
X334327500Y-137160000D02*
X335637502Y-135700000D01*
D12*
G04 #@! TO.P,MX_LFT1,1*
G04 #@! TO.N,COL14*
X335637500Y-135700000D03*
D11*
G04 #@! TO.P,MX_LFT1,3*
G04 #@! TO.N,+5V*
X336867500Y-144780000D03*
D10*
G04 #@! TO.P,MX_LFT1,4*
G04 #@! TO.N,Net-(MX_LFT1-Pad4)*
X339407500Y-144780000D03*
G04 #@! TD*
G04 #@! TO.P,MX_LGUI1,4*
G04 #@! TO.N,Net-(MX_LGUI1-Pad4)*
X75088750Y-144780000D03*
D11*
G04 #@! TO.P,MX_LGUI1,3*
G04 #@! TO.N,+5V*
X72548750Y-144780000D03*
D12*
G04 #@! TO.P,MX_LGUI1,1*
G04 #@! TO.N,COL1*
X71318750Y-135700000D03*
X70663751Y-136430000D03*
D13*
G04 #@! TD*
G04 #@! TO.N,COL1*
G04 #@! TO.C,MX_LGUI1*
X70008750Y-137160000D02*
X71318752Y-135700000D01*
D12*
G04 #@! TO.P,MX_LGUI1,2*
G04 #@! TO.N,Net-(D85-Pad2)*
X76358750Y-134620000D03*
X76338750Y-134910000D03*
D13*
G04 #@! TD*
G04 #@! TO.N,Net-(D85-Pad2)*
G04 #@! TO.C,MX_LGUI1*
X76318750Y-135200000D02*
X76358750Y-134620000D01*
D12*
G04 #@! TO.P,MX_LSHIFT1,2*
G04 #@! TO.N,Net-(D67-Pad2)*
X62051250Y-115860000D03*
D13*
G04 #@! TD*
G04 #@! TO.N,Net-(D67-Pad2)*
G04 #@! TO.C,MX_LSHIFT1*
X62031250Y-116150000D02*
X62071250Y-115570000D01*
D12*
G04 #@! TO.P,MX_LSHIFT1,2*
G04 #@! TO.N,Net-(D67-Pad2)*
X62071250Y-115570000D03*
G04 #@! TO.P,MX_LSHIFT1,1*
G04 #@! TO.N,COL0*
X56376251Y-117380000D03*
D13*
G04 #@! TD*
G04 #@! TO.N,COL0*
G04 #@! TO.C,MX_LSHIFT1*
X55721250Y-118110000D02*
X57031252Y-116650000D01*
D12*
G04 #@! TO.P,MX_LSHIFT1,1*
G04 #@! TO.N,COL0*
X57031250Y-116650000D03*
D11*
G04 #@! TO.P,MX_LSHIFT1,3*
G04 #@! TO.N,+5V*
X58261250Y-125730000D03*
D10*
G04 #@! TO.P,MX_LSHIFT1,4*
G04 #@! TO.N,Net-(MX_LSHIFT1-Pad4)*
X60801250Y-125730000D03*
G04 #@! TD*
G04 #@! TO.P,MX_LSHIFT2,4*
G04 #@! TO.N,Net-(MX_LSHIFT1-Pad4)*
X51276250Y-125730000D03*
D11*
G04 #@! TO.P,MX_LSHIFT2,3*
G04 #@! TO.N,+5V*
X48736250Y-125730000D03*
D12*
G04 #@! TO.P,MX_LSHIFT2,1*
G04 #@! TO.N,COL0*
X47506250Y-116650000D03*
X46851251Y-117380000D03*
D13*
G04 #@! TD*
G04 #@! TO.N,COL0*
G04 #@! TO.C,MX_LSHIFT2*
X46196250Y-118110000D02*
X47506252Y-116650000D01*
D12*
G04 #@! TO.P,MX_LSHIFT2,2*
G04 #@! TO.N,Net-(D67-Pad2)*
X52546250Y-115570000D03*
X52526250Y-115860000D03*
D13*
G04 #@! TD*
G04 #@! TO.N,Net-(D67-Pad2)*
G04 #@! TO.C,MX_LSHIFT2*
X52506250Y-116150000D02*
X52546250Y-115570000D01*
D10*
G04 #@! TO.P,MX_LSHIFT3,4*
G04 #@! TO.N,Net-(MX_LSHIFT3-Pad4)*
X72707500Y-125730000D03*
D11*
G04 #@! TO.P,MX_LSHIFT3,3*
G04 #@! TO.N,+5V*
X70167500Y-125730000D03*
D12*
G04 #@! TO.P,MX_LSHIFT3,1*
G04 #@! TO.N,COL1*
X68937500Y-116650000D03*
X68282501Y-117380000D03*
D13*
G04 #@! TD*
G04 #@! TO.N,COL1*
G04 #@! TO.C,MX_LSHIFT3*
X67627500Y-118110000D02*
X68937502Y-116650000D01*
D12*
G04 #@! TO.P,MX_LSHIFT3,2*
G04 #@! TO.N,Net-(D14-Pad2)*
X73977500Y-115570000D03*
X73957500Y-115860000D03*
D13*
G04 #@! TD*
G04 #@! TO.N,Net-(D14-Pad2)*
G04 #@! TO.C,MX_LSHIFT3*
X73937500Y-116150000D02*
X73977500Y-115570000D01*
D12*
G04 #@! TO.P,MX_PAUSE1,2*
G04 #@! TO.N,Net-(D94-Pad2)*
X378757500Y-34897500D03*
D13*
G04 #@! TD*
G04 #@! TO.N,Net-(D94-Pad2)*
G04 #@! TO.C,MX_PAUSE1*
X378737500Y-35187500D02*
X378777500Y-34607500D01*
D12*
G04 #@! TO.P,MX_PAUSE1,2*
G04 #@! TO.N,Net-(D94-Pad2)*
X378777500Y-34607500D03*
G04 #@! TO.P,MX_PAUSE1,1*
G04 #@! TO.N,COL16*
X373082501Y-36417500D03*
D13*
G04 #@! TD*
G04 #@! TO.N,COL16*
G04 #@! TO.C,MX_PAUSE1*
X372427500Y-37147500D02*
X373737502Y-35687500D01*
D12*
G04 #@! TO.P,MX_PAUSE1,1*
G04 #@! TO.N,COL16*
X373737500Y-35687500D03*
D11*
G04 #@! TO.P,MX_PAUSE1,3*
G04 #@! TO.N,+5V*
X374967500Y-44767500D03*
D10*
G04 #@! TO.P,MX_PAUSE1,4*
G04 #@! TO.N,Net-(MX_PAUSE1-Pad4)*
X377507500Y-44767500D03*
G04 #@! TD*
G04 #@! TO.P,MX_PGDN1,4*
G04 #@! TO.N,Net-(MX_PGDN1-Pad4)*
X377507500Y-87630000D03*
D11*
G04 #@! TO.P,MX_PGDN1,3*
G04 #@! TO.N,+5V*
X374967500Y-87630000D03*
D12*
G04 #@! TO.P,MX_PGDN1,1*
G04 #@! TO.N,COL16*
X373737500Y-78550000D03*
X373082501Y-79280000D03*
D13*
G04 #@! TD*
G04 #@! TO.N,COL16*
G04 #@! TO.C,MX_PGDN1*
X372427500Y-80010000D02*
X373737502Y-78550000D01*
D12*
G04 #@! TO.P,MX_PGDN1,2*
G04 #@! TO.N,Net-(D101-Pad2)*
X378777500Y-77470000D03*
X378757500Y-77760000D03*
D13*
G04 #@! TD*
G04 #@! TO.N,Net-(D101-Pad2)*
G04 #@! TO.C,MX_PGDN1*
X378737500Y-78050000D02*
X378777500Y-77470000D01*
D10*
G04 #@! TO.P,MX_PGUP1,4*
G04 #@! TO.N,Net-(MX_PGUP1-Pad4)*
X377507500Y-68580000D03*
D11*
G04 #@! TO.P,MX_PGUP1,3*
G04 #@! TO.N,+5V*
X374967500Y-68580000D03*
D12*
G04 #@! TO.P,MX_PGUP1,1*
G04 #@! TO.N,COL16*
X373737500Y-59500000D03*
X373082501Y-60230000D03*
D13*
G04 #@! TD*
G04 #@! TO.N,COL16*
G04 #@! TO.C,MX_PGUP1*
X372427500Y-60960000D02*
X373737502Y-59500000D01*
D12*
G04 #@! TO.P,MX_PGUP1,2*
G04 #@! TO.N,Net-(D97-Pad2)*
X378777500Y-58420000D03*
X378757500Y-58710000D03*
D13*
G04 #@! TD*
G04 #@! TO.N,Net-(D97-Pad2)*
G04 #@! TO.C,MX_PGUP1*
X378737500Y-59000000D02*
X378777500Y-58420000D01*
D12*
G04 #@! TO.P,MX_PRINT1,2*
G04 #@! TO.N,Net-(D92-Pad2)*
X340657500Y-34897500D03*
D13*
G04 #@! TD*
G04 #@! TO.N,Net-(D92-Pad2)*
G04 #@! TO.C,MX_PRINT1*
X340637500Y-35187500D02*
X340677500Y-34607500D01*
D12*
G04 #@! TO.P,MX_PRINT1,2*
G04 #@! TO.N,Net-(D92-Pad2)*
X340677500Y-34607500D03*
G04 #@! TO.P,MX_PRINT1,1*
G04 #@! TO.N,COL14*
X334982501Y-36417500D03*
D13*
G04 #@! TD*
G04 #@! TO.N,COL14*
G04 #@! TO.C,MX_PRINT1*
X334327500Y-37147500D02*
X335637502Y-35687500D01*
D12*
G04 #@! TO.P,MX_PRINT1,1*
G04 #@! TO.N,COL14*
X335637500Y-35687500D03*
D11*
G04 #@! TO.P,MX_PRINT1,3*
G04 #@! TO.N,+5V*
X336867500Y-44767500D03*
D10*
G04 #@! TO.P,MX_PRINT1,4*
G04 #@! TO.N,Net-(MX_PRINT1-Pad4)*
X339407500Y-44767500D03*
G04 #@! TD*
D12*
G04 #@! TO.P,MX_RALT1,2*
G04 #@! TO.N,Net-(D90-Pad2)*
X243026250Y-134910000D03*
D13*
G04 #@! TD*
G04 #@! TO.N,Net-(D90-Pad2)*
G04 #@! TO.C,MX_RALT1*
X243006250Y-135200000D02*
X243046250Y-134620000D01*
D12*
G04 #@! TO.P,MX_RALT1,2*
G04 #@! TO.N,Net-(D90-Pad2)*
X243046250Y-134620000D03*
G04 #@! TO.P,MX_RALT1,1*
G04 #@! TO.N,COL10*
X237351251Y-136430000D03*
D13*
G04 #@! TD*
G04 #@! TO.N,COL10*
G04 #@! TO.C,MX_RALT1*
X236696250Y-137160000D02*
X238006252Y-135700000D01*
D12*
G04 #@! TO.P,MX_RALT1,1*
G04 #@! TO.N,COL10*
X238006250Y-135700000D03*
D11*
G04 #@! TO.P,MX_RALT1,3*
G04 #@! TO.N,+5V*
X239236250Y-144780000D03*
D10*
G04 #@! TO.P,MX_RALT1,4*
G04 #@! TO.N,Net-(MX_RALT1-Pad4)*
X241776250Y-144780000D03*
G04 #@! TD*
D12*
G04 #@! TO.P,MX_RETURN2,1*
G04 #@! TO.N,COL13*
X316733750Y-94594999D03*
D13*
G04 #@! TD*
G04 #@! TO.N,COL13*
G04 #@! TO.C,MX_RETURN2*
X316443750Y-94575000D02*
X317023750Y-94614998D01*
D12*
G04 #@! TO.P,MX_RETURN2,1*
G04 #@! TO.N,COL13*
X317023750Y-94615000D03*
G04 #@! TO.P,MX_RETURN2,2*
G04 #@! TO.N,Net-(D65-Pad2)*
X315213754Y-88919995D03*
D13*
G04 #@! TD*
G04 #@! TO.N,Net-(D65-Pad2)*
G04 #@! TO.C,MX_RETURN2*
X314483750Y-88265000D02*
X315943758Y-89574990D01*
D12*
G04 #@! TO.P,MX_RETURN2,2*
G04 #@! TO.N,Net-(D65-Pad2)*
X315943750Y-89575000D03*
D10*
G04 #@! TO.P,MX_RETURN2,4*
G04 #@! TO.N,Net-(MX_RETURN1-Pad4)*
X306863750Y-93345000D03*
D11*
G04 #@! TO.P,MX_RETURN2,3*
G04 #@! TO.N,+5V*
X306863750Y-90805000D03*
D12*
G04 #@! TO.P,MX_RETURN2,1*
G04 #@! TO.N,COL13*
X314443750Y-96075000D03*
G04 #@! TO.P,MX_RETURN2,2*
G04 #@! TO.N,Net-(D65-Pad2)*
X309443750Y-96575000D03*
G04 #@! TD*
G04 #@! TO.P,MX_RSHIFT1,2*
G04 #@! TO.N,Net-(D78-Pad2)*
X300176250Y-115860000D03*
D13*
G04 #@! TD*
G04 #@! TO.N,Net-(D78-Pad2)*
G04 #@! TO.C,MX_RSHIFT1*
X300156250Y-116150000D02*
X300196250Y-115570000D01*
D12*
G04 #@! TO.P,MX_RSHIFT1,2*
G04 #@! TO.N,Net-(D78-Pad2)*
X300196250Y-115570000D03*
G04 #@! TO.P,MX_RSHIFT1,1*
G04 #@! TO.N,COL12*
X294501251Y-117380000D03*
D13*
G04 #@! TD*
G04 #@! TO.N,COL12*
G04 #@! TO.C,MX_RSHIFT1*
X293846250Y-118110000D02*
X295156252Y-116650000D01*
D12*
G04 #@! TO.P,MX_RSHIFT1,1*
G04 #@! TO.N,COL12*
X295156250Y-116650000D03*
D11*
G04 #@! TO.P,MX_RSHIFT1,3*
G04 #@! TO.N,+5V*
X296386250Y-125730000D03*
D10*
G04 #@! TO.P,MX_RSHIFT1,4*
G04 #@! TO.N,Net-(MX_RSHIFT1-Pad4)*
X298926250Y-125730000D03*
G04 #@! TD*
D12*
G04 #@! TO.P,MX_RSHIFT2,2*
G04 #@! TO.N,Net-(D78-Pad2)*
X290651250Y-115860000D03*
D13*
G04 #@! TD*
G04 #@! TO.N,Net-(D78-Pad2)*
G04 #@! TO.C,MX_RSHIFT2*
X290631250Y-116150000D02*
X290671250Y-115570000D01*
D12*
G04 #@! TO.P,MX_RSHIFT2,2*
G04 #@! TO.N,Net-(D78-Pad2)*
X290671250Y-115570000D03*
G04 #@! TO.P,MX_RSHIFT2,1*
G04 #@! TO.N,COL12*
X284976251Y-117380000D03*
D13*
G04 #@! TD*
G04 #@! TO.N,COL12*
G04 #@! TO.C,MX_RSHIFT2*
X284321250Y-118110000D02*
X285631252Y-116650000D01*
D12*
G04 #@! TO.P,MX_RSHIFT2,1*
G04 #@! TO.N,COL12*
X285631250Y-116650000D03*
D11*
G04 #@! TO.P,MX_RSHIFT2,3*
G04 #@! TO.N,+5V*
X286861250Y-125730000D03*
D10*
G04 #@! TO.P,MX_RSHIFT2,4*
G04 #@! TO.N,Net-(MX_RSHIFT1-Pad4)*
X289401250Y-125730000D03*
G04 #@! TD*
D12*
G04 #@! TO.P,MX_RSHIFT3,2*
G04 #@! TO.N,Net-(D66-Pad2)*
X316845000Y-115860000D03*
D13*
G04 #@! TD*
G04 #@! TO.N,Net-(D66-Pad2)*
G04 #@! TO.C,MX_RSHIFT3*
X316825000Y-116150000D02*
X316865000Y-115570000D01*
D12*
G04 #@! TO.P,MX_RSHIFT3,2*
G04 #@! TO.N,Net-(D66-Pad2)*
X316865000Y-115570000D03*
G04 #@! TO.P,MX_RSHIFT3,1*
G04 #@! TO.N,COL13*
X311170001Y-117380000D03*
D13*
G04 #@! TD*
G04 #@! TO.N,COL13*
G04 #@! TO.C,MX_RSHIFT3*
X310515000Y-118110000D02*
X311825002Y-116650000D01*
D12*
G04 #@! TO.P,MX_RSHIFT3,1*
G04 #@! TO.N,COL13*
X311825000Y-116650000D03*
D11*
G04 #@! TO.P,MX_RSHIFT3,3*
G04 #@! TO.N,+5V*
X313055000Y-125730000D03*
D10*
G04 #@! TO.P,MX_RSHIFT3,4*
G04 #@! TO.N,Net-(MX_RSHIFT3-Pad4)*
X315595000Y-125730000D03*
G04 #@! TD*
D12*
G04 #@! TO.P,MX_RT1,2*
G04 #@! TO.N,Net-(D113-Pad2)*
X378757500Y-134910000D03*
D13*
G04 #@! TD*
G04 #@! TO.N,Net-(D113-Pad2)*
G04 #@! TO.C,MX_RT1*
X378737500Y-135200000D02*
X378777500Y-134620000D01*
D12*
G04 #@! TO.P,MX_RT1,2*
G04 #@! TO.N,Net-(D113-Pad2)*
X378777500Y-134620000D03*
G04 #@! TO.P,MX_RT1,1*
G04 #@! TO.N,COL16*
X373082501Y-136430000D03*
D13*
G04 #@! TD*
G04 #@! TO.N,COL16*
G04 #@! TO.C,MX_RT1*
X372427500Y-137160000D02*
X373737502Y-135700000D01*
D12*
G04 #@! TO.P,MX_RT1,1*
G04 #@! TO.N,COL16*
X373737500Y-135700000D03*
D11*
G04 #@! TO.P,MX_RT1,3*
G04 #@! TO.N,+5V*
X374967500Y-144780000D03*
D10*
G04 #@! TO.P,MX_RT1,4*
G04 #@! TO.N,Net-(MX_RT1-Pad4)*
X377507500Y-144780000D03*
G04 #@! TD*
G04 #@! TO.P,MX_SLOCK1,4*
G04 #@! TO.N,Net-(MX_SLOCK1-Pad4)*
X358457500Y-44767500D03*
D11*
G04 #@! TO.P,MX_SLOCK1,3*
G04 #@! TO.N,+5V*
X355917500Y-44767500D03*
D12*
G04 #@! TO.P,MX_SLOCK1,1*
G04 #@! TO.N,COL15*
X354687500Y-35687500D03*
X354032501Y-36417500D03*
D13*
G04 #@! TD*
G04 #@! TO.N,COL15*
G04 #@! TO.C,MX_SLOCK1*
X353377500Y-37147500D02*
X354687502Y-35687500D01*
D12*
G04 #@! TO.P,MX_SLOCK1,2*
G04 #@! TO.N,Net-(D93-Pad2)*
X359727500Y-34607500D03*
X359707500Y-34897500D03*
D13*
G04 #@! TD*
G04 #@! TO.N,Net-(D93-Pad2)*
G04 #@! TO.C,MX_SLOCK1*
X359687500Y-35187500D02*
X359727500Y-34607500D01*
D12*
G04 #@! TO.P,MX_SP1,2*
G04 #@! TO.N,Net-(D87-Pad2)*
X171588750Y-134910000D03*
D13*
G04 #@! TD*
G04 #@! TO.N,Net-(D87-Pad2)*
G04 #@! TO.C,MX_SP1*
X171568750Y-135200000D02*
X171608750Y-134620000D01*
D12*
G04 #@! TO.P,MX_SP1,2*
G04 #@! TO.N,Net-(D87-Pad2)*
X171608750Y-134620000D03*
G04 #@! TO.P,MX_SP1,1*
G04 #@! TO.N,COL6*
X165913751Y-136430000D03*
D13*
G04 #@! TD*
G04 #@! TO.N,COL6*
G04 #@! TO.C,MX_SP1*
X165258750Y-137160000D02*
X166568752Y-135700000D01*
D12*
G04 #@! TO.P,MX_SP1,1*
G04 #@! TO.N,COL6*
X166568750Y-135700000D03*
D11*
G04 #@! TO.P,MX_SP1,3*
G04 #@! TO.N,+5V*
X167798750Y-144780000D03*
D10*
G04 #@! TO.P,MX_SP1,4*
G04 #@! TO.N,Net-(MX_SP1-Pad4)*
X170338750Y-144780000D03*
G04 #@! TD*
D12*
G04 #@! TO.P,MX_SP2,2*
G04 #@! TO.N,Net-(D87-Pad2)*
X183495000Y-134910000D03*
D13*
G04 #@! TD*
G04 #@! TO.N,Net-(D87-Pad2)*
G04 #@! TO.C,MX_SP2*
X183475000Y-135200000D02*
X183515000Y-134620000D01*
D12*
G04 #@! TO.P,MX_SP2,2*
G04 #@! TO.N,Net-(D87-Pad2)*
X183515000Y-134620000D03*
G04 #@! TO.P,MX_SP2,1*
G04 #@! TO.N,COL6*
X177820001Y-136430000D03*
D13*
G04 #@! TD*
G04 #@! TO.N,COL6*
G04 #@! TO.C,MX_SP2*
X177165000Y-137160000D02*
X178475002Y-135700000D01*
D12*
G04 #@! TO.P,MX_SP2,1*
G04 #@! TO.N,COL6*
X178475000Y-135700000D03*
D11*
G04 #@! TO.P,MX_SP2,3*
G04 #@! TO.N,+5V*
X179705000Y-144780000D03*
D10*
G04 #@! TO.P,MX_SP2,4*
G04 #@! TO.N,Net-(MX_SP1-Pad4)*
X182245000Y-144780000D03*
G04 #@! TD*
D12*
G04 #@! TO.P,MX_UP1,2*
G04 #@! TO.N,Net-(D108-Pad2)*
X359707500Y-115860000D03*
D13*
G04 #@! TD*
G04 #@! TO.N,Net-(D108-Pad2)*
G04 #@! TO.C,MX_UP1*
X359687500Y-116150000D02*
X359727500Y-115570000D01*
D12*
G04 #@! TO.P,MX_UP1,2*
G04 #@! TO.N,Net-(D108-Pad2)*
X359727500Y-115570000D03*
G04 #@! TO.P,MX_UP1,1*
G04 #@! TO.N,COL15*
X354032501Y-117380000D03*
D13*
G04 #@! TD*
G04 #@! TO.N,COL15*
G04 #@! TO.C,MX_UP1*
X353377500Y-118110000D02*
X354687502Y-116650000D01*
D12*
G04 #@! TO.P,MX_UP1,1*
G04 #@! TO.N,COL15*
X354687500Y-116650000D03*
D11*
G04 #@! TO.P,MX_UP1,3*
G04 #@! TO.N,+5V*
X355917500Y-125730000D03*
D10*
G04 #@! TO.P,MX_UP1,4*
G04 #@! TO.N,Net-(MX_UP1-Pad4)*
X358457500Y-125730000D03*
G04 #@! TD*
D16*
G04 #@! TO.P,J1,1*
G04 #@! TO.N,MISO*
X379095000Y-102631875D03*
G04 #@! TO.P,J1,2*
G04 #@! TO.N,+5V*
X376555000Y-102631875D03*
G04 #@! TO.P,J1,3*
G04 #@! TO.N,SCK*
X379095000Y-105171875D03*
G04 #@! TO.P,J1,4*
G04 #@! TO.N,MOSI*
X376555000Y-105171875D03*
G04 #@! TO.P,J1,5*
G04 #@! TO.N,RESET*
X379095000Y-107711875D03*
D17*
G04 #@! TO.P,J1,6*
G04 #@! TO.N,GND*
X376555000Y-107711875D03*
G04 #@! TD*
D12*
G04 #@! TO.P,MX_LALT2,2*
G04 #@! TO.N,Net-(D86-Pad2)*
X102532500Y-134910000D03*
D13*
G04 #@! TD*
G04 #@! TO.N,Net-(D86-Pad2)*
G04 #@! TO.C,MX_LALT2*
X102512500Y-135200000D02*
X102552500Y-134620000D01*
D12*
G04 #@! TO.P,MX_LALT2,2*
G04 #@! TO.N,Net-(D86-Pad2)*
X102552500Y-134620000D03*
G04 #@! TO.P,MX_LALT2,1*
G04 #@! TO.N,COL2*
X96857501Y-136430000D03*
D13*
G04 #@! TD*
G04 #@! TO.N,COL2*
G04 #@! TO.C,MX_LALT2*
X96202500Y-137160000D02*
X97512502Y-135700000D01*
D12*
G04 #@! TO.P,MX_LALT2,1*
G04 #@! TO.N,COL2*
X97512500Y-135700000D03*
D11*
G04 #@! TO.P,MX_LALT2,3*
G04 #@! TO.N,+5V*
X101282500Y-144780000D03*
D10*
G04 #@! TO.P,MX_LALT2,4*
G04 #@! TO.N,Net-(MX_LALT1-Pad4)*
X98742500Y-144780000D03*
G04 #@! TD*
D12*
G04 #@! TO.P,MX_LGUI2,2*
G04 #@! TO.N,Net-(D85-Pad2)*
X78720000Y-134910000D03*
D13*
G04 #@! TD*
G04 #@! TO.N,Net-(D85-Pad2)*
G04 #@! TO.C,MX_LGUI2*
X78700000Y-135200000D02*
X78740000Y-134620000D01*
D12*
G04 #@! TO.P,MX_LGUI2,2*
G04 #@! TO.N,Net-(D85-Pad2)*
X78740000Y-134620000D03*
G04 #@! TO.P,MX_LGUI2,1*
G04 #@! TO.N,COL1*
X73045001Y-136430000D03*
D13*
G04 #@! TD*
G04 #@! TO.N,COL1*
G04 #@! TO.C,MX_LGUI2*
X72390000Y-137160000D02*
X73700002Y-135700000D01*
D12*
G04 #@! TO.P,MX_LGUI2,1*
G04 #@! TO.N,COL1*
X73700000Y-135700000D03*
D11*
G04 #@! TO.P,MX_LGUI2,3*
G04 #@! TO.N,+5V*
X77470000Y-144780000D03*
D10*
G04 #@! TO.P,MX_LGUI2,4*
G04 #@! TO.N,Net-(MX_LGUI1-Pad4)*
X74930000Y-144780000D03*
G04 #@! TD*
D12*
G04 #@! TO.P,MX_RALT2,2*
G04 #@! TO.N,Net-(D91-Pad2)*
X264457500Y-134910000D03*
D13*
G04 #@! TD*
G04 #@! TO.N,Net-(D91-Pad2)*
G04 #@! TO.C,MX_RALT2*
X264437500Y-135200000D02*
X264477500Y-134620000D01*
D12*
G04 #@! TO.P,MX_RALT2,2*
G04 #@! TO.N,Net-(D91-Pad2)*
X264477500Y-134620000D03*
G04 #@! TO.P,MX_RALT2,1*
G04 #@! TO.N,COL11*
X258782501Y-136430000D03*
D13*
G04 #@! TD*
G04 #@! TO.N,COL11*
G04 #@! TO.C,MX_RALT2*
X258127500Y-137160000D02*
X259437502Y-135700000D01*
D12*
G04 #@! TO.P,MX_RALT2,1*
G04 #@! TO.N,COL11*
X259437500Y-135700000D03*
D11*
G04 #@! TO.P,MX_RALT2,3*
G04 #@! TO.N,+5V*
X260667500Y-144780000D03*
D10*
G04 #@! TO.P,MX_RALT2,4*
G04 #@! TO.N,Net-(MX_RALT2-Pad4)*
X263207500Y-144780000D03*
G04 #@! TD*
D12*
G04 #@! TO.P,MX_RGUI1,2*
G04 #@! TO.N,Net-(D91-Pad2)*
X266838750Y-134910000D03*
D13*
G04 #@! TD*
G04 #@! TO.N,Net-(D91-Pad2)*
G04 #@! TO.C,MX_RGUI1*
X266818750Y-135200000D02*
X266858750Y-134620000D01*
D12*
G04 #@! TO.P,MX_RGUI1,2*
G04 #@! TO.N,Net-(D91-Pad2)*
X266858750Y-134620000D03*
G04 #@! TO.P,MX_RGUI1,1*
G04 #@! TO.N,COL11*
X261163751Y-136430000D03*
D13*
G04 #@! TD*
G04 #@! TO.N,COL11*
G04 #@! TO.C,MX_RGUI1*
X260508750Y-137160000D02*
X261818752Y-135700000D01*
D12*
G04 #@! TO.P,MX_RGUI1,1*
G04 #@! TO.N,COL11*
X261818750Y-135700000D03*
D11*
G04 #@! TO.P,MX_RGUI1,3*
G04 #@! TO.N,+5V*
X265588750Y-144780000D03*
D10*
G04 #@! TO.P,MX_RGUI1,4*
G04 #@! TO.N,Net-(MX_RALT2-Pad4)*
X263048750Y-144780000D03*
G04 #@! TD*
G04 #@! TO.P,MX_RCTRL1,4*
G04 #@! TO.N,Net-(MX_RCTRL1-Pad4)*
X310673750Y-144780000D03*
D11*
G04 #@! TO.P,MX_RCTRL1,3*
G04 #@! TO.N,+5V*
X313213750Y-144780000D03*
D12*
G04 #@! TO.P,MX_RCTRL1,1*
G04 #@! TO.N,COL13*
X309443750Y-135700000D03*
X308788751Y-136430000D03*
D13*
G04 #@! TD*
G04 #@! TO.N,COL13*
G04 #@! TO.C,MX_RCTRL1*
X308133750Y-137160000D02*
X309443752Y-135700000D01*
D12*
G04 #@! TO.P,MX_RCTRL1,2*
G04 #@! TO.N,Net-(D82-Pad2)*
X314483750Y-134620000D03*
X314463750Y-134910000D03*
D13*
G04 #@! TD*
G04 #@! TO.N,Net-(D82-Pad2)*
G04 #@! TO.C,MX_RCTRL1*
X314443750Y-135200000D02*
X314483750Y-134620000D01*
D12*
G04 #@! TO.P,MX_RCTRL2,2*
G04 #@! TO.N,Net-(D82-Pad2)*
X312082500Y-134910000D03*
D13*
G04 #@! TD*
G04 #@! TO.N,Net-(D82-Pad2)*
G04 #@! TO.C,MX_RCTRL2*
X312062500Y-135200000D02*
X312102500Y-134620000D01*
D12*
G04 #@! TO.P,MX_RCTRL2,2*
G04 #@! TO.N,Net-(D82-Pad2)*
X312102500Y-134620000D03*
G04 #@! TO.P,MX_RCTRL2,1*
G04 #@! TO.N,COL13*
X306407501Y-136430000D03*
D13*
G04 #@! TD*
G04 #@! TO.N,COL13*
G04 #@! TO.C,MX_RCTRL2*
X305752500Y-137160000D02*
X307062502Y-135700000D01*
D12*
G04 #@! TO.P,MX_RCTRL2,1*
G04 #@! TO.N,COL13*
X307062500Y-135700000D03*
D11*
G04 #@! TO.P,MX_RCTRL2,3*
G04 #@! TO.N,+5V*
X308292500Y-144780000D03*
D10*
G04 #@! TO.P,MX_RCTRL2,4*
G04 #@! TO.N,Net-(MX_RCTRL1-Pad4)*
X310832500Y-144780000D03*
G04 #@! TD*
D12*
G04 #@! TO.P,MX_RGUI2,2*
G04 #@! TO.N,Net-(D81-Pad2)*
X288270000Y-134910000D03*
D13*
G04 #@! TD*
G04 #@! TO.N,Net-(D81-Pad2)*
G04 #@! TO.C,MX_RGUI2*
X288250000Y-135200000D02*
X288290000Y-134620000D01*
D12*
G04 #@! TO.P,MX_RGUI2,2*
G04 #@! TO.N,Net-(D81-Pad2)*
X288290000Y-134620000D03*
G04 #@! TO.P,MX_RGUI2,1*
G04 #@! TO.N,COL12*
X282595001Y-136430000D03*
D13*
G04 #@! TD*
G04 #@! TO.N,COL12*
G04 #@! TO.C,MX_RGUI2*
X281940000Y-137160000D02*
X283250002Y-135700000D01*
D12*
G04 #@! TO.P,MX_RGUI2,1*
G04 #@! TO.N,COL12*
X283250000Y-135700000D03*
D11*
G04 #@! TO.P,MX_RGUI2,3*
G04 #@! TO.N,+5V*
X284480000Y-144780000D03*
D10*
G04 #@! TO.P,MX_RGUI2,4*
G04 #@! TO.N,Net-(MX_RGUI2-Pad4)*
X287020000Y-144780000D03*
G04 #@! TD*
D12*
G04 #@! TO.P,MX_RMENU1,2*
G04 #@! TO.N,Net-(D81-Pad2)*
X290651250Y-134910000D03*
D13*
G04 #@! TD*
G04 #@! TO.N,Net-(D81-Pad2)*
G04 #@! TO.C,MX_RMENU1*
X290631250Y-135200000D02*
X290671250Y-134620000D01*
D12*
G04 #@! TO.P,MX_RMENU1,2*
G04 #@! TO.N,Net-(D81-Pad2)*
X290671250Y-134620000D03*
G04 #@! TO.P,MX_RMENU1,1*
G04 #@! TO.N,COL12*
X284976251Y-136430000D03*
D13*
G04 #@! TD*
G04 #@! TO.N,COL12*
G04 #@! TO.C,MX_RMENU1*
X284321250Y-137160000D02*
X285631252Y-135700000D01*
D12*
G04 #@! TO.P,MX_RMENU1,1*
G04 #@! TO.N,COL12*
X285631250Y-135700000D03*
D11*
G04 #@! TO.P,MX_RMENU1,3*
G04 #@! TO.N,+5V*
X289401250Y-144780000D03*
D10*
G04 #@! TO.P,MX_RMENU1,4*
G04 #@! TO.N,Net-(MX_RGUI2-Pad4)*
X286861250Y-144780000D03*
G04 #@! TD*
D12*
G04 #@! TO.P,MX_NUM1,2*
G04 #@! TO.N,Net-(D15-Pad2)*
X402570000Y-34897500D03*
D13*
G04 #@! TD*
G04 #@! TO.N,Net-(D15-Pad2)*
G04 #@! TO.C,MX_NUM1*
X402550000Y-35187500D02*
X402590000Y-34607500D01*
D12*
G04 #@! TO.P,MX_NUM1,2*
G04 #@! TO.N,Net-(D15-Pad2)*
X402590000Y-34607500D03*
G04 #@! TO.P,MX_NUM1,1*
G04 #@! TO.N,COL17*
X396895001Y-36417500D03*
D13*
G04 #@! TD*
G04 #@! TO.N,COL17*
G04 #@! TO.C,MX_NUM1*
X396240000Y-37147500D02*
X397550002Y-35687500D01*
D12*
G04 #@! TO.P,MX_NUM1,1*
G04 #@! TO.N,COL17*
X397550000Y-35687500D03*
D11*
G04 #@! TO.P,MX_NUM1,3*
G04 #@! TO.N,+5V*
X398780000Y-44767500D03*
D10*
G04 #@! TO.P,MX_NUM1,4*
G04 #@! TO.N,Net-(MX_NUM1-Pad4)*
X401320000Y-44767500D03*
G04 #@! TD*
D12*
G04 #@! TO.P,MX_NUM2,2*
G04 #@! TO.N,Net-(D16-Pad2)*
X421620000Y-34897500D03*
D13*
G04 #@! TD*
G04 #@! TO.N,Net-(D16-Pad2)*
G04 #@! TO.C,MX_NUM2*
X421600000Y-35187500D02*
X421640000Y-34607500D01*
D12*
G04 #@! TO.P,MX_NUM2,2*
G04 #@! TO.N,Net-(D16-Pad2)*
X421640000Y-34607500D03*
G04 #@! TO.P,MX_NUM2,1*
G04 #@! TO.N,COL18*
X415945001Y-36417500D03*
D13*
G04 #@! TD*
G04 #@! TO.N,COL18*
G04 #@! TO.C,MX_NUM2*
X415290000Y-37147500D02*
X416600002Y-35687500D01*
D12*
G04 #@! TO.P,MX_NUM2,1*
G04 #@! TO.N,COL18*
X416600000Y-35687500D03*
D11*
G04 #@! TO.P,MX_NUM2,3*
G04 #@! TO.N,+5V*
X417830000Y-44767500D03*
D10*
G04 #@! TO.P,MX_NUM2,4*
G04 #@! TO.N,Net-(MX_NUM2-Pad4)*
X420370000Y-44767500D03*
G04 #@! TD*
G04 #@! TO.P,MX_NUM3,4*
G04 #@! TO.N,Net-(MX_NUM3-Pad4)*
X439420000Y-44767500D03*
D11*
G04 #@! TO.P,MX_NUM3,3*
G04 #@! TO.N,+5V*
X436880000Y-44767500D03*
D12*
G04 #@! TO.P,MX_NUM3,1*
G04 #@! TO.N,COL19*
X435650000Y-35687500D03*
X434995001Y-36417500D03*
D13*
G04 #@! TD*
G04 #@! TO.N,COL19*
G04 #@! TO.C,MX_NUM3*
X434340000Y-37147500D02*
X435650002Y-35687500D01*
D12*
G04 #@! TO.P,MX_NUM3,2*
G04 #@! TO.N,Net-(D32-Pad2)*
X440690000Y-34607500D03*
X440670000Y-34897500D03*
D13*
G04 #@! TD*
G04 #@! TO.N,Net-(D32-Pad2)*
G04 #@! TO.C,MX_NUM3*
X440650000Y-35187500D02*
X440690000Y-34607500D01*
D10*
G04 #@! TO.P,MX_NUM4,4*
G04 #@! TO.N,Net-(MX_NUM4-Pad4)*
X458470000Y-44767500D03*
D11*
G04 #@! TO.P,MX_NUM4,3*
G04 #@! TO.N,+5V*
X455930000Y-44767500D03*
D12*
G04 #@! TO.P,MX_NUM4,1*
G04 #@! TO.N,COL20*
X454700000Y-35687500D03*
X454045001Y-36417500D03*
D13*
G04 #@! TD*
G04 #@! TO.N,COL20*
G04 #@! TO.C,MX_NUM4*
X453390000Y-37147500D02*
X454700002Y-35687500D01*
D12*
G04 #@! TO.P,MX_NUM4,2*
G04 #@! TO.N,Net-(D33-Pad2)*
X459740000Y-34607500D03*
X459720000Y-34897500D03*
D13*
G04 #@! TD*
G04 #@! TO.N,Net-(D33-Pad2)*
G04 #@! TO.C,MX_NUM4*
X459700000Y-35187500D02*
X459740000Y-34607500D01*
D10*
G04 #@! TO.P,MX_NUM5,4*
G04 #@! TO.N,Net-(MX_NUM5-Pad4)*
X401320000Y-68580000D03*
D11*
G04 #@! TO.P,MX_NUM5,3*
G04 #@! TO.N,+5V*
X398780000Y-68580000D03*
D12*
G04 #@! TO.P,MX_NUM5,1*
G04 #@! TO.N,COL17*
X397550000Y-59500000D03*
X396895001Y-60230000D03*
D13*
G04 #@! TD*
G04 #@! TO.N,COL17*
G04 #@! TO.C,MX_NUM5*
X396240000Y-60960000D02*
X397550002Y-59500000D01*
D12*
G04 #@! TO.P,MX_NUM5,2*
G04 #@! TO.N,Net-(D34-Pad2)*
X402590000Y-58420000D03*
X402570000Y-58710000D03*
D13*
G04 #@! TD*
G04 #@! TO.N,Net-(D34-Pad2)*
G04 #@! TO.C,MX_NUM5*
X402550000Y-59000000D02*
X402590000Y-58420000D01*
D12*
G04 #@! TO.P,MX_NUM6,2*
G04 #@! TO.N,Net-(D49-Pad2)*
X421620000Y-58710000D03*
D13*
G04 #@! TD*
G04 #@! TO.N,Net-(D49-Pad2)*
G04 #@! TO.C,MX_NUM6*
X421600000Y-59000000D02*
X421640000Y-58420000D01*
D12*
G04 #@! TO.P,MX_NUM6,2*
G04 #@! TO.N,Net-(D49-Pad2)*
X421640000Y-58420000D03*
G04 #@! TO.P,MX_NUM6,1*
G04 #@! TO.N,COL18*
X415945001Y-60230000D03*
D13*
G04 #@! TD*
G04 #@! TO.N,COL18*
G04 #@! TO.C,MX_NUM6*
X415290000Y-60960000D02*
X416600002Y-59500000D01*
D12*
G04 #@! TO.P,MX_NUM6,1*
G04 #@! TO.N,COL18*
X416600000Y-59500000D03*
D11*
G04 #@! TO.P,MX_NUM6,3*
G04 #@! TO.N,+5V*
X417830000Y-68580000D03*
D10*
G04 #@! TO.P,MX_NUM6,4*
G04 #@! TO.N,Net-(MX_NUM6-Pad4)*
X420370000Y-68580000D03*
G04 #@! TD*
G04 #@! TO.P,MX_NUM7,4*
G04 #@! TO.N,Net-(MX_NUM7-Pad4)*
X439420000Y-68580000D03*
D11*
G04 #@! TO.P,MX_NUM7,3*
G04 #@! TO.N,+5V*
X436880000Y-68580000D03*
D12*
G04 #@! TO.P,MX_NUM7,1*
G04 #@! TO.N,COL19*
X435650000Y-59500000D03*
X434995001Y-60230000D03*
D13*
G04 #@! TD*
G04 #@! TO.N,COL19*
G04 #@! TO.C,MX_NUM7*
X434340000Y-60960000D02*
X435650002Y-59500000D01*
D12*
G04 #@! TO.P,MX_NUM7,2*
G04 #@! TO.N,Net-(D50-Pad2)*
X440690000Y-58420000D03*
X440670000Y-58710000D03*
D13*
G04 #@! TD*
G04 #@! TO.N,Net-(D50-Pad2)*
G04 #@! TO.C,MX_NUM7*
X440650000Y-59000000D02*
X440690000Y-58420000D01*
D12*
G04 #@! TO.P,MX_NUM8,2*
G04 #@! TO.N,Net-(D51-Pad2)*
X459720000Y-58710000D03*
D13*
G04 #@! TD*
G04 #@! TO.N,Net-(D51-Pad2)*
G04 #@! TO.C,MX_NUM8*
X459700000Y-59000000D02*
X459740000Y-58420000D01*
D12*
G04 #@! TO.P,MX_NUM8,2*
G04 #@! TO.N,Net-(D51-Pad2)*
X459740000Y-58420000D03*
G04 #@! TO.P,MX_NUM8,1*
G04 #@! TO.N,COL20*
X454045001Y-60230000D03*
D13*
G04 #@! TD*
G04 #@! TO.N,COL20*
G04 #@! TO.C,MX_NUM8*
X453390000Y-60960000D02*
X454700002Y-59500000D01*
D12*
G04 #@! TO.P,MX_NUM8,1*
G04 #@! TO.N,COL20*
X454700000Y-59500000D03*
D11*
G04 #@! TO.P,MX_NUM8,3*
G04 #@! TO.N,+5V*
X455930000Y-68580000D03*
D10*
G04 #@! TO.P,MX_NUM8,4*
G04 #@! TO.N,Net-(MX_NUM8-Pad4)*
X458470000Y-68580000D03*
G04 #@! TD*
D12*
G04 #@! TO.P,MX_NUM9,2*
G04 #@! TO.N,Net-(D64-Pad2)*
X402570000Y-77760000D03*
D13*
G04 #@! TD*
G04 #@! TO.N,Net-(D64-Pad2)*
G04 #@! TO.C,MX_NUM9*
X402550000Y-78050000D02*
X402590000Y-77470000D01*
D12*
G04 #@! TO.P,MX_NUM9,2*
G04 #@! TO.N,Net-(D64-Pad2)*
X402590000Y-77470000D03*
G04 #@! TO.P,MX_NUM9,1*
G04 #@! TO.N,COL17*
X396895001Y-79280000D03*
D13*
G04 #@! TD*
G04 #@! TO.N,COL17*
G04 #@! TO.C,MX_NUM9*
X396240000Y-80010000D02*
X397550002Y-78550000D01*
D12*
G04 #@! TO.P,MX_NUM9,1*
G04 #@! TO.N,COL17*
X397550000Y-78550000D03*
D11*
G04 #@! TO.P,MX_NUM9,3*
G04 #@! TO.N,+5V*
X398780000Y-87630000D03*
D10*
G04 #@! TO.P,MX_NUM9,4*
G04 #@! TO.N,Net-(MX_NUM9-Pad4)*
X401320000Y-87630000D03*
G04 #@! TD*
G04 #@! TO.P,MX_NUM10,4*
G04 #@! TO.N,Net-(MX_NUM10-Pad4)*
X420370000Y-87630000D03*
D11*
G04 #@! TO.P,MX_NUM10,3*
G04 #@! TO.N,+5V*
X417830000Y-87630000D03*
D12*
G04 #@! TO.P,MX_NUM10,1*
G04 #@! TO.N,COL18*
X416600000Y-78550000D03*
X415945001Y-79280000D03*
D13*
G04 #@! TD*
G04 #@! TO.N,COL18*
G04 #@! TO.C,MX_NUM10*
X415290000Y-80010000D02*
X416600002Y-78550000D01*
D12*
G04 #@! TO.P,MX_NUM10,2*
G04 #@! TO.N,Net-(D79-Pad2)*
X421640000Y-77470000D03*
X421620000Y-77760000D03*
D13*
G04 #@! TD*
G04 #@! TO.N,Net-(D79-Pad2)*
G04 #@! TO.C,MX_NUM10*
X421600000Y-78050000D02*
X421640000Y-77470000D01*
D10*
G04 #@! TO.P,MX_NUM11,4*
G04 #@! TO.N,Net-(MX_NUM11-Pad4)*
X439420000Y-87630000D03*
D11*
G04 #@! TO.P,MX_NUM11,3*
G04 #@! TO.N,+5V*
X436880000Y-87630000D03*
D12*
G04 #@! TO.P,MX_NUM11,1*
G04 #@! TO.N,COL19*
X435650000Y-78550000D03*
X434995001Y-79280000D03*
D13*
G04 #@! TD*
G04 #@! TO.N,COL19*
G04 #@! TO.C,MX_NUM11*
X434340000Y-80010000D02*
X435650002Y-78550000D01*
D12*
G04 #@! TO.P,MX_NUM11,2*
G04 #@! TO.N,Net-(D80-Pad2)*
X440690000Y-77470000D03*
X440670000Y-77760000D03*
D13*
G04 #@! TD*
G04 #@! TO.N,Net-(D80-Pad2)*
G04 #@! TO.C,MX_NUM11*
X440650000Y-78050000D02*
X440690000Y-77470000D01*
D10*
G04 #@! TO.P,MX_NUM12,4*
G04 #@! TO.N,Net-(MX_NUM12-Pad4)*
X458470000Y-87630000D03*
D11*
G04 #@! TO.P,MX_NUM12,3*
G04 #@! TO.N,+5V*
X455930000Y-87630000D03*
D12*
G04 #@! TO.P,MX_NUM12,1*
G04 #@! TO.N,COL20*
X454700000Y-78550000D03*
X454045001Y-79280000D03*
D13*
G04 #@! TD*
G04 #@! TO.N,COL20*
G04 #@! TO.C,MX_NUM12*
X453390000Y-80010000D02*
X454700002Y-78550000D01*
D12*
G04 #@! TO.P,MX_NUM12,2*
G04 #@! TO.N,Net-(D83-Pad2)*
X459740000Y-77470000D03*
X459720000Y-77760000D03*
D13*
G04 #@! TD*
G04 #@! TO.N,Net-(D83-Pad2)*
G04 #@! TO.C,MX_NUM12*
X459700000Y-78050000D02*
X459740000Y-77470000D01*
D10*
G04 #@! TO.P,MX_NUM13,4*
G04 #@! TO.N,Net-(MX_NUM13-Pad4)*
X401320000Y-106680000D03*
D11*
G04 #@! TO.P,MX_NUM13,3*
G04 #@! TO.N,+5V*
X398780000Y-106680000D03*
D12*
G04 #@! TO.P,MX_NUM13,1*
G04 #@! TO.N,COL17*
X397550000Y-97600000D03*
X396895001Y-98330000D03*
D13*
G04 #@! TD*
G04 #@! TO.N,COL17*
G04 #@! TO.C,MX_NUM13*
X396240000Y-99060000D02*
X397550002Y-97600000D01*
D12*
G04 #@! TO.P,MX_NUM13,2*
G04 #@! TO.N,Net-(D88-Pad2)*
X402590000Y-96520000D03*
X402570000Y-96810000D03*
D13*
G04 #@! TD*
G04 #@! TO.N,Net-(D88-Pad2)*
G04 #@! TO.C,MX_NUM13*
X402550000Y-97100000D02*
X402590000Y-96520000D01*
D12*
G04 #@! TO.P,MX_NUM14,2*
G04 #@! TO.N,Net-(D89-Pad2)*
X421620000Y-96810000D03*
D13*
G04 #@! TD*
G04 #@! TO.N,Net-(D89-Pad2)*
G04 #@! TO.C,MX_NUM14*
X421600000Y-97100000D02*
X421640000Y-96520000D01*
D12*
G04 #@! TO.P,MX_NUM14,2*
G04 #@! TO.N,Net-(D89-Pad2)*
X421640000Y-96520000D03*
G04 #@! TO.P,MX_NUM14,1*
G04 #@! TO.N,COL18*
X415945001Y-98330000D03*
D13*
G04 #@! TD*
G04 #@! TO.N,COL18*
G04 #@! TO.C,MX_NUM14*
X415290000Y-99060000D02*
X416600002Y-97600000D01*
D12*
G04 #@! TO.P,MX_NUM14,1*
G04 #@! TO.N,COL18*
X416600000Y-97600000D03*
D11*
G04 #@! TO.P,MX_NUM14,3*
G04 #@! TO.N,+5V*
X417830000Y-106680000D03*
D10*
G04 #@! TO.P,MX_NUM14,4*
G04 #@! TO.N,Net-(MX_NUM14-Pad4)*
X420370000Y-106680000D03*
G04 #@! TD*
D12*
G04 #@! TO.P,MX_NUM15,2*
G04 #@! TO.N,Net-(D98-Pad2)*
X440670000Y-96810000D03*
D13*
G04 #@! TD*
G04 #@! TO.N,Net-(D98-Pad2)*
G04 #@! TO.C,MX_NUM15*
X440650000Y-97100000D02*
X440690000Y-96520000D01*
D12*
G04 #@! TO.P,MX_NUM15,2*
G04 #@! TO.N,Net-(D98-Pad2)*
X440690000Y-96520000D03*
G04 #@! TO.P,MX_NUM15,1*
G04 #@! TO.N,COL19*
X434995001Y-98330000D03*
D13*
G04 #@! TD*
G04 #@! TO.N,COL19*
G04 #@! TO.C,MX_NUM15*
X434340000Y-99060000D02*
X435650002Y-97600000D01*
D12*
G04 #@! TO.P,MX_NUM15,1*
G04 #@! TO.N,COL19*
X435650000Y-97600000D03*
D11*
G04 #@! TO.P,MX_NUM15,3*
G04 #@! TO.N,+5V*
X436880000Y-106680000D03*
D10*
G04 #@! TO.P,MX_NUM15,4*
G04 #@! TO.N,Net-(MX_NUM15-Pad4)*
X439420000Y-106680000D03*
G04 #@! TD*
D12*
G04 #@! TO.P,MX_NUM16,2*
G04 #@! TO.N,Net-(D102-Pad2)*
X459720000Y-96810000D03*
D13*
G04 #@! TD*
G04 #@! TO.N,Net-(D102-Pad2)*
G04 #@! TO.C,MX_NUM16*
X459700000Y-97100000D02*
X459740000Y-96520000D01*
D12*
G04 #@! TO.P,MX_NUM16,2*
G04 #@! TO.N,Net-(D102-Pad2)*
X459740000Y-96520000D03*
G04 #@! TO.P,MX_NUM16,1*
G04 #@! TO.N,COL20*
X454045001Y-98330000D03*
D13*
G04 #@! TD*
G04 #@! TO.N,COL20*
G04 #@! TO.C,MX_NUM16*
X453390000Y-99060000D02*
X454700002Y-97600000D01*
D12*
G04 #@! TO.P,MX_NUM16,1*
G04 #@! TO.N,COL20*
X454700000Y-97600000D03*
D11*
G04 #@! TO.P,MX_NUM16,3*
G04 #@! TO.N,+5V*
X455930000Y-106680000D03*
D10*
G04 #@! TO.P,MX_NUM16,4*
G04 #@! TO.N,Net-(MX_NUM16-Pad4)*
X458470000Y-106680000D03*
G04 #@! TD*
D12*
G04 #@! TO.P,MX_NUM17,2*
G04 #@! TO.N,Net-(D103-Pad2)*
X402570000Y-115860000D03*
D13*
G04 #@! TD*
G04 #@! TO.N,Net-(D103-Pad2)*
G04 #@! TO.C,MX_NUM17*
X402550000Y-116150000D02*
X402590000Y-115570000D01*
D12*
G04 #@! TO.P,MX_NUM17,2*
G04 #@! TO.N,Net-(D103-Pad2)*
X402590000Y-115570000D03*
G04 #@! TO.P,MX_NUM17,1*
G04 #@! TO.N,COL17*
X396895001Y-117380000D03*
D13*
G04 #@! TD*
G04 #@! TO.N,COL17*
G04 #@! TO.C,MX_NUM17*
X396240000Y-118110000D02*
X397550002Y-116650000D01*
D12*
G04 #@! TO.P,MX_NUM17,1*
G04 #@! TO.N,COL17*
X397550000Y-116650000D03*
D11*
G04 #@! TO.P,MX_NUM17,3*
G04 #@! TO.N,+5V*
X398780000Y-125730000D03*
D10*
G04 #@! TO.P,MX_NUM17,4*
G04 #@! TO.N,Net-(MX_NUM17-Pad4)*
X401320000Y-125730000D03*
G04 #@! TD*
D12*
G04 #@! TO.P,MX_NUM18,2*
G04 #@! TO.N,Net-(D104-Pad2)*
X421620000Y-115860000D03*
D13*
G04 #@! TD*
G04 #@! TO.N,Net-(D104-Pad2)*
G04 #@! TO.C,MX_NUM18*
X421600000Y-116150000D02*
X421640000Y-115570000D01*
D12*
G04 #@! TO.P,MX_NUM18,2*
G04 #@! TO.N,Net-(D104-Pad2)*
X421640000Y-115570000D03*
G04 #@! TO.P,MX_NUM18,1*
G04 #@! TO.N,COL18*
X415945001Y-117380000D03*
D13*
G04 #@! TD*
G04 #@! TO.N,COL18*
G04 #@! TO.C,MX_NUM18*
X415290000Y-118110000D02*
X416600002Y-116650000D01*
D12*
G04 #@! TO.P,MX_NUM18,1*
G04 #@! TO.N,COL18*
X416600000Y-116650000D03*
D11*
G04 #@! TO.P,MX_NUM18,3*
G04 #@! TO.N,+5V*
X417830000Y-125730000D03*
D10*
G04 #@! TO.P,MX_NUM18,4*
G04 #@! TO.N,Net-(MX_NUM18-Pad4)*
X420370000Y-125730000D03*
G04 #@! TD*
G04 #@! TO.P,MX_NUM19,4*
G04 #@! TO.N,Net-(MX_NUM19-Pad4)*
X439420000Y-125730000D03*
D11*
G04 #@! TO.P,MX_NUM19,3*
G04 #@! TO.N,+5V*
X436880000Y-125730000D03*
D12*
G04 #@! TO.P,MX_NUM19,1*
G04 #@! TO.N,COL19*
X435650000Y-116650000D03*
X434995001Y-117380000D03*
D13*
G04 #@! TD*
G04 #@! TO.N,COL19*
G04 #@! TO.C,MX_NUM19*
X434340000Y-118110000D02*
X435650002Y-116650000D01*
D12*
G04 #@! TO.P,MX_NUM19,2*
G04 #@! TO.N,Net-(D105-Pad2)*
X440690000Y-115570000D03*
X440670000Y-115860000D03*
D13*
G04 #@! TD*
G04 #@! TO.N,Net-(D105-Pad2)*
G04 #@! TO.C,MX_NUM19*
X440650000Y-116150000D02*
X440690000Y-115570000D01*
D10*
G04 #@! TO.P,MX_NUM20,4*
G04 #@! TO.N,Net-(MX_NUM20-Pad4)*
X458470000Y-125730000D03*
D11*
G04 #@! TO.P,MX_NUM20,3*
G04 #@! TO.N,+5V*
X455930000Y-125730000D03*
D12*
G04 #@! TO.P,MX_NUM20,1*
G04 #@! TO.N,COL20*
X454700000Y-116650000D03*
X454045001Y-117380000D03*
D13*
G04 #@! TD*
G04 #@! TO.N,COL20*
G04 #@! TO.C,MX_NUM20*
X453390000Y-118110000D02*
X454700002Y-116650000D01*
D12*
G04 #@! TO.P,MX_NUM20,2*
G04 #@! TO.N,Net-(D106-Pad2)*
X459740000Y-115570000D03*
X459720000Y-115860000D03*
D13*
G04 #@! TD*
G04 #@! TO.N,Net-(D106-Pad2)*
G04 #@! TO.C,MX_NUM20*
X459700000Y-116150000D02*
X459740000Y-115570000D01*
D12*
G04 #@! TO.P,MX_NUM21,2*
G04 #@! TO.N,Net-(D107-Pad2)*
X402570000Y-134910000D03*
D13*
G04 #@! TD*
G04 #@! TO.N,Net-(D107-Pad2)*
G04 #@! TO.C,MX_NUM21*
X402550000Y-135200000D02*
X402590000Y-134620000D01*
D12*
G04 #@! TO.P,MX_NUM21,2*
G04 #@! TO.N,Net-(D107-Pad2)*
X402590000Y-134620000D03*
G04 #@! TO.P,MX_NUM21,1*
G04 #@! TO.N,COL17*
X396895001Y-136430000D03*
D13*
G04 #@! TD*
G04 #@! TO.N,COL17*
G04 #@! TO.C,MX_NUM21*
X396240000Y-137160000D02*
X397550002Y-135700000D01*
D12*
G04 #@! TO.P,MX_NUM21,1*
G04 #@! TO.N,COL17*
X397550000Y-135700000D03*
D11*
G04 #@! TO.P,MX_NUM21,3*
G04 #@! TO.N,+5V*
X398780000Y-144780000D03*
D10*
G04 #@! TO.P,MX_NUM21,4*
G04 #@! TO.N,Net-(MX_NUM21-Pad4)*
X401320000Y-144780000D03*
G04 #@! TD*
D12*
G04 #@! TO.P,MX_NUM22,2*
G04 #@! TO.N,Net-(D109-Pad2)*
X421620000Y-134910000D03*
D13*
G04 #@! TD*
G04 #@! TO.N,Net-(D109-Pad2)*
G04 #@! TO.C,MX_NUM22*
X421600000Y-135200000D02*
X421640000Y-134620000D01*
D12*
G04 #@! TO.P,MX_NUM22,2*
G04 #@! TO.N,Net-(D109-Pad2)*
X421640000Y-134620000D03*
G04 #@! TO.P,MX_NUM22,1*
G04 #@! TO.N,COL18*
X415945001Y-136430000D03*
D13*
G04 #@! TD*
G04 #@! TO.N,COL18*
G04 #@! TO.C,MX_NUM22*
X415290000Y-137160000D02*
X416600002Y-135700000D01*
D12*
G04 #@! TO.P,MX_NUM22,1*
G04 #@! TO.N,COL18*
X416600000Y-135700000D03*
D11*
G04 #@! TO.P,MX_NUM22,3*
G04 #@! TO.N,+5V*
X417830000Y-144780000D03*
D10*
G04 #@! TO.P,MX_NUM22,4*
G04 #@! TO.N,Net-(MX_NUM22-Pad4)*
X420370000Y-144780000D03*
G04 #@! TD*
G04 #@! TO.P,MX_NUM23,4*
G04 #@! TO.N,Net-(MX_NUM23-Pad4)*
X439420000Y-144780000D03*
D11*
G04 #@! TO.P,MX_NUM23,3*
G04 #@! TO.N,+5V*
X436880000Y-144780000D03*
D12*
G04 #@! TO.P,MX_NUM23,1*
G04 #@! TO.N,COL19*
X435650000Y-135700000D03*
X434995001Y-136430000D03*
D13*
G04 #@! TD*
G04 #@! TO.N,COL19*
G04 #@! TO.C,MX_NUM23*
X434340000Y-137160000D02*
X435650002Y-135700000D01*
D12*
G04 #@! TO.P,MX_NUM23,2*
G04 #@! TO.N,Net-(D110-Pad2)*
X440690000Y-134620000D03*
X440670000Y-134910000D03*
D13*
G04 #@! TD*
G04 #@! TO.N,Net-(D110-Pad2)*
G04 #@! TO.C,MX_NUM23*
X440650000Y-135200000D02*
X440690000Y-134620000D01*
D10*
G04 #@! TO.P,MX_NUM24,4*
G04 #@! TO.N,Net-(MX_NUM24-Pad4)*
X458470000Y-144780000D03*
D11*
G04 #@! TO.P,MX_NUM24,3*
G04 #@! TO.N,+5V*
X455930000Y-144780000D03*
D12*
G04 #@! TO.P,MX_NUM24,1*
G04 #@! TO.N,COL20*
X454700000Y-135700000D03*
X454045001Y-136430000D03*
D13*
G04 #@! TD*
G04 #@! TO.N,COL20*
G04 #@! TO.C,MX_NUM24*
X453390000Y-137160000D02*
X454700002Y-135700000D01*
D12*
G04 #@! TO.P,MX_NUM24,2*
G04 #@! TO.N,Net-(D114-Pad2)*
X459740000Y-134620000D03*
X459720000Y-134910000D03*
D13*
G04 #@! TD*
G04 #@! TO.N,Net-(D114-Pad2)*
G04 #@! TO.C,MX_NUM24*
X459700000Y-135200000D02*
X459740000Y-134620000D01*
D10*
G04 #@! TO.P,MX_NUM_EX1,4*
G04 #@! TO.N,Net-(MX_NUM16-Pad4)*
X462280000Y-90805000D03*
D11*
G04 #@! TO.P,MX_NUM_EX1,3*
G04 #@! TO.N,+5V*
X462280000Y-93345000D03*
D12*
G04 #@! TO.P,MX_NUM_EX1,1*
G04 #@! TO.N,COL20*
X453200000Y-94575000D03*
X453930000Y-95229999D03*
D13*
G04 #@! TD*
G04 #@! TO.N,COL20*
G04 #@! TO.C,MX_NUM_EX1*
X454660000Y-95885000D02*
X453200000Y-94574998D01*
D12*
G04 #@! TO.P,MX_NUM_EX1,2*
G04 #@! TO.N,Net-(D102-Pad2)*
X452120000Y-89535000D03*
X452410000Y-89555000D03*
D13*
G04 #@! TD*
G04 #@! TO.N,Net-(D102-Pad2)*
G04 #@! TO.C,MX_NUM_EX1*
X452700000Y-89575000D02*
X452120000Y-89535000D01*
D12*
G04 #@! TO.P,MX_NUM_EX2,2*
G04 #@! TO.N,Net-(D114-Pad2)*
X452410000Y-127655000D03*
D13*
G04 #@! TD*
G04 #@! TO.N,Net-(D114-Pad2)*
G04 #@! TO.C,MX_NUM_EX2*
X452700000Y-127675000D02*
X452120000Y-127635000D01*
D12*
G04 #@! TO.P,MX_NUM_EX2,2*
G04 #@! TO.N,Net-(D114-Pad2)*
X452120000Y-127635000D03*
G04 #@! TO.P,MX_NUM_EX2,1*
G04 #@! TO.N,COL20*
X453930000Y-133329999D03*
D13*
G04 #@! TD*
G04 #@! TO.N,COL20*
G04 #@! TO.C,MX_NUM_EX2*
X454660000Y-133985000D02*
X453200000Y-132674998D01*
D12*
G04 #@! TO.P,MX_NUM_EX2,1*
G04 #@! TO.N,COL20*
X453200000Y-132675000D03*
D11*
G04 #@! TO.P,MX_NUM_EX2,3*
G04 #@! TO.N,+5V*
X462280000Y-131445000D03*
D10*
G04 #@! TO.P,MX_NUM_EX2,4*
G04 #@! TO.N,Net-(MX_NUM24-Pad4)*
X462280000Y-128905000D03*
G04 #@! TD*
D12*
G04 #@! TO.P,MX_NUM_EX3,2*
G04 #@! TO.N,Net-(D107-Pad2)*
X412095000Y-134910000D03*
D13*
G04 #@! TD*
G04 #@! TO.N,Net-(D107-Pad2)*
G04 #@! TO.C,MX_NUM_EX3*
X412075000Y-135200000D02*
X412115000Y-134620000D01*
D12*
G04 #@! TO.P,MX_NUM_EX3,2*
G04 #@! TO.N,Net-(D107-Pad2)*
X412115000Y-134620000D03*
G04 #@! TO.P,MX_NUM_EX3,1*
G04 #@! TO.N,COL17*
X406420001Y-136430000D03*
D13*
G04 #@! TD*
G04 #@! TO.N,COL17*
G04 #@! TO.C,MX_NUM_EX3*
X405765000Y-137160000D02*
X407075002Y-135700000D01*
D12*
G04 #@! TO.P,MX_NUM_EX3,1*
G04 #@! TO.N,COL17*
X407075000Y-135700000D03*
D11*
G04 #@! TO.P,MX_NUM_EX3,3*
G04 #@! TO.N,+5V*
X408305000Y-144780000D03*
D10*
G04 #@! TO.P,MX_NUM_EX3,4*
G04 #@! TO.N,Net-(MX_NUM21-Pad4)*
X410845000Y-144780000D03*
G04 #@! TD*
D18*
G04 #@! TO.N,COL13*
X297561000Y-55626000D03*
G04 #@! TO.N,+5V*
X340106000Y-100965000D03*
X335534000Y-99822000D03*
X331978000Y-102235000D03*
X330073000Y-108966000D03*
X363347000Y-99187000D03*
X331216000Y-102997000D03*
X323088000Y-43053000D03*
X348234000Y-101092000D03*
X86487000Y-125730000D03*
X354203000Y-141478000D03*
X298704000Y-45847000D03*
X334010000Y-43180000D03*
X80264000Y-68453000D03*
G04 #@! TO.N,COL12*
X270764000Y-69596000D03*
X319405000Y-73787000D03*
G04 #@! TO.N,GND*
X335534000Y-98298000D03*
X341122000Y-98298000D03*
X339090000Y-119126000D03*
X326898000Y-111633000D03*
X334518000Y-119126000D03*
G04 #@! TO.N,ROW0*
X299720000Y-41910000D03*
X343535000Y-114173000D03*
X319405000Y-42037000D03*
X334010000Y-42037000D03*
G04 #@! TO.N,ROW4*
X323596000Y-120777000D03*
X340995000Y-116205000D03*
X355092000Y-123317000D03*
G04 #@! TO.N,ROW1*
X342900000Y-114681000D03*
X289941000Y-66294000D03*
X334010000Y-66167000D03*
X320040000Y-66167000D03*
X292481000Y-75438000D03*
G04 #@! TO.N,ROW3*
X297053000Y-109982000D03*
X341630000Y-115697000D03*
X280924000Y-101219000D03*
X287401000Y-64770000D03*
X354203000Y-112395000D03*
G04 #@! TO.N,ROW2*
X293751000Y-81534000D03*
X342265000Y-115189000D03*
X334010000Y-85217000D03*
X314579000Y-85217000D03*
G04 #@! TO.N,Net-(D48-Pad2)*
X293751000Y-77978000D03*
G04 #@! TO.N,VCC*
X327660000Y-32893000D03*
X324231000Y-32893000D03*
G04 #@! TO.N,COL2*
X94488000Y-107696000D03*
X80264000Y-69596000D03*
G04 #@! TO.N,COL10*
X246888000Y-107696000D03*
G04 #@! TO.N,COL3*
X113538000Y-107696000D03*
X99314000Y-69596000D03*
G04 #@! TO.N,COL4*
X118364000Y-69596000D03*
G04 #@! TO.N,COL11*
X265938000Y-107696000D03*
X251714000Y-69596000D03*
G04 #@! TO.N,Net-(MX_\005C1-Pad4)*
X292481000Y-89535000D03*
G04 #@! TO.N,COL15*
X353314000Y-112395000D03*
G04 #@! TO.N,COL16*
X381889000Y-111379000D03*
G04 #@! TO.N,LEDGND*
X366395000Y-134239000D03*
X369570000Y-90424000D03*
X369570000Y-88392000D03*
X288671000Y-66675000D03*
X289814000Y-45593000D03*
X289179000Y-86233000D03*
X286639000Y-104775000D03*
X279146000Y-143129000D03*
X279146000Y-124206000D03*
X279146000Y-103886000D03*
X376936000Y-98552000D03*
X369570000Y-43180000D03*
X369570000Y-143256000D03*
X366649000Y-124206000D03*
X366649000Y-108712000D03*
X367030000Y-112903000D03*
X369189000Y-67056000D03*
X369189000Y-86106000D03*
G04 #@! TO.N,Net-(RC6-Pad2)*
X324993000Y-32004000D03*
X322199000Y-33147000D03*
G04 #@! TO.N,Net-(RC7-Pad2)*
X327660000Y-32004000D03*
X329692000Y-33147000D03*
G04 #@! TO.N,COL19*
X434721000Y-113665000D03*
G04 #@! TO.N,COL20*
X446913000Y-112903000D03*
G04 #@! TD*
D19*
G04 #@! TO.N,COL13*
X310515000Y-37147500D02*
X310515000Y-51308000D01*
X300990000Y-60833000D02*
X300990000Y-60960000D01*
X310515000Y-51308000D02*
X300990000Y-60833000D01*
X307983750Y-137160000D02*
X309443750Y-135700000D01*
X305752500Y-137160000D02*
X307983750Y-137160000D01*
X311023000Y-118618000D02*
X310515000Y-118110000D01*
X311023000Y-126746000D02*
X311023000Y-118618000D01*
X312166000Y-127889000D02*
X311023000Y-126746000D01*
X312166000Y-130048000D02*
X312166000Y-127889000D01*
X309443750Y-132770250D02*
X312166000Y-130048000D01*
X309443750Y-135700000D02*
X309443750Y-132770250D01*
X293687000Y-59500000D02*
X292775000Y-59500000D01*
X297561000Y-55626000D02*
X293687000Y-59500000D01*
X307062500Y-76938500D02*
X307062500Y-78550000D01*
X301625000Y-71501000D02*
X307062500Y-76938500D01*
X300990000Y-60960000D02*
X301625000Y-61595000D01*
X301625000Y-61595000D02*
X301625000Y-71501000D01*
D20*
G04 #@! TO.N,+5V*
X93091000Y-88519000D02*
X93980000Y-87630000D01*
X98742500Y-106680000D02*
X97409000Y-105346500D01*
X97409000Y-105346500D02*
X97409000Y-100457000D01*
X97409000Y-100457000D02*
X99187000Y-98679000D01*
X99187000Y-98679000D02*
X99187000Y-96774000D01*
X99187000Y-96774000D02*
X93091000Y-90678000D01*
X93091000Y-90678000D02*
X93091000Y-88519000D01*
X74041000Y-88519000D02*
X74930000Y-87630000D01*
X79692500Y-106680000D02*
X78359000Y-105346500D01*
X78359000Y-105346500D02*
X78359000Y-100330000D01*
X78359000Y-100330000D02*
X80137000Y-98552000D01*
X80137000Y-98552000D02*
X80137000Y-96774000D01*
X80137000Y-96774000D02*
X74041000Y-90678000D01*
X74041000Y-90678000D02*
X74041000Y-88519000D01*
X116459000Y-105346500D02*
X116459000Y-100457000D01*
X116459000Y-100457000D02*
X118237000Y-98679000D01*
X112141000Y-88519000D02*
X113030000Y-87630000D01*
X118237000Y-96774000D02*
X112141000Y-90678000D01*
X117792500Y-106680000D02*
X116459000Y-105346500D01*
X118237000Y-98679000D02*
X118237000Y-96774000D01*
X112141000Y-90678000D02*
X112141000Y-88519000D01*
X131191000Y-88519000D02*
X132080000Y-87630000D01*
X135509000Y-105346500D02*
X135509000Y-100457000D01*
X136842500Y-106680000D02*
X135509000Y-105346500D01*
X135509000Y-100457000D02*
X137287000Y-98679000D01*
X137287000Y-98679000D02*
X137287000Y-96774000D01*
X137287000Y-96774000D02*
X131191000Y-90678000D01*
X131191000Y-90678000D02*
X131191000Y-88519000D01*
X150241000Y-88519000D02*
X151130000Y-87630000D01*
X154559000Y-105346500D02*
X154559000Y-100457000D01*
X154559000Y-100457000D02*
X156337000Y-98679000D01*
X156337000Y-98679000D02*
X156337000Y-96774000D01*
X156337000Y-96774000D02*
X150241000Y-90678000D01*
X150241000Y-90678000D02*
X150241000Y-88519000D01*
X155892500Y-106680000D02*
X154559000Y-105346500D01*
X173609000Y-105346500D02*
X174942500Y-106680000D01*
X170180000Y-87630000D02*
X169291000Y-88519000D01*
X169291000Y-90678000D02*
X175387000Y-96774000D01*
X169291000Y-88519000D02*
X169291000Y-90678000D01*
X175387000Y-96774000D02*
X175387000Y-98679000D01*
X175387000Y-98679000D02*
X173609000Y-100457000D01*
X173609000Y-100457000D02*
X173609000Y-105346500D01*
X188341000Y-88519000D02*
X189230000Y-87630000D01*
X192659000Y-105346500D02*
X192659000Y-100457000D01*
X193992500Y-106680000D02*
X192659000Y-105346500D01*
X192659000Y-100457000D02*
X194437000Y-98679000D01*
X194437000Y-98679000D02*
X194437000Y-96774000D01*
X194437000Y-96774000D02*
X188341000Y-90678000D01*
X188341000Y-90678000D02*
X188341000Y-88519000D01*
X207391000Y-88519000D02*
X208280000Y-87630000D01*
X213042500Y-106680000D02*
X211709000Y-105346500D01*
X211709000Y-100457000D02*
X213487000Y-98679000D01*
X213487000Y-98679000D02*
X213487000Y-96774000D01*
X213487000Y-96774000D02*
X207391000Y-90678000D01*
X211709000Y-105346500D02*
X211709000Y-100457000D01*
X207391000Y-90678000D02*
X207391000Y-88519000D01*
X226441000Y-88519000D02*
X227330000Y-87630000D01*
X230759000Y-105346500D02*
X230759000Y-100457000D01*
X232092500Y-106680000D02*
X230759000Y-105346500D01*
X230759000Y-100457000D02*
X232537000Y-98679000D01*
X232537000Y-98679000D02*
X232537000Y-96774000D01*
X232537000Y-96774000D02*
X226441000Y-90678000D01*
X226441000Y-90678000D02*
X226441000Y-88519000D01*
X249809000Y-105346500D02*
X251142500Y-106680000D01*
X249809000Y-100330000D02*
X249809000Y-105346500D01*
X246380000Y-87757000D02*
X245491000Y-88646000D01*
X245491000Y-88646000D02*
X245491000Y-90678000D01*
X245491000Y-90678000D02*
X251587000Y-96774000D01*
X246380000Y-87630000D02*
X246380000Y-87757000D01*
X251587000Y-96774000D02*
X251587000Y-98552000D01*
X251587000Y-98552000D02*
X249809000Y-100330000D01*
X264541000Y-88519000D02*
X265430000Y-87630000D01*
X270192500Y-106680000D02*
X268859000Y-105346500D01*
X268859000Y-105346500D02*
X268859000Y-100330000D01*
X268859000Y-100330000D02*
X270637000Y-98552000D01*
X270637000Y-98552000D02*
X270637000Y-96774000D01*
X270637000Y-96774000D02*
X264541000Y-90678000D01*
X264541000Y-90678000D02*
X264541000Y-88519000D01*
X187833000Y-46164500D02*
X189230000Y-44767500D01*
X178435000Y-67310000D02*
X178435000Y-62357000D01*
X179705000Y-68580000D02*
X178435000Y-67310000D01*
X178435000Y-62357000D02*
X180213000Y-60579000D01*
X180213000Y-60579000D02*
X180213000Y-58674000D01*
X180213000Y-58674000D02*
X187833000Y-51054000D01*
X187833000Y-51054000D02*
X187833000Y-46164500D01*
X159385000Y-67310000D02*
X160655000Y-68580000D01*
X170180000Y-44767500D02*
X168783000Y-46164500D01*
X168783000Y-46164500D02*
X168783000Y-51054000D01*
X168783000Y-51054000D02*
X161163000Y-58674000D01*
X161163000Y-58674000D02*
X161163000Y-60452000D01*
X161163000Y-60452000D02*
X159385000Y-62230000D01*
X159385000Y-62230000D02*
X159385000Y-67310000D01*
X197485000Y-67310000D02*
X198755000Y-68580000D01*
X206883000Y-46164500D02*
X206883000Y-51181000D01*
X199263000Y-58801000D02*
X199263000Y-60452000D01*
X208280000Y-44767500D02*
X206883000Y-46164500D01*
X199263000Y-60452000D02*
X197485000Y-62230000D01*
X206883000Y-51181000D02*
X199263000Y-58801000D01*
X197485000Y-62230000D02*
X197485000Y-67310000D01*
X216535000Y-67310000D02*
X217805000Y-68580000D01*
X225933000Y-46164500D02*
X225933000Y-51054000D01*
X225933000Y-51054000D02*
X218313000Y-58674000D01*
X227330000Y-44767500D02*
X225933000Y-46164500D01*
X218313000Y-58674000D02*
X218313000Y-60452000D01*
X218313000Y-60452000D02*
X216535000Y-62230000D01*
X216535000Y-62230000D02*
X216535000Y-67310000D01*
X140208000Y-46164500D02*
X141605000Y-44767500D01*
X140335000Y-67310000D02*
X140335000Y-62230000D01*
X140335000Y-62230000D02*
X142113000Y-60452000D01*
X142113000Y-60452000D02*
X142113000Y-58674000D01*
X142113000Y-58674000D02*
X140208000Y-56769000D01*
X141605000Y-68580000D02*
X140335000Y-67310000D01*
X140208000Y-56769000D02*
X140208000Y-46164500D01*
X121158000Y-46164500D02*
X122555000Y-44767500D01*
X121285000Y-67310000D02*
X121285000Y-62230000D01*
X122555000Y-68580000D02*
X121285000Y-67310000D01*
X121285000Y-62230000D02*
X123063000Y-60452000D01*
X123063000Y-60452000D02*
X123063000Y-58674000D01*
X123063000Y-58674000D02*
X121158000Y-56769000D01*
X121158000Y-56769000D02*
X121158000Y-46164500D01*
X102235000Y-67310000D02*
X103505000Y-68580000D01*
X103505000Y-44767500D02*
X102108000Y-46164500D01*
X102108000Y-46164500D02*
X102108000Y-56769000D01*
X102108000Y-56769000D02*
X104013000Y-58674000D01*
X104013000Y-60452000D02*
X102235000Y-62230000D01*
X104013000Y-58674000D02*
X104013000Y-60452000D01*
X102235000Y-62230000D02*
X102235000Y-67310000D01*
X83058000Y-46164500D02*
X84455000Y-44767500D01*
X83185000Y-67310000D02*
X83185000Y-62230000D01*
X83185000Y-62230000D02*
X84963000Y-60452000D01*
X84963000Y-60452000D02*
X84963000Y-58674000D01*
X84963000Y-58674000D02*
X83058000Y-56769000D01*
X84455000Y-68580000D02*
X83185000Y-67310000D01*
X83058000Y-56769000D02*
X83058000Y-46164500D01*
X45085000Y-67310000D02*
X45085000Y-62230000D01*
X46355000Y-68580000D02*
X45085000Y-67310000D01*
X46863000Y-60452000D02*
X46863000Y-58547000D01*
X45085000Y-46037500D02*
X46355000Y-44767500D01*
X46863000Y-58547000D02*
X45085000Y-56769000D01*
X45085000Y-62230000D02*
X46863000Y-60452000D01*
X45085000Y-56769000D02*
X45085000Y-46037500D01*
X49784000Y-86296500D02*
X51117500Y-87630000D01*
X46355000Y-68580000D02*
X45085000Y-69850000D01*
X51562000Y-77724000D02*
X51562000Y-79502000D01*
X45085000Y-69850000D02*
X45085000Y-71247000D01*
X51562000Y-79502000D02*
X49784000Y-81280000D01*
X45085000Y-71247000D02*
X51562000Y-77724000D01*
X49784000Y-81280000D02*
X49784000Y-86296500D01*
X51117500Y-87630000D02*
X51054000Y-87630000D01*
X51054000Y-87630000D02*
X49784000Y-88900000D01*
X49784000Y-88900000D02*
X49784000Y-91186000D01*
X49784000Y-91186000D02*
X54356000Y-95758000D01*
X54356000Y-95758000D02*
X54356000Y-97409000D01*
X54356000Y-97409000D02*
X57404000Y-100457000D01*
X57404000Y-100457000D02*
X57404000Y-102743000D01*
X57404000Y-102743000D02*
X55118000Y-105029000D01*
X55118000Y-105029000D02*
X54610000Y-105029000D01*
X53498750Y-106140250D02*
X53498750Y-106680000D01*
X54610000Y-105029000D02*
X53498750Y-106140250D01*
X53498750Y-106680000D02*
X51276250Y-106680000D01*
X47371000Y-124364750D02*
X48736250Y-125730000D01*
X47371000Y-119507000D02*
X47371000Y-124364750D01*
X49276000Y-115951000D02*
X49276000Y-117602000D01*
X49276000Y-117602000D02*
X47371000Y-119507000D01*
X50292000Y-107664250D02*
X51276250Y-106680000D01*
X50292000Y-114935000D02*
X50292000Y-107664250D01*
X50292000Y-114935000D02*
X49276000Y-115951000D01*
X251269500Y-44767500D02*
X255905000Y-44767500D01*
X237363000Y-58674000D02*
X251269500Y-44767500D01*
X237363000Y-60452000D02*
X237363000Y-58674000D01*
X235585000Y-62230000D02*
X237363000Y-60452000D01*
X236855000Y-68580000D02*
X235585000Y-67310000D01*
X235585000Y-67310000D02*
X235585000Y-62230000D01*
X274955000Y-44767500D02*
X270319500Y-44767500D01*
X270319500Y-44767500D02*
X256413000Y-58674000D01*
X256413000Y-58674000D02*
X256413000Y-60452000D01*
X256413000Y-60452000D02*
X254635000Y-62230000D01*
X254635000Y-67310000D02*
X255905000Y-68580000D01*
X254635000Y-62230000D02*
X254635000Y-67310000D01*
X289369500Y-44767500D02*
X294005000Y-44767500D01*
X275463000Y-58674000D02*
X289369500Y-44767500D01*
X275463000Y-60452000D02*
X275463000Y-58674000D01*
X273685000Y-62230000D02*
X275463000Y-60452000D01*
X274955000Y-68580000D02*
X273685000Y-67310000D01*
X273685000Y-67310000D02*
X273685000Y-62230000D01*
X311150000Y-46672500D02*
X313055000Y-44767500D01*
X303530000Y-68580000D02*
X302260000Y-67310000D01*
X302260000Y-62230000D02*
X304038000Y-60452000D01*
X304038000Y-60452000D02*
X304038000Y-58674000D01*
X302260000Y-67310000D02*
X302260000Y-62230000D01*
X304038000Y-58674000D02*
X311150000Y-51562000D01*
X311150000Y-51562000D02*
X311150000Y-46672500D01*
X78359000Y-115062000D02*
X78359000Y-108013500D01*
X78359000Y-108013500D02*
X79692500Y-106680000D01*
X70167500Y-125285500D02*
X71374000Y-124079000D01*
X70167500Y-125730000D02*
X70167500Y-125285500D01*
X71374000Y-124079000D02*
X71882000Y-124079000D01*
X74168000Y-121793000D02*
X74168000Y-119253000D01*
X74168000Y-119253000D02*
X78359000Y-115062000D01*
X241617500Y-125730000D02*
X241554000Y-125730000D01*
X241554000Y-125730000D02*
X240284000Y-127000000D01*
X240284000Y-127000000D02*
X240284000Y-128778000D01*
X240284000Y-128778000D02*
X241427000Y-129921000D01*
X241427000Y-129921000D02*
X241427000Y-132969000D01*
X241427000Y-132969000D02*
X239776000Y-134620000D01*
X239776000Y-134620000D02*
X239776000Y-136525000D01*
X239776000Y-136525000D02*
X237871000Y-138430000D01*
X237871000Y-143414750D02*
X239236250Y-144780000D01*
X237871000Y-138430000D02*
X237871000Y-143414750D01*
X354584000Y-69913500D02*
X355917500Y-68580000D01*
X354584000Y-75946000D02*
X354584000Y-69913500D01*
X355917500Y-87566500D02*
X354584000Y-86233000D01*
X355917500Y-87630000D02*
X355917500Y-87566500D01*
X354584000Y-86233000D02*
X354584000Y-81280000D01*
X354584000Y-81280000D02*
X356362000Y-79502000D01*
X356362000Y-79502000D02*
X356362000Y-77724000D01*
X356362000Y-77724000D02*
X354584000Y-75946000D01*
X355917500Y-68580000D02*
X355854000Y-68580000D01*
X355854000Y-68580000D02*
X354584000Y-67310000D01*
X354584000Y-67310000D02*
X354584000Y-62357000D01*
X354584000Y-62357000D02*
X356362000Y-60579000D01*
X356362000Y-60579000D02*
X356362000Y-58674000D01*
X356362000Y-58674000D02*
X354584000Y-56896000D01*
X354584000Y-46101000D02*
X355917500Y-44767500D01*
X354584000Y-56896000D02*
X354584000Y-46101000D01*
X374967500Y-87630000D02*
X374904000Y-87630000D01*
X374904000Y-87630000D02*
X373634000Y-86360000D01*
X373634000Y-86360000D02*
X373634000Y-81280000D01*
X373634000Y-81280000D02*
X375412000Y-79502000D01*
X375412000Y-79502000D02*
X375412000Y-77724000D01*
X375412000Y-77724000D02*
X373634000Y-75946000D01*
X373634000Y-69913500D02*
X374967500Y-68580000D01*
X373634000Y-75946000D02*
X373634000Y-69913500D01*
X373634000Y-46101000D02*
X374967500Y-44767500D01*
X373634000Y-56896000D02*
X373634000Y-46101000D01*
X374967500Y-68580000D02*
X374904000Y-68580000D01*
X374904000Y-68580000D02*
X373634000Y-67310000D01*
X373634000Y-67310000D02*
X373634000Y-62357000D01*
X373634000Y-62357000D02*
X375412000Y-60579000D01*
X375412000Y-60579000D02*
X375412000Y-58674000D01*
X375412000Y-58674000D02*
X373634000Y-56896000D01*
X336867500Y-87630000D02*
X336804000Y-87630000D01*
X336804000Y-87630000D02*
X335534000Y-86360000D01*
X335534000Y-86360000D02*
X335534000Y-81280000D01*
X335534000Y-81280000D02*
X337312000Y-79502000D01*
X337312000Y-79502000D02*
X337312000Y-77724000D01*
X337312000Y-77724000D02*
X335534000Y-75946000D01*
X335534000Y-69913500D02*
X336867500Y-68580000D01*
X335534000Y-75946000D02*
X335534000Y-69913500D01*
X336867500Y-68580000D02*
X336804000Y-68580000D01*
X336804000Y-68580000D02*
X335534000Y-67310000D01*
X335534000Y-67310000D02*
X335534000Y-62230000D01*
X335534000Y-62230000D02*
X337312000Y-60452000D01*
X337312000Y-60452000D02*
X337312000Y-58674000D01*
X337312000Y-58674000D02*
X335534000Y-56896000D01*
X335534000Y-46101000D02*
X336867500Y-44767500D01*
X335534000Y-56896000D02*
X335534000Y-46101000D01*
X287909000Y-108013500D02*
X289242500Y-106680000D01*
X288417000Y-114808000D02*
X288417000Y-112522000D01*
X287909000Y-112014000D02*
X287909000Y-108013500D01*
X286861250Y-125730000D02*
X286861250Y-125698250D01*
X286861250Y-125698250D02*
X285496000Y-124333000D01*
X285496000Y-124333000D02*
X285496000Y-119507000D01*
X285496000Y-119507000D02*
X287401000Y-117602000D01*
X288417000Y-112522000D02*
X287909000Y-112014000D01*
X287401000Y-117602000D02*
X287401000Y-115824000D01*
X287401000Y-115824000D02*
X288417000Y-114808000D01*
X334391000Y-99822000D02*
X331978000Y-102235000D01*
X335534000Y-99822000D02*
X334391000Y-99822000D01*
X331978000Y-102235000D02*
X331216000Y-102997000D01*
X330073000Y-104140000D02*
X331216000Y-102997000D01*
X330073000Y-108966000D02*
X330073000Y-104140000D01*
X340106000Y-100965000D02*
X340106000Y-100457000D01*
X348234000Y-100584000D02*
X348234000Y-101092000D01*
X340741000Y-99822000D02*
X347472000Y-99822000D01*
X363347000Y-99187000D02*
X363347000Y-99568000D01*
X373745125Y-99822000D02*
X374126125Y-100203000D01*
X363601000Y-99822000D02*
X373745125Y-99822000D01*
X363347000Y-99568000D02*
X363601000Y-99822000D01*
X374126125Y-100203000D02*
X376555000Y-102631875D01*
X348234000Y-100330000D02*
X348234000Y-100584000D01*
X348742000Y-99822000D02*
X348234000Y-100330000D01*
X363347000Y-99568000D02*
X363093000Y-99822000D01*
X363093000Y-99822000D02*
X348742000Y-99822000D01*
X347726000Y-99822000D02*
X348234000Y-100330000D01*
X347472000Y-99822000D02*
X347726000Y-99822000D01*
X340106000Y-100330000D02*
X340106000Y-100457000D01*
X335534000Y-99822000D02*
X339598000Y-99822000D01*
X339598000Y-99822000D02*
X340106000Y-100330000D01*
X340614000Y-99822000D02*
X340106000Y-100330000D01*
X340741000Y-99822000D02*
X340614000Y-99822000D01*
X308292500Y-89376250D02*
X306863750Y-90805000D01*
X308292500Y-87630000D02*
X308292500Y-89376250D01*
X301148750Y-106680000D02*
X301117000Y-106680000D01*
X301117000Y-106680000D02*
X299720000Y-105283000D01*
X299720000Y-105283000D02*
X299720000Y-100457000D01*
X299720000Y-100457000D02*
X303022000Y-97155000D01*
X303022000Y-97155000D02*
X303022000Y-94107000D01*
X306324000Y-90805000D02*
X306863750Y-90805000D01*
X303022000Y-94107000D02*
X306324000Y-90805000D01*
X48736250Y-144780000D02*
X48736250Y-144176750D01*
X48736250Y-144176750D02*
X49784000Y-143129000D01*
X49784000Y-143129000D02*
X52705000Y-143129000D01*
X53657500Y-144081500D02*
X53657500Y-144780000D01*
X52705000Y-143129000D02*
X53657500Y-144081500D01*
X72548750Y-144780000D02*
X72548750Y-144113250D01*
X72548750Y-144113250D02*
X73533000Y-143129000D01*
X73533000Y-143129000D02*
X76454000Y-143129000D01*
X77470000Y-144145000D02*
X77470000Y-144780000D01*
X76454000Y-143129000D02*
X77470000Y-144145000D01*
X96361250Y-144780000D02*
X96361250Y-144176750D01*
X96361250Y-144176750D02*
X97409000Y-143129000D01*
X97409000Y-143129000D02*
X100330000Y-143129000D01*
X101282500Y-144081500D02*
X101282500Y-144780000D01*
X100330000Y-143129000D02*
X101282500Y-144081500D01*
X48736250Y-125126750D02*
X48736250Y-125730000D01*
X49784000Y-124079000D02*
X48736250Y-125126750D01*
X57785000Y-124079000D02*
X49784000Y-124079000D01*
X58261250Y-125730000D02*
X58261250Y-124555250D01*
X58261250Y-124555250D02*
X57785000Y-124079000D01*
X303530000Y-68072000D02*
X303530000Y-68580000D01*
X304673000Y-66929000D02*
X303530000Y-68072000D01*
X313055000Y-68580000D02*
X311404000Y-66929000D01*
X311404000Y-66929000D02*
X304673000Y-66929000D01*
X315976000Y-43053000D02*
X314198000Y-43053000D01*
X323088000Y-43053000D02*
X315976000Y-43053000D01*
X313055000Y-44196000D02*
X314198000Y-43053000D01*
X313055000Y-44767500D02*
X313055000Y-44196000D01*
X84836000Y-124079000D02*
X86487000Y-125730000D01*
X74168000Y-122936000D02*
X73025000Y-124079000D01*
X74168000Y-121793000D02*
X74168000Y-122936000D01*
X71882000Y-124079000D02*
X73025000Y-124079000D01*
X75311000Y-124079000D02*
X74168000Y-122936000D01*
X76708000Y-124079000D02*
X75311000Y-124079000D01*
X76708000Y-124079000D02*
X84836000Y-124079000D01*
X336867500Y-144780000D02*
X336867500Y-143573500D01*
X336867500Y-143573500D02*
X337312000Y-143129000D01*
X354266500Y-141541500D02*
X354203000Y-141478000D01*
X355917500Y-143637000D02*
X355917500Y-144780000D01*
X355409500Y-143129000D02*
X355917500Y-143637000D01*
X354901500Y-143129000D02*
X354266500Y-142494000D01*
X355409500Y-143129000D02*
X354901500Y-143129000D01*
X354266500Y-142494000D02*
X354266500Y-141541500D01*
X353631500Y-143129000D02*
X354266500Y-142494000D01*
X353187000Y-143129000D02*
X353631500Y-143129000D01*
X337312000Y-143129000D02*
X353187000Y-143129000D01*
X355981000Y-143637000D02*
X355917500Y-143637000D01*
X356489000Y-143129000D02*
X355981000Y-143637000D01*
X289401250Y-144780000D02*
X289401250Y-144113250D01*
X289401250Y-144113250D02*
X288417000Y-143129000D01*
X288417000Y-143129000D02*
X285496000Y-143129000D01*
X284480000Y-144145000D02*
X284480000Y-144780000D01*
X285496000Y-143129000D02*
X284480000Y-144145000D01*
X265588750Y-144780000D02*
X265588750Y-144049750D01*
X265588750Y-144049750D02*
X264668000Y-143129000D01*
X264668000Y-143129000D02*
X261620000Y-143129000D01*
X260667500Y-144081500D02*
X260667500Y-144780000D01*
X261620000Y-143129000D02*
X260667500Y-144081500D01*
X260667500Y-125730000D02*
X260667500Y-126047500D01*
X266573000Y-144780000D02*
X265588750Y-144780000D01*
X260667500Y-126174500D02*
X261874000Y-127381000D01*
X260667500Y-125730000D02*
X260667500Y-126174500D01*
X261874000Y-127381000D02*
X262128000Y-127381000D01*
X262128000Y-127381000D02*
X270891000Y-136144000D01*
X270891000Y-136144000D02*
X270891000Y-140462000D01*
X270891000Y-140462000D02*
X266573000Y-144780000D01*
X286861250Y-125730000D02*
X286861250Y-126206250D01*
X286861250Y-126206250D02*
X294767000Y-134112000D01*
X294767000Y-134112000D02*
X294767000Y-140335000D01*
X290322000Y-144780000D02*
X289401250Y-144780000D01*
X294767000Y-140335000D02*
X290322000Y-144780000D01*
X308292500Y-144081500D02*
X308292500Y-144780000D01*
X309245000Y-143129000D02*
X308292500Y-144081500D01*
X312801000Y-143129000D02*
X309245000Y-143129000D01*
X313213750Y-144780000D02*
X313213750Y-143541750D01*
X313213750Y-143541750D02*
X312801000Y-143129000D01*
X313626500Y-143129000D02*
X313213750Y-143541750D01*
X336867500Y-143573500D02*
X336423000Y-143129000D01*
X318516000Y-141986000D02*
X317373000Y-143129000D01*
X318516000Y-136144000D02*
X318516000Y-141986000D01*
X313055000Y-130683000D02*
X318516000Y-136144000D01*
X313055000Y-125730000D02*
X313055000Y-130683000D01*
X317373000Y-143129000D02*
X313626500Y-143129000D01*
X319659000Y-143129000D02*
X318516000Y-141986000D01*
X320167000Y-143129000D02*
X319659000Y-143129000D01*
X336423000Y-143129000D02*
X320167000Y-143129000D01*
X294005000Y-45593000D02*
X294005000Y-44767500D01*
X295021000Y-46609000D02*
X294005000Y-45593000D01*
X298704000Y-45847000D02*
X297942000Y-46609000D01*
X297942000Y-46609000D02*
X295021000Y-46609000D01*
X283337000Y-88773000D02*
X284480000Y-87630000D01*
X283337000Y-102616000D02*
X283337000Y-88773000D01*
X287401000Y-106680000D02*
X283337000Y-102616000D01*
X289242500Y-106680000D02*
X287401000Y-106680000D01*
X308292500Y-87630000D02*
X308292500Y-85153500D01*
X308292500Y-85153500D02*
X306832000Y-83693000D01*
X306832000Y-83693000D02*
X306832000Y-81534000D01*
X306832000Y-81534000D02*
X308864000Y-79502000D01*
X308864000Y-77851000D02*
X308864000Y-77978000D01*
X302260000Y-71247000D02*
X308864000Y-77851000D01*
X302260000Y-69850000D02*
X302260000Y-71247000D01*
X303530000Y-68580000D02*
X302260000Y-69850000D01*
X308864000Y-79502000D02*
X308864000Y-77978000D01*
X58928000Y-126396750D02*
X58261250Y-125730000D01*
X58928000Y-140462000D02*
X58928000Y-126396750D01*
X54610000Y-144780000D02*
X58928000Y-140462000D01*
X53657500Y-144780000D02*
X54610000Y-144780000D01*
X68961000Y-126936500D02*
X70167500Y-125730000D01*
X68961000Y-130175000D02*
X68961000Y-126936500D01*
X78359000Y-144780000D02*
X82804000Y-140335000D01*
X82804000Y-140335000D02*
X82804000Y-136017000D01*
X82804000Y-136017000D02*
X79629000Y-132842000D01*
X79629000Y-132842000D02*
X71628000Y-132842000D01*
X77470000Y-144780000D02*
X78359000Y-144780000D01*
X71628000Y-132842000D02*
X68961000Y-130175000D01*
X108267500Y-125730000D02*
X108267500Y-138747500D01*
X102235000Y-144780000D02*
X101282500Y-144780000D01*
X108267500Y-138747500D02*
X102235000Y-144780000D01*
X184467500Y-125730000D02*
X184467500Y-132905500D01*
X184467500Y-132905500D02*
X187579000Y-136017000D01*
X187579000Y-136017000D02*
X187579000Y-140335000D01*
X187579000Y-140335000D02*
X184785000Y-143129000D01*
X184785000Y-143129000D02*
X180721000Y-143129000D01*
X179705000Y-144145000D02*
X179705000Y-144780000D01*
X179705000Y-144780000D02*
X179705000Y-143510000D01*
X180086000Y-143129000D02*
X179705000Y-143510000D01*
X180721000Y-143129000D02*
X180086000Y-143129000D01*
X167798750Y-143478250D02*
X167798750Y-144780000D01*
X168148000Y-143129000D02*
X167798750Y-143478250D01*
X179705000Y-143510000D02*
X179324000Y-143129000D01*
X179324000Y-143129000D02*
X168148000Y-143129000D01*
X323088000Y-43053000D02*
X330581000Y-43053000D01*
X330581000Y-43053000D02*
X333883000Y-43053000D01*
X333883000Y-43053000D02*
X334010000Y-43180000D01*
X78740000Y-66929000D02*
X80264000Y-68453000D01*
X65786000Y-66929000D02*
X78740000Y-66929000D01*
X65405000Y-68580000D02*
X65405000Y-67310000D01*
X65405000Y-67310000D02*
X65786000Y-66929000D01*
X369570000Y-144780000D02*
X367919000Y-143129000D01*
X374967500Y-144780000D02*
X369570000Y-144780000D01*
X367919000Y-143129000D02*
X356489000Y-143129000D01*
X397510000Y-124460000D02*
X397510000Y-119380000D01*
X397510000Y-107950000D02*
X398780000Y-106680000D01*
X398780000Y-125730000D02*
X397510000Y-124460000D01*
X397510000Y-119380000D02*
X399288000Y-117602000D01*
X399288000Y-117602000D02*
X399288000Y-115951000D01*
X399288000Y-115951000D02*
X397510000Y-114173000D01*
X397510000Y-114173000D02*
X397510000Y-107950000D01*
X397510000Y-105410000D02*
X397510000Y-100330000D01*
X398780000Y-106680000D02*
X397510000Y-105410000D01*
X397510000Y-100330000D02*
X399288000Y-98552000D01*
X397510000Y-88900000D02*
X398780000Y-87630000D01*
X399288000Y-98552000D02*
X399288000Y-96901000D01*
X399288000Y-96901000D02*
X397510000Y-95123000D01*
X397510000Y-95123000D02*
X397510000Y-88900000D01*
X397510000Y-69850000D02*
X398780000Y-68580000D01*
X397510000Y-86360000D02*
X397510000Y-81280000D01*
X398780000Y-87630000D02*
X397510000Y-86360000D01*
X397510000Y-81280000D02*
X399288000Y-79502000D01*
X399288000Y-79502000D02*
X399288000Y-77724000D01*
X399288000Y-77724000D02*
X397510000Y-75946000D01*
X397510000Y-75946000D02*
X397510000Y-69850000D01*
X397510000Y-46037500D02*
X398780000Y-44767500D01*
X397510000Y-67310000D02*
X397510000Y-62230000D01*
X397510000Y-62230000D02*
X399288000Y-60452000D01*
X399288000Y-60452000D02*
X399288000Y-58674000D01*
X399288000Y-58674000D02*
X397510000Y-56896000D01*
X398780000Y-68580000D02*
X397510000Y-67310000D01*
X397510000Y-56896000D02*
X397510000Y-46037500D01*
X417830000Y-125730000D02*
X416560000Y-127000000D01*
X416560000Y-127000000D02*
X416560000Y-133096000D01*
X416560000Y-143510000D02*
X417830000Y-144780000D01*
X416560000Y-133096000D02*
X418338000Y-134874000D01*
X418338000Y-134874000D02*
X418338000Y-136652000D01*
X418338000Y-136652000D02*
X416560000Y-138430000D01*
X416560000Y-107950000D02*
X417830000Y-106680000D01*
X416560000Y-124460000D02*
X416560000Y-119380000D01*
X417830000Y-125730000D02*
X416560000Y-124460000D01*
X416560000Y-119380000D02*
X418338000Y-117602000D01*
X418338000Y-117602000D02*
X418338000Y-115824000D01*
X418338000Y-115824000D02*
X416560000Y-114046000D01*
X416560000Y-114046000D02*
X416560000Y-107950000D01*
X416560000Y-88900000D02*
X417830000Y-87630000D01*
X416560000Y-105410000D02*
X416560000Y-100330000D01*
X417830000Y-106680000D02*
X416560000Y-105410000D01*
X416560000Y-100330000D02*
X418338000Y-98552000D01*
X418338000Y-98552000D02*
X418338000Y-96901000D01*
X418338000Y-96901000D02*
X416560000Y-95123000D01*
X416560000Y-95123000D02*
X416560000Y-88900000D01*
X416560000Y-86360000D02*
X417830000Y-87630000D01*
X417830000Y-68580000D02*
X416560000Y-69850000D01*
X416560000Y-69850000D02*
X416560000Y-75946000D01*
X416560000Y-75946000D02*
X418338000Y-77724000D01*
X418338000Y-77724000D02*
X418338000Y-79502000D01*
X418338000Y-79502000D02*
X416560000Y-81280000D01*
X416560000Y-81280000D02*
X416560000Y-86360000D01*
X416560000Y-67310000D02*
X416560000Y-62230000D01*
X416560000Y-46037500D02*
X417830000Y-44767500D01*
X417830000Y-68580000D02*
X416560000Y-67310000D01*
X416560000Y-62230000D02*
X418338000Y-60452000D01*
X418338000Y-60452000D02*
X418338000Y-58674000D01*
X418338000Y-58674000D02*
X416560000Y-56896000D01*
X416560000Y-56896000D02*
X416560000Y-46037500D01*
X435610000Y-127000000D02*
X436880000Y-125730000D01*
X435610000Y-143510000D02*
X435610000Y-138430000D01*
X435610000Y-138430000D02*
X437388000Y-136652000D01*
X437388000Y-136652000D02*
X437388000Y-135001000D01*
X436880000Y-144780000D02*
X435610000Y-143510000D01*
X437388000Y-135001000D02*
X435610000Y-133223000D01*
X435610000Y-133223000D02*
X435610000Y-127000000D01*
X435610000Y-107950000D02*
X436880000Y-106680000D01*
X435610000Y-124460000D02*
X435610000Y-119380000D01*
X436880000Y-125730000D02*
X435610000Y-124460000D01*
X437388000Y-117602000D02*
X437388000Y-115824000D01*
X437388000Y-115824000D02*
X435610000Y-114046000D01*
X435610000Y-119380000D02*
X437388000Y-117602000D01*
X435610000Y-114046000D02*
X435610000Y-107950000D01*
X435610000Y-88900000D02*
X436880000Y-87630000D01*
X436880000Y-106680000D02*
X435610000Y-105410000D01*
X435610000Y-100330000D02*
X437388000Y-98552000D01*
X435610000Y-105410000D02*
X435610000Y-100330000D01*
X437388000Y-98552000D02*
X437388000Y-96774000D01*
X437388000Y-96774000D02*
X435610000Y-94996000D01*
X435610000Y-94996000D02*
X435610000Y-88900000D01*
X435610000Y-69850000D02*
X436880000Y-68580000D01*
X435610000Y-86360000D02*
X435610000Y-81280000D01*
X436880000Y-87630000D02*
X435610000Y-86360000D01*
X435610000Y-81280000D02*
X437388000Y-79502000D01*
X437388000Y-79502000D02*
X437388000Y-77724000D01*
X437388000Y-77724000D02*
X435610000Y-75946000D01*
X435610000Y-75946000D02*
X435610000Y-69850000D01*
X436245000Y-67945000D02*
X436880000Y-68580000D01*
X435610000Y-67310000D02*
X436245000Y-67945000D01*
X436880000Y-44767500D02*
X435610000Y-46037500D01*
X435610000Y-46037500D02*
X435610000Y-57023000D01*
X435610000Y-57023000D02*
X437388000Y-58801000D01*
X437388000Y-58801000D02*
X437388000Y-60452000D01*
X437388000Y-60452000D02*
X435610000Y-62230000D01*
X435610000Y-62230000D02*
X435610000Y-67310000D01*
X455930000Y-44767500D02*
X455866500Y-44767500D01*
X455866500Y-44767500D02*
X454660000Y-45974000D01*
X454660000Y-45974000D02*
X454660000Y-56896000D01*
X454660000Y-56896000D02*
X456438000Y-58674000D01*
X456438000Y-58674000D02*
X456438000Y-60452000D01*
X456438000Y-60452000D02*
X454660000Y-62230000D01*
X454660000Y-67310000D02*
X455930000Y-68580000D01*
X454660000Y-62230000D02*
X454660000Y-67310000D01*
X454660000Y-86360000D02*
X455930000Y-87630000D01*
X454660000Y-69850000D02*
X454660000Y-75946000D01*
X455930000Y-68580000D02*
X454660000Y-69850000D01*
X454660000Y-75946000D02*
X456438000Y-77724000D01*
X456438000Y-77724000D02*
X456438000Y-79502000D01*
X456438000Y-79502000D02*
X454660000Y-81280000D01*
X454660000Y-81280000D02*
X454660000Y-86360000D01*
X455930000Y-87630000D02*
X455930000Y-88138000D01*
X455930000Y-88138000D02*
X457073000Y-89281000D01*
X457073000Y-89281000D02*
X458216000Y-89281000D01*
X458216000Y-89281000D02*
X460629000Y-91694000D01*
X460629000Y-91694000D02*
X460629000Y-92202000D01*
X461772000Y-93345000D02*
X462280000Y-93345000D01*
X460629000Y-92202000D02*
X461772000Y-93345000D01*
X455930000Y-106172000D02*
X455930000Y-106680000D01*
X457073000Y-105029000D02*
X455930000Y-106172000D01*
X463169000Y-94234000D02*
X463169000Y-96266000D01*
X462280000Y-93345000D02*
X463169000Y-94234000D01*
X463169000Y-96266000D02*
X459867000Y-99568000D01*
X459867000Y-99568000D02*
X459867000Y-102743000D01*
X459867000Y-102743000D02*
X457581000Y-105029000D01*
X457581000Y-105029000D02*
X457073000Y-105029000D01*
X455930000Y-106680000D02*
X454660000Y-107950000D01*
X454660000Y-107950000D02*
X454660000Y-114046000D01*
X454660000Y-114046000D02*
X456438000Y-115824000D01*
X454660000Y-124460000D02*
X455930000Y-125730000D01*
X456438000Y-115824000D02*
X456438000Y-117602000D01*
X456438000Y-117602000D02*
X454660000Y-119380000D01*
X454660000Y-119380000D02*
X454660000Y-124460000D01*
X455930000Y-125730000D02*
X455930000Y-126238000D01*
X455930000Y-126238000D02*
X457073000Y-127381000D01*
X457073000Y-127381000D02*
X458216000Y-127381000D01*
X458216000Y-127381000D02*
X460629000Y-129794000D01*
X460629000Y-129794000D02*
X460629000Y-130302000D01*
X461772000Y-131445000D02*
X462280000Y-131445000D01*
X460629000Y-130302000D02*
X461772000Y-131445000D01*
X463169000Y-132334000D02*
X462280000Y-131445000D01*
X463169000Y-134239000D02*
X463169000Y-132334000D01*
X455930000Y-144272000D02*
X457073000Y-143129000D01*
X457073000Y-143129000D02*
X457581000Y-143129000D01*
X457581000Y-143129000D02*
X459867000Y-140843000D01*
X459867000Y-140843000D02*
X459867000Y-137541000D01*
X455930000Y-144780000D02*
X455930000Y-144272000D01*
X459867000Y-137541000D02*
X463169000Y-134239000D01*
X398780000Y-127381000D02*
X398780000Y-125730000D01*
X398780000Y-128016000D02*
X398780000Y-127381000D01*
X400812000Y-130048000D02*
X398780000Y-128016000D01*
X397510000Y-143510000D02*
X397510000Y-138430000D01*
X398780000Y-144780000D02*
X397510000Y-143510000D01*
X397510000Y-138430000D02*
X399288000Y-136652000D01*
X399288000Y-136652000D02*
X399288000Y-134366000D01*
X399288000Y-134366000D02*
X400812000Y-132842000D01*
X400812000Y-132842000D02*
X400812000Y-130048000D01*
X408305000Y-144780000D02*
X408305000Y-144272000D01*
X408305000Y-144272000D02*
X409448000Y-143129000D01*
X416179000Y-143129000D02*
X416560000Y-143510000D01*
X409448000Y-143129000D02*
X416179000Y-143129000D01*
X416560000Y-142748000D02*
X416179000Y-143129000D01*
X416560000Y-142367000D02*
X416560000Y-142748000D01*
X416560000Y-138430000D02*
X416560000Y-142367000D01*
D19*
G04 #@! TO.N,COL12*
X272415000Y-60960000D02*
X272415000Y-60833000D01*
X272415000Y-60833000D02*
X291973000Y-41275000D01*
X291973000Y-37655500D02*
X291465000Y-37147500D01*
X291973000Y-41275000D02*
X291973000Y-37655500D01*
X273050000Y-61595000D02*
X272415000Y-60960000D01*
X273050000Y-67310000D02*
X273050000Y-61595000D01*
X270764000Y-69596000D02*
X273050000Y-67310000D01*
X283083000Y-136017000D02*
X281940000Y-137160000D01*
X283083000Y-127762000D02*
X283083000Y-136017000D01*
X284861000Y-125984000D02*
X283083000Y-127762000D01*
X284321250Y-118110000D02*
X284861000Y-118649750D01*
X284861000Y-118649750D02*
X284861000Y-125984000D01*
X284321250Y-118110000D02*
X284321250Y-118014750D01*
X284321250Y-118014750D02*
X287782000Y-114554000D01*
X287782000Y-114554000D02*
X287782000Y-112776000D01*
X282702000Y-80772000D02*
X281940000Y-80010000D01*
X282702000Y-102870000D02*
X282702000Y-80772000D01*
X287782000Y-112776000D02*
X287274000Y-112268000D01*
X287274000Y-112268000D02*
X287274000Y-107442000D01*
X287274000Y-107442000D02*
X282702000Y-102870000D01*
X310515000Y-60960000D02*
X310515000Y-61341000D01*
X310515000Y-61341000D02*
X311658000Y-62484000D01*
X311658000Y-62484000D02*
X311658000Y-64643000D01*
X311658000Y-64643000D02*
X313944000Y-66929000D01*
X313944000Y-66929000D02*
X316992000Y-66929000D01*
X316992000Y-66929000D02*
X319405000Y-69342000D01*
X319405000Y-69342000D02*
X319405000Y-73787000D01*
D20*
G04 #@! TO.N,GND*
X335534000Y-98298000D02*
X341122000Y-98298000D01*
X333629000Y-98298000D02*
X335534000Y-98298000D01*
X328549000Y-103378000D02*
X333629000Y-98298000D01*
X328549000Y-109982000D02*
X328549000Y-109474000D01*
X326898000Y-111633000D02*
X328549000Y-109982000D01*
X328549000Y-109474000D02*
X328549000Y-103378000D01*
X339090000Y-119126000D02*
X334518000Y-119126000D01*
D19*
X377825000Y-106441875D02*
X376555000Y-107711875D01*
X377825000Y-101727000D02*
X377825000Y-106441875D01*
X377698000Y-101600000D02*
X377825000Y-101727000D01*
D20*
X377190000Y-101092000D02*
X377698000Y-101600000D01*
X374396000Y-98298000D02*
X377190000Y-101092000D01*
X341122000Y-98298000D02*
X374396000Y-98298000D01*
D19*
G04 #@! TO.N,COL0*
X44450000Y-37782500D02*
X43815000Y-37147500D01*
X43815000Y-60960000D02*
X44450000Y-60325000D01*
X44450000Y-60325000D02*
X44450000Y-37782500D01*
X44450000Y-61595000D02*
X43815000Y-60960000D01*
X44450000Y-71501000D02*
X44450000Y-61595000D01*
X49887500Y-76938500D02*
X44450000Y-71501000D01*
X49887500Y-78550000D02*
X49887500Y-76938500D01*
X52506250Y-94797250D02*
X52506250Y-97100000D01*
X49149000Y-91440000D02*
X52506250Y-94797250D01*
X48577500Y-80010000D02*
X49149000Y-80581500D01*
X49149000Y-80581500D02*
X49149000Y-91440000D01*
X48895000Y-99060000D02*
X50958750Y-99060000D01*
X46196250Y-118110000D02*
X46228000Y-118110000D01*
X46228000Y-118110000D02*
X49657000Y-114681000D01*
X49657000Y-114681000D02*
X49657000Y-110490000D01*
X49657000Y-110490000D02*
X47244000Y-108077000D01*
X47244000Y-108077000D02*
X47244000Y-100711000D01*
X47244000Y-100711000D02*
X48895000Y-99060000D01*
X46196250Y-118110000D02*
X46196250Y-118840250D01*
X46196250Y-118840250D02*
X46736000Y-119380000D01*
X46736000Y-119380000D02*
X46736000Y-126111000D01*
X46736000Y-126111000D02*
X45085000Y-127762000D01*
X45085000Y-127762000D02*
X45085000Y-130048000D01*
X45085000Y-130048000D02*
X46736000Y-131699000D01*
X46736000Y-136620250D02*
X46196250Y-137160000D01*
X46736000Y-131699000D02*
X46736000Y-136620250D01*
X46196250Y-137160000D02*
X48577500Y-137160000D01*
G04 #@! TO.N,ROW0*
X324358000Y-113919000D02*
X343281000Y-113919000D01*
X316230000Y-105791000D02*
X324358000Y-113919000D01*
X297815000Y-108204000D02*
X310007000Y-108204000D01*
X294132000Y-104521000D02*
X297815000Y-108204000D01*
X310007000Y-108204000D02*
X312420000Y-105791000D01*
X294132000Y-99949000D02*
X294132000Y-104521000D01*
X299720000Y-41910000D02*
X299466000Y-42164000D01*
X299466000Y-42164000D02*
X299466000Y-59817000D01*
X343281000Y-113919000D02*
X343535000Y-114173000D01*
X295656000Y-98425000D02*
X294132000Y-99949000D01*
X299466000Y-59817000D02*
X298196000Y-61087000D01*
X298196000Y-61087000D02*
X298196000Y-75184000D01*
X312420000Y-105791000D02*
X316230000Y-105791000D01*
X298196000Y-75184000D02*
X295656000Y-77724000D01*
X295656000Y-77724000D02*
X295656000Y-98425000D01*
X319659000Y-42291000D02*
X319405000Y-42037000D01*
X333756000Y-42291000D02*
X334010000Y-42037000D01*
X333756000Y-42291000D02*
X319659000Y-42291000D01*
G04 #@! TO.N,ROW4*
X328422000Y-115951000D02*
X323596000Y-120777000D01*
X340995000Y-116205000D02*
X340741000Y-115951000D01*
X340741000Y-115951000D02*
X328422000Y-115951000D01*
X348107000Y-123317000D02*
X340995000Y-116205000D01*
X355092000Y-123317000D02*
X348107000Y-123317000D01*
G04 #@! TO.N,ROW1*
X293624000Y-99695000D02*
X295148000Y-98171000D01*
X293624000Y-104775000D02*
X293624000Y-99695000D01*
X297561000Y-108712000D02*
X293624000Y-104775000D01*
X310261000Y-108712000D02*
X297561000Y-108712000D01*
X324104000Y-114427000D02*
X315976000Y-106299000D01*
X315976000Y-106299000D02*
X312674000Y-106299000D01*
X312674000Y-106299000D02*
X310261000Y-108712000D01*
X342900000Y-114681000D02*
X342646000Y-114427000D01*
X342646000Y-114427000D02*
X324104000Y-114427000D01*
X295148000Y-78613000D02*
X295148000Y-77724000D01*
X295148000Y-98171000D02*
X295148000Y-78613000D01*
X290322000Y-72898000D02*
X290322000Y-66675000D01*
X290322000Y-66675000D02*
X289941000Y-66294000D01*
X334010000Y-66167000D02*
X332867000Y-66167000D01*
X332867000Y-66167000D02*
X320040000Y-66167000D01*
X295148000Y-77724000D02*
X293370000Y-75946000D01*
X292481000Y-75438000D02*
X292862000Y-75438000D01*
X293370000Y-75946000D02*
X292862000Y-75438000D01*
X292862000Y-75438000D02*
X290322000Y-72898000D01*
G04 #@! TO.N,ROW3*
X328422000Y-115443000D02*
X323596000Y-115443000D01*
X323596000Y-115443000D02*
X315468000Y-107315000D01*
X315468000Y-107315000D02*
X313182000Y-107315000D01*
X297307000Y-109728000D02*
X297053000Y-109982000D01*
X310769000Y-109728000D02*
X297307000Y-109728000D01*
X313182000Y-107315000D02*
X310769000Y-109728000D01*
X341630000Y-115697000D02*
X341376000Y-115443000D01*
X341376000Y-115443000D02*
X328422000Y-115443000D01*
X288163000Y-74676000D02*
X288163000Y-71374000D01*
X286639000Y-76200000D02*
X288163000Y-74676000D01*
X287401000Y-70612000D02*
X287401000Y-64770000D01*
X280924000Y-101219000D02*
X282194000Y-99949000D01*
X282194000Y-99949000D02*
X282194000Y-86106000D01*
X282194000Y-86106000D02*
X279273000Y-83185000D01*
X288163000Y-71374000D02*
X287401000Y-70612000D01*
X279273000Y-83185000D02*
X279273000Y-80137000D01*
X279273000Y-80137000D02*
X283210000Y-76200000D01*
X283210000Y-76200000D02*
X286639000Y-76200000D01*
X354203000Y-112649000D02*
X354203000Y-112395000D01*
X350901000Y-115951000D02*
X354203000Y-112649000D01*
X341630000Y-115697000D02*
X341884000Y-115951000D01*
X341884000Y-115951000D02*
X350901000Y-115951000D01*
G04 #@! TO.N,ROW2*
X315722000Y-106807000D02*
X323850000Y-114935000D01*
X312928000Y-106807000D02*
X315722000Y-106807000D01*
X310515000Y-109220000D02*
X312928000Y-106807000D01*
X293751000Y-81534000D02*
X294640000Y-82423000D01*
X294640000Y-82423000D02*
X294640000Y-97917000D01*
X294640000Y-97917000D02*
X293116000Y-99441000D01*
X293116000Y-99441000D02*
X293116000Y-105029000D01*
X293116000Y-105029000D02*
X297307000Y-109220000D01*
X297307000Y-109220000D02*
X310515000Y-109220000D01*
X342265000Y-115189000D02*
X342011000Y-114935000D01*
X323850000Y-114935000D02*
X342011000Y-114935000D01*
X334010000Y-85217000D02*
X314579000Y-85217000D01*
G04 #@! TO.N,Net-(D48-Pad2)*
X293012500Y-97100000D02*
X293012500Y-96496500D01*
X293012500Y-96496500D02*
X294132000Y-95377000D01*
X294132000Y-95377000D02*
X294132000Y-82931000D01*
X294132000Y-82931000D02*
X293116000Y-81915000D01*
X293116000Y-81915000D02*
X293116000Y-78613000D01*
X293116000Y-78613000D02*
X293751000Y-77978000D01*
G04 #@! TO.N,Net-(D65-Pad2)*
X309443750Y-96575000D02*
X309443750Y-90987250D01*
X309443750Y-90987250D02*
X310896000Y-89535000D01*
X313213750Y-89535000D02*
X314483750Y-88265000D01*
X310896000Y-89535000D02*
X313213750Y-89535000D01*
G04 #@! TO.N,Net-(D81-Pad2)*
X290091250Y-135200000D02*
X290671250Y-134620000D01*
X288250000Y-135200000D02*
X290091250Y-135200000D01*
G04 #@! TO.N,Net-(D82-Pad2)*
X313903750Y-135200000D02*
X314483750Y-134620000D01*
X312062500Y-135200000D02*
X313903750Y-135200000D01*
D20*
G04 #@! TO.N,VCC*
X327660000Y-32893000D02*
X325247000Y-32893000D01*
X325247000Y-32893000D02*
X324231000Y-32893000D01*
D19*
G04 #@! TO.N,COL2*
X92456000Y-81026000D02*
X91440000Y-80010000D01*
X92456000Y-90932000D02*
X92456000Y-81026000D01*
X97512500Y-97600000D02*
X97512500Y-95988500D01*
X97512500Y-95988500D02*
X92456000Y-90932000D01*
X96774000Y-99631500D02*
X96202500Y-99060000D01*
X94488000Y-107696000D02*
X96774000Y-105410000D01*
X96774000Y-105410000D02*
X96774000Y-99631500D01*
X81915000Y-37147500D02*
X81915000Y-37211000D01*
X81915000Y-37211000D02*
X82423000Y-37719000D01*
X82423000Y-60452000D02*
X81915000Y-60960000D01*
X82423000Y-37719000D02*
X82423000Y-60452000D01*
X82550000Y-61595000D02*
X81915000Y-60960000D01*
X82550000Y-67310000D02*
X82550000Y-61595000D01*
X80264000Y-69596000D02*
X82550000Y-67310000D01*
X87249000Y-118681500D02*
X86677500Y-118110000D01*
X87249000Y-125984000D02*
X87249000Y-118681500D01*
X93821250Y-137160000D02*
X93821250Y-132556250D01*
X93821250Y-132556250D02*
X87249000Y-125984000D01*
X93821250Y-137160000D02*
X96202500Y-137160000D01*
G04 #@! TO.N,COL1*
X68580000Y-76200000D02*
X72390000Y-80010000D01*
X65786000Y-76200000D02*
X68580000Y-76200000D01*
X78462500Y-95988500D02*
X78462500Y-97600000D01*
X73406000Y-81026000D02*
X72390000Y-80010000D01*
X73406000Y-90932000D02*
X73406000Y-81026000D01*
X73406000Y-90932000D02*
X78462500Y-95988500D01*
X64262000Y-74676000D02*
X64262000Y-71628000D01*
X64262000Y-74676000D02*
X65786000Y-76200000D01*
X64262000Y-71628000D02*
X63246000Y-70612000D01*
X63246000Y-61341000D02*
X62865000Y-60960000D01*
X63246000Y-70612000D02*
X63246000Y-61341000D01*
X77724000Y-99631500D02*
X77152500Y-99060000D01*
X77724000Y-114808000D02*
X77724000Y-99631500D01*
X74422000Y-118110000D02*
X77724000Y-114808000D01*
X67627500Y-118110000D02*
X74422000Y-118110000D01*
X68326000Y-118808500D02*
X67627500Y-118110000D01*
X70008750Y-137160000D02*
X68326000Y-135477250D01*
X68326000Y-135477250D02*
X68326000Y-118808500D01*
X70008750Y-137160000D02*
X72390000Y-137160000D01*
G04 #@! TO.N,COL10*
X236474000Y-70358000D02*
X286385000Y-70358000D01*
X286385000Y-70358000D02*
X287655000Y-71628000D01*
X287655000Y-71628000D02*
X287655000Y-74422000D01*
X287655000Y-74422000D02*
X286385000Y-75692000D01*
X248008000Y-75692000D02*
X245150000Y-78550000D01*
X286385000Y-75692000D02*
X248008000Y-75692000D01*
X249912500Y-95988500D02*
X249912500Y-97600000D01*
X244856000Y-81026000D02*
X243840000Y-80010000D01*
X244856000Y-90932000D02*
X244856000Y-81026000D01*
X244856000Y-90932000D02*
X249912500Y-95988500D01*
X249174000Y-99631500D02*
X248602500Y-99060000D01*
X249174000Y-105410000D02*
X249174000Y-99631500D01*
X246888000Y-107696000D02*
X249174000Y-105410000D01*
X253365000Y-37147500D02*
X253365000Y-37465000D01*
X253365000Y-37465000D02*
X253873000Y-37973000D01*
X253873000Y-37973000D02*
X253873000Y-41275000D01*
X235648000Y-59500000D02*
X235625000Y-59500000D01*
X253873000Y-41275000D02*
X235648000Y-59500000D01*
X234950000Y-61595000D02*
X234315000Y-60960000D01*
X234950000Y-68834000D02*
X234950000Y-61595000D01*
X234950000Y-68834000D02*
X236474000Y-70358000D01*
X239649000Y-118681500D02*
X239077500Y-118110000D01*
X239649000Y-129032000D02*
X239649000Y-118681500D01*
X240792000Y-130175000D02*
X239649000Y-129032000D01*
X240792000Y-132715000D02*
X240792000Y-130175000D01*
X238006250Y-135500750D02*
X240792000Y-132715000D01*
X238006250Y-135700000D02*
X238006250Y-135500750D01*
G04 #@! TO.N,COL9*
X217932000Y-70866000D02*
X286131000Y-70866000D01*
X286131000Y-70866000D02*
X287147000Y-71882000D01*
X287147000Y-71882000D02*
X287147000Y-74168000D01*
X287147000Y-74168000D02*
X286131000Y-75184000D01*
X229466000Y-75184000D02*
X226100000Y-78550000D01*
X286131000Y-75184000D02*
X229466000Y-75184000D01*
X230862500Y-95988500D02*
X230862500Y-97600000D01*
X225806000Y-81026000D02*
X224790000Y-80010000D01*
X225806000Y-90932000D02*
X225806000Y-81026000D01*
X225806000Y-90932000D02*
X230862500Y-95988500D01*
X231648000Y-108458000D02*
X272161000Y-108458000D01*
X272161000Y-108458000D02*
X273431000Y-109728000D01*
X273431000Y-109728000D02*
X273431000Y-112649000D01*
X273431000Y-112649000D02*
X272288000Y-113792000D01*
X224195500Y-113792000D02*
X221337500Y-116650000D01*
X272288000Y-113792000D02*
X224195500Y-113792000D01*
X230124000Y-99631500D02*
X229552500Y-99060000D01*
X230124000Y-106934000D02*
X230124000Y-99631500D01*
X230124000Y-106934000D02*
X231648000Y-108458000D01*
X215265000Y-60960000D02*
X215265000Y-60833000D01*
X215265000Y-60833000D02*
X225298000Y-50800000D01*
X225298000Y-37655500D02*
X224790000Y-37147500D01*
X225298000Y-50800000D02*
X225298000Y-37655500D01*
X215900000Y-61595000D02*
X215265000Y-60960000D01*
X215900000Y-68834000D02*
X215900000Y-61595000D01*
X215900000Y-68834000D02*
X217932000Y-70866000D01*
G04 #@! TO.N,COL3*
X116562500Y-95988500D02*
X116562500Y-97600000D01*
X111506000Y-81026000D02*
X110490000Y-80010000D01*
X111506000Y-90932000D02*
X111506000Y-81026000D01*
X111506000Y-90932000D02*
X116562500Y-95988500D01*
X115824000Y-99631500D02*
X115252500Y-99060000D01*
X113538000Y-107696000D02*
X115824000Y-105410000D01*
X115824000Y-105410000D02*
X115824000Y-99631500D01*
X101473000Y-37655500D02*
X100965000Y-37147500D01*
X100965000Y-60960000D02*
X101473000Y-60452000D01*
X101473000Y-60452000D02*
X101473000Y-37655500D01*
X101600000Y-61595000D02*
X100965000Y-60960000D01*
X101600000Y-67310000D02*
X101600000Y-61595000D01*
X99314000Y-69596000D02*
X101600000Y-67310000D01*
G04 #@! TO.N,COL4*
X130556000Y-81026000D02*
X129540000Y-80010000D01*
X130556000Y-90932000D02*
X130556000Y-81026000D01*
X135612500Y-97600000D02*
X135612500Y-95988500D01*
X135612500Y-95988500D02*
X130556000Y-90932000D01*
X134874000Y-99631500D02*
X134302500Y-99060000D01*
X134874000Y-105410000D02*
X134874000Y-99631500D01*
X131826000Y-108458000D02*
X134874000Y-105410000D01*
X120459500Y-113792000D02*
X80264000Y-113792000D01*
X80264000Y-113792000D02*
X79121000Y-112649000D01*
X124777500Y-118110000D02*
X120459500Y-113792000D01*
X79121000Y-112649000D02*
X79121000Y-109601000D01*
X79121000Y-109601000D02*
X80264000Y-108458000D01*
X80264000Y-108458000D02*
X131826000Y-108458000D01*
X120523000Y-37655500D02*
X120015000Y-37147500D01*
X120015000Y-60960000D02*
X120523000Y-60452000D01*
X120523000Y-60452000D02*
X120523000Y-37655500D01*
X120650000Y-61595000D02*
X120015000Y-60960000D01*
X120650000Y-67310000D02*
X120650000Y-61595000D01*
X118364000Y-69596000D02*
X120650000Y-67310000D01*
G04 #@! TO.N,COL5*
X154662500Y-96115500D02*
X154662500Y-97600000D01*
X149606000Y-81026000D02*
X148590000Y-80010000D01*
X149606000Y-91059000D02*
X149606000Y-81026000D01*
X149606000Y-91059000D02*
X154662500Y-96115500D01*
X153924000Y-99631500D02*
X153352500Y-99060000D01*
X153924000Y-105410000D02*
X153924000Y-99631500D01*
X150368000Y-108966000D02*
X153924000Y-105410000D01*
X139001500Y-113284000D02*
X80518000Y-113284000D01*
X143827500Y-118110000D02*
X139001500Y-113284000D01*
X80518000Y-113284000D02*
X79629000Y-112395000D01*
X79629000Y-112395000D02*
X79629000Y-109855000D01*
X79629000Y-109855000D02*
X80518000Y-108966000D01*
X80518000Y-108966000D02*
X150368000Y-108966000D01*
X139065000Y-37147500D02*
X139065000Y-37846000D01*
X139065000Y-37846000D02*
X139573000Y-38354000D01*
X139573000Y-58698000D02*
X140375000Y-59500000D01*
X139573000Y-38354000D02*
X139573000Y-58698000D01*
X139700000Y-67437000D02*
X139700000Y-61595000D01*
X136779000Y-70358000D02*
X139700000Y-67437000D01*
X148590000Y-80010000D02*
X144272000Y-75692000D01*
X144272000Y-75692000D02*
X66040000Y-75692000D01*
X66040000Y-75692000D02*
X64770000Y-74422000D01*
X64770000Y-74422000D02*
X64770000Y-71628000D01*
X64770000Y-71628000D02*
X66040000Y-70358000D01*
X139700000Y-61595000D02*
X139065000Y-60960000D01*
X66040000Y-70358000D02*
X136779000Y-70358000D01*
G04 #@! TO.N,COL6*
X173712500Y-95988500D02*
X173712500Y-97600000D01*
X168656000Y-81026000D02*
X167640000Y-80010000D01*
X168656000Y-90932000D02*
X168656000Y-81026000D01*
X168656000Y-90932000D02*
X173712500Y-95988500D01*
X172974000Y-99631500D02*
X172402500Y-99060000D01*
X172974000Y-105283000D02*
X172974000Y-99631500D01*
X168783000Y-109474000D02*
X172974000Y-105283000D01*
X157543500Y-112776000D02*
X80772000Y-112776000D01*
X162877500Y-118110000D02*
X157543500Y-112776000D01*
X80772000Y-112776000D02*
X80137000Y-112141000D01*
X80137000Y-112141000D02*
X80137000Y-110109000D01*
X80137000Y-110109000D02*
X80772000Y-109474000D01*
X80772000Y-109474000D02*
X168783000Y-109474000D01*
X167640000Y-37147500D02*
X167640000Y-37211000D01*
X167640000Y-37211000D02*
X168148000Y-37719000D01*
X168148000Y-50777000D02*
X159425000Y-59500000D01*
X168148000Y-49530000D02*
X168148000Y-50777000D01*
X168148000Y-37719000D02*
X168148000Y-49530000D01*
X155194000Y-70866000D02*
X158750000Y-67310000D01*
X158750000Y-67310000D02*
X158750000Y-61595000D01*
X162814000Y-75184000D02*
X66294000Y-75184000D01*
X167640000Y-80010000D02*
X162814000Y-75184000D01*
X158750000Y-61595000D02*
X158115000Y-60960000D01*
X66294000Y-75184000D02*
X65278000Y-74168000D01*
X65278000Y-74168000D02*
X65278000Y-71882000D01*
X65278000Y-71882000D02*
X66294000Y-70866000D01*
X66294000Y-70866000D02*
X155194000Y-70866000D01*
X162877500Y-118110000D02*
X162877500Y-118173500D01*
X162877500Y-118173500D02*
X163449000Y-118745000D01*
X163449000Y-135350250D02*
X165258750Y-137160000D01*
X163449000Y-118745000D02*
X163449000Y-135350250D01*
G04 #@! TO.N,COL7*
X192762500Y-95988500D02*
X192762500Y-97600000D01*
X187706000Y-81026000D02*
X186690000Y-80010000D01*
X187706000Y-90932000D02*
X187706000Y-81026000D01*
X187706000Y-90932000D02*
X192762500Y-95988500D01*
X192024000Y-99631500D02*
X191452500Y-99060000D01*
X192024000Y-106934000D02*
X192024000Y-99631500D01*
X194564000Y-109474000D02*
X192024000Y-106934000D01*
X187111500Y-112776000D02*
X271780000Y-112776000D01*
X183237500Y-116650000D02*
X187111500Y-112776000D01*
X271780000Y-112776000D02*
X272415000Y-112141000D01*
X272415000Y-112141000D02*
X272415000Y-110236000D01*
X272415000Y-110236000D02*
X271653000Y-109474000D01*
X271653000Y-109474000D02*
X194564000Y-109474000D01*
X177165000Y-60833000D02*
X177165000Y-60960000D01*
X187198000Y-50800000D02*
X177165000Y-60833000D01*
X186690000Y-37147500D02*
X187198000Y-37655500D01*
X187198000Y-37655500D02*
X187198000Y-50800000D01*
X177800000Y-61595000D02*
X177165000Y-60960000D01*
X173863000Y-71374000D02*
X177800000Y-67437000D01*
X186690000Y-80010000D02*
X181356000Y-74676000D01*
X181356000Y-74676000D02*
X66548000Y-74676000D01*
X66548000Y-74676000D02*
X65786000Y-73914000D01*
X65786000Y-73914000D02*
X65786000Y-72136000D01*
X65786000Y-72136000D02*
X66548000Y-71374000D01*
X177800000Y-67437000D02*
X177800000Y-61595000D01*
X66548000Y-71374000D02*
X173863000Y-71374000D01*
G04 #@! TO.N,COL8*
X207050000Y-78550000D02*
X210924000Y-74676000D01*
X210924000Y-74676000D02*
X285877000Y-74676000D01*
X285877000Y-74676000D02*
X286639000Y-73914000D01*
X286639000Y-73914000D02*
X286639000Y-72136000D01*
X286639000Y-72136000D02*
X285877000Y-71374000D01*
X285877000Y-71374000D02*
X199390000Y-71374000D01*
X206756000Y-81026000D02*
X205740000Y-80010000D01*
X206756000Y-90932000D02*
X206756000Y-81026000D01*
X211812500Y-95988500D02*
X206756000Y-90932000D01*
X211812500Y-97600000D02*
X211812500Y-95988500D01*
X213106000Y-108966000D02*
X271907000Y-108966000D01*
X271907000Y-108966000D02*
X272923000Y-109982000D01*
X272923000Y-109982000D02*
X272923000Y-112395000D01*
X272923000Y-112395000D02*
X272034000Y-113284000D01*
X205653500Y-113284000D02*
X202287500Y-116650000D01*
X272034000Y-113284000D02*
X205653500Y-113284000D01*
X211074000Y-99631500D02*
X210502500Y-99060000D01*
X211074000Y-106934000D02*
X211074000Y-99631500D01*
X211074000Y-106934000D02*
X213106000Y-108966000D01*
X206248000Y-37655500D02*
X205740000Y-37147500D01*
X196215000Y-60960000D02*
X206248000Y-50927000D01*
X206248000Y-50927000D02*
X206248000Y-37655500D01*
X196850000Y-61595000D02*
X196215000Y-60960000D01*
X196850000Y-68834000D02*
X196850000Y-61595000D01*
X199390000Y-71374000D02*
X196850000Y-68834000D01*
G04 #@! TO.N,COL11*
X268962500Y-95988500D02*
X268962500Y-97600000D01*
X263906000Y-81026000D02*
X262890000Y-80010000D01*
X263906000Y-90932000D02*
X263906000Y-81026000D01*
X263906000Y-90932000D02*
X268962500Y-95988500D01*
X268224000Y-99631500D02*
X267652500Y-99060000D01*
X268224000Y-105410000D02*
X268224000Y-99631500D01*
X265938000Y-107696000D02*
X268224000Y-105410000D01*
X253365000Y-60960000D02*
X253365000Y-60833000D01*
X253365000Y-60833000D02*
X272923000Y-41275000D01*
X272923000Y-37655500D02*
X272415000Y-37147500D01*
X272923000Y-41275000D02*
X272923000Y-37655500D01*
X254000000Y-61595000D02*
X253365000Y-60960000D01*
X254000000Y-67310000D02*
X254000000Y-61595000D01*
X251714000Y-69596000D02*
X254000000Y-67310000D01*
X258127500Y-118110000D02*
X258127500Y-118554500D01*
X258127500Y-118554500D02*
X258699000Y-119126000D01*
X258699000Y-136588500D02*
X258127500Y-137160000D01*
X258699000Y-119126000D02*
X258699000Y-136588500D01*
G04 #@! TO.N,Net-(MX_\005C1-Pad4)*
X291782500Y-106680000D02*
X291719000Y-106680000D01*
X291719000Y-106680000D02*
X287909000Y-102870000D01*
X287909000Y-102870000D02*
X287909000Y-100457000D01*
X287909000Y-100457000D02*
X289687000Y-98679000D01*
X289687000Y-98679000D02*
X289687000Y-96774000D01*
X289687000Y-96774000D02*
X288417000Y-95504000D01*
X288417000Y-94234000D02*
X288417000Y-93599000D01*
X288417000Y-95504000D02*
X288417000Y-94234000D01*
X288417000Y-93599000D02*
X292481000Y-89535000D01*
G04 #@! TO.N,COL14*
X334899000Y-37719000D02*
X334327500Y-37147500D01*
X334327500Y-80010000D02*
X334899000Y-79438500D01*
X334899000Y-79438500D02*
X334899000Y-37719000D01*
X334899000Y-80581500D02*
X334327500Y-80010000D01*
X336677000Y-89662000D02*
X334899000Y-87884000D01*
X342836500Y-128651000D02*
X373126000Y-128651000D01*
X334899000Y-87884000D02*
X334899000Y-80581500D01*
X334327500Y-137160000D02*
X342836500Y-128651000D01*
X380492000Y-121285000D02*
X380492000Y-96901000D01*
X373126000Y-128651000D02*
X380492000Y-121285000D01*
X380492000Y-96901000D02*
X373253000Y-89662000D01*
X373253000Y-89662000D02*
X336677000Y-89662000D01*
G04 #@! TO.N,COL15*
X353949000Y-37719000D02*
X353377500Y-37147500D01*
X353377500Y-80010000D02*
X353949000Y-79438500D01*
X353949000Y-79438500D02*
X353949000Y-37719000D01*
X353949000Y-80581500D02*
X353377500Y-80010000D01*
X353949000Y-87884000D02*
X353949000Y-80581500D01*
X355219000Y-89154000D02*
X353949000Y-87884000D01*
X361378500Y-129159000D02*
X373380000Y-129159000D01*
X353377500Y-137160000D02*
X361378500Y-129159000D01*
X373380000Y-129159000D02*
X381000000Y-121539000D01*
X381000000Y-121539000D02*
X381000000Y-96647000D01*
X381000000Y-96647000D02*
X373507000Y-89154000D01*
X373507000Y-89154000D02*
X355219000Y-89154000D01*
X354965000Y-116522500D02*
X353377500Y-118110000D01*
X354965000Y-112014000D02*
X354965000Y-116522500D01*
X354584000Y-111633000D02*
X354965000Y-112014000D01*
X353949000Y-111633000D02*
X354584000Y-111633000D01*
X353314000Y-112395000D02*
X353314000Y-112268000D01*
X353314000Y-112268000D02*
X353949000Y-111633000D01*
G04 #@! TO.N,COL16*
X372999000Y-37719000D02*
X372427500Y-37147500D01*
X372427500Y-80010000D02*
X372999000Y-79438500D01*
X372999000Y-79438500D02*
X372999000Y-37719000D01*
X372999000Y-80581500D02*
X372427500Y-80010000D01*
X372999000Y-87884000D02*
X372999000Y-80581500D01*
X381508000Y-96393000D02*
X372999000Y-87884000D01*
X373737500Y-135700000D02*
X373737500Y-129563500D01*
X373737500Y-129563500D02*
X381508000Y-121793000D01*
X381508000Y-121793000D02*
X381508000Y-111633000D01*
X381889000Y-111379000D02*
X381508000Y-111379000D01*
X381508000Y-111633000D02*
X381508000Y-111379000D01*
X381508000Y-111379000D02*
X381508000Y-96393000D01*
G04 #@! TO.N,Net-(MX_RETURN1-Pad4)*
X306863750Y-100171250D02*
X306863750Y-93345000D01*
X306197000Y-100838000D02*
X306863750Y-100171250D01*
X306197000Y-105410000D02*
X306197000Y-100838000D01*
X304927000Y-106680000D02*
X306197000Y-105410000D01*
X303688750Y-106680000D02*
X304927000Y-106680000D01*
D20*
G04 #@! TO.N,LEDGND*
X369570000Y-137414000D02*
X369570000Y-141859000D01*
X366395000Y-134239000D02*
X369570000Y-137414000D01*
X369570000Y-141859000D02*
X369570000Y-142367000D01*
X369570000Y-44323000D02*
X369570000Y-66675000D01*
X288798000Y-66802000D02*
X288671000Y-66675000D01*
X288798000Y-72263000D02*
X288798000Y-66802000D01*
X290068000Y-73533000D02*
X288798000Y-72263000D01*
X290068000Y-80899000D02*
X290068000Y-73533000D01*
X289179000Y-86233000D02*
X289179000Y-81788000D01*
X289179000Y-81788000D02*
X290068000Y-80899000D01*
X289179000Y-46228000D02*
X289814000Y-45593000D01*
X288798000Y-46609000D02*
X289179000Y-46228000D01*
X288798000Y-66802000D02*
X288798000Y-46609000D01*
X289179000Y-86233000D02*
X289179000Y-89281000D01*
X289179000Y-89281000D02*
X284353000Y-94107000D01*
X284353000Y-94107000D02*
X283972000Y-94488000D01*
X283972000Y-94488000D02*
X283972000Y-101727000D01*
X283972000Y-101727000D02*
X283972000Y-102235000D01*
X283972000Y-102235000D02*
X285750000Y-104013000D01*
X285750000Y-104013000D02*
X286131000Y-104394000D01*
X286131000Y-104394000D02*
X286512000Y-104775000D01*
X286512000Y-104775000D02*
X286639000Y-104775000D01*
X279146000Y-135890000D02*
X279146000Y-143129000D01*
X279146000Y-135890000D02*
X279146000Y-124206000D01*
X279146000Y-124206000D02*
X279146000Y-103886000D01*
X369570000Y-91186000D02*
X369570000Y-90424000D01*
X376936000Y-98552000D02*
X369570000Y-91186000D01*
X369570000Y-43434000D02*
X369570000Y-43180000D01*
X369570000Y-43434000D02*
X369570000Y-44323000D01*
X369570000Y-143256000D02*
X369570000Y-142367000D01*
X367030000Y-112903000D02*
X366649000Y-112903000D01*
X366649000Y-124206000D02*
X366649000Y-112903000D01*
X366649000Y-112903000D02*
X366649000Y-108712000D01*
X369189000Y-67056000D02*
X369570000Y-67056000D01*
X369570000Y-66675000D02*
X369570000Y-67056000D01*
X369570000Y-67056000D02*
X369570000Y-85725000D01*
X369189000Y-86106000D02*
X369570000Y-86106000D01*
X369570000Y-88392000D02*
X369570000Y-86106000D01*
X369570000Y-86106000D02*
X369570000Y-85725000D01*
D19*
G04 #@! TO.N,Net-(RC6-Pad2)*
X323342000Y-32004000D02*
X322199000Y-33147000D01*
X324993000Y-32004000D02*
X323342000Y-32004000D01*
G04 #@! TO.N,Net-(RC7-Pad2)*
X328549000Y-32004000D02*
X329692000Y-33147000D01*
X327660000Y-32004000D02*
X328549000Y-32004000D01*
G04 #@! TO.N,COL17*
X396875000Y-37782500D02*
X396240000Y-37147500D01*
X396240000Y-60960000D02*
X396875000Y-60325000D01*
X396875000Y-60325000D02*
X396875000Y-37782500D01*
X396875000Y-61595000D02*
X396240000Y-60960000D01*
X396875000Y-79375000D02*
X396875000Y-61595000D01*
X396240000Y-80010000D02*
X396875000Y-79375000D01*
X396875000Y-80645000D02*
X396240000Y-80010000D01*
X396240000Y-99060000D02*
X396875000Y-98425000D01*
X396875000Y-98425000D02*
X396875000Y-80645000D01*
X396875000Y-99695000D02*
X396240000Y-99060000D01*
X396875000Y-117475000D02*
X396875000Y-99695000D01*
X396240000Y-118110000D02*
X396875000Y-117475000D01*
X396875000Y-118745000D02*
X396240000Y-118110000D01*
X396875000Y-127000000D02*
X396875000Y-118745000D01*
X400177000Y-130302000D02*
X396875000Y-127000000D01*
X400177000Y-132588000D02*
X400177000Y-130302000D01*
X397550000Y-135700000D02*
X397550000Y-135215000D01*
X397550000Y-135215000D02*
X400177000Y-132588000D01*
G04 #@! TO.N,COL18*
X415925000Y-136525000D02*
X415290000Y-137160000D01*
X415290000Y-37147500D02*
X415925000Y-37782500D01*
X415925000Y-37782500D02*
X415925000Y-136525000D01*
G04 #@! TO.N,COL19*
X434975000Y-136525000D02*
X434340000Y-137160000D01*
X434340000Y-37147500D02*
X434975000Y-37782500D01*
X434721000Y-113665000D02*
X434975000Y-113665000D01*
X434975000Y-37782500D02*
X434975000Y-113665000D01*
X434975000Y-113665000D02*
X434975000Y-136525000D01*
G04 #@! TO.N,COL20*
X454660000Y-135890000D02*
X453390000Y-137160000D01*
X454660000Y-133985000D02*
X454660000Y-135890000D01*
X454660000Y-97790000D02*
X453390000Y-99060000D01*
X454660000Y-95885000D02*
X454660000Y-97790000D01*
X454025000Y-37782500D02*
X453390000Y-37147500D01*
X454025000Y-58825000D02*
X454025000Y-37782500D01*
X454700000Y-59500000D02*
X454025000Y-58825000D01*
X454025000Y-61595000D02*
X453390000Y-60960000D01*
X454025000Y-79375000D02*
X454025000Y-61595000D01*
X453390000Y-80010000D02*
X454025000Y-79375000D01*
X454660000Y-95885000D02*
X454025000Y-95250000D01*
X454025000Y-95250000D02*
X454025000Y-90805000D01*
X454025000Y-80645000D02*
X453390000Y-80010000D01*
X454025000Y-90805000D02*
X454406000Y-90424000D01*
X454406000Y-90424000D02*
X454406000Y-88900000D01*
X454406000Y-88900000D02*
X454025000Y-88519000D01*
X454025000Y-88519000D02*
X454025000Y-80645000D01*
X454025000Y-99695000D02*
X453390000Y-99060000D01*
X454660000Y-133985000D02*
X454025000Y-133350000D01*
X454025000Y-133350000D02*
X454025000Y-128905000D01*
X454406000Y-128524000D02*
X454406000Y-126873000D01*
X454025000Y-128905000D02*
X454406000Y-128524000D01*
X454406000Y-126873000D02*
X454025000Y-126492000D01*
X454025000Y-126492000D02*
X454025000Y-99695000D01*
X448183000Y-112903000D02*
X453390000Y-118110000D01*
X446913000Y-112903000D02*
X448183000Y-112903000D01*
G04 #@! TO.N,Net-(MX_NUM16-Pad4)*
X463804000Y-92329000D02*
X462280000Y-90805000D01*
X463804000Y-96520000D02*
X463804000Y-92329000D01*
X460502000Y-99822000D02*
X463804000Y-96520000D01*
X460502000Y-102997000D02*
X460502000Y-99822000D01*
X458470000Y-105029000D02*
X460502000Y-102997000D01*
X458470000Y-106680000D02*
X458470000Y-105029000D01*
G04 #@! TO.N,Net-(MX_NUM24-Pad4)*
X458470000Y-144780000D02*
X458470000Y-143129000D01*
X458470000Y-143129000D02*
X460502000Y-141097000D01*
X460502000Y-141097000D02*
X460502000Y-137795000D01*
X460502000Y-137795000D02*
X463804000Y-134493000D01*
X463804000Y-130429000D02*
X462280000Y-128905000D01*
X463804000Y-134493000D02*
X463804000Y-130429000D01*
G04 #@! TD*
M02*
