G04 #@! TF.GenerationSoftware,KiCad,Pcbnew,(5.0.0)*
G04 #@! TF.CreationDate,2019-02-16T19:44:34-08:00*
G04 #@! TF.ProjectId,Voyager104,566F79616765723130342E6B69636164,rev?*
G04 #@! TF.SameCoordinates,Original*
G04 #@! TF.FileFunction,Paste,Bot*
G04 #@! TF.FilePolarity,Positive*
%FSLAX46Y46*%
G04 Gerber Fmt 4.6, Leading zero omitted, Abs format (unit mm)*
G04 Created by KiCad (PCBNEW (5.0.0)) date 02/16/19 19:44:34*
%MOMM*%
%LPD*%
G01*
G04 APERTURE LIST*
%ADD10R,1.200000X0.900000*%
%ADD11R,0.750000X0.800000*%
%ADD12R,0.800000X0.750000*%
%ADD13R,2.030000X1.140000*%
%ADD14R,1.500000X2.000000*%
%ADD15R,3.800000X2.000000*%
%ADD16R,0.900000X0.500000*%
%ADD17R,0.500000X0.900000*%
%ADD18R,0.700000X0.600000*%
%ADD19R,0.700000X1.000000*%
%ADD20R,0.300000X1.450000*%
%ADD21R,0.600000X1.450000*%
%ADD22R,1.200000X1.400000*%
%ADD23R,1.100000X1.800000*%
%ADD24R,1.102500X1.102500*%
%ADD25R,0.850000X0.300000*%
%ADD26R,0.300000X0.850000*%
G04 APERTURE END LIST*
D10*
G04 #@! TO.C,D84*
X60325000Y-139762500D03*
X60325000Y-136462500D03*
G04 #@! TD*
D11*
G04 #@! TO.C,C2*
X339979000Y-99810000D03*
X339979000Y-98310000D03*
G04 #@! TD*
D12*
G04 #@! TO.C,C3*
X354476750Y-107791250D03*
X352976750Y-107791250D03*
G04 #@! TD*
G04 #@! TO.C,C4*
X352976750Y-105013125D03*
X354476750Y-105013125D03*
G04 #@! TD*
D11*
G04 #@! TO.C,C5*
X336661125Y-99810000D03*
X336661125Y-98310000D03*
G04 #@! TD*
D12*
G04 #@! TO.C,C6*
X332728000Y-109220000D03*
X331228000Y-109220000D03*
G04 #@! TD*
D11*
G04 #@! TO.C,C7*
X333089250Y-102247000D03*
X333089250Y-103747000D03*
G04 #@! TD*
D12*
G04 #@! TO.C,C8*
X349714250Y-102235000D03*
X348214250Y-102235000D03*
G04 #@! TD*
D10*
G04 #@! TO.C,D1*
X55562500Y-39750000D03*
X55562500Y-36450000D03*
G04 #@! TD*
G04 #@! TO.C,D2*
X93662500Y-39750000D03*
X93662500Y-36450000D03*
G04 #@! TD*
G04 #@! TO.C,D3*
X112712500Y-36450000D03*
X112712500Y-39750000D03*
G04 #@! TD*
G04 #@! TO.C,D4*
X131762500Y-39750000D03*
X131762500Y-36450000D03*
G04 #@! TD*
G04 #@! TO.C,D5*
X150812500Y-36450000D03*
X150812500Y-39750000D03*
G04 #@! TD*
G04 #@! TO.C,D6*
X179387500Y-39750000D03*
X179387500Y-36450000D03*
G04 #@! TD*
G04 #@! TO.C,D7*
X198437500Y-39750000D03*
X198437500Y-36450000D03*
G04 #@! TD*
G04 #@! TO.C,D8*
X217487500Y-39750000D03*
X217487500Y-36450000D03*
G04 #@! TD*
G04 #@! TO.C,D9*
X236537500Y-39750000D03*
X236537500Y-36450000D03*
G04 #@! TD*
G04 #@! TO.C,D10*
X265112500Y-36450000D03*
X265112500Y-39750000D03*
G04 #@! TD*
G04 #@! TO.C,D11*
X284162500Y-36450000D03*
X284162500Y-39750000D03*
G04 #@! TD*
G04 #@! TO.C,D12*
X303212500Y-39750000D03*
X303212500Y-36450000D03*
G04 #@! TD*
G04 #@! TO.C,D13*
X306387500Y-39750000D03*
X306387500Y-36450000D03*
G04 #@! TD*
G04 #@! TO.C,D14*
X79375000Y-117412500D03*
X79375000Y-120712500D03*
G04 #@! TD*
G04 #@! TO.C,D17*
X55562500Y-60262500D03*
X55562500Y-63562500D03*
G04 #@! TD*
G04 #@! TO.C,D18*
X74612500Y-60262500D03*
X74612500Y-63562500D03*
G04 #@! TD*
G04 #@! TO.C,D19*
X93662500Y-60262500D03*
X93662500Y-63562500D03*
G04 #@! TD*
G04 #@! TO.C,D20*
X112712500Y-60262500D03*
X112712500Y-63562500D03*
G04 #@! TD*
G04 #@! TO.C,D21*
X131762500Y-63562500D03*
X131762500Y-60262500D03*
G04 #@! TD*
G04 #@! TO.C,D22*
X150812500Y-63562500D03*
X150812500Y-60262500D03*
G04 #@! TD*
G04 #@! TO.C,D23*
X169862500Y-60262500D03*
X169862500Y-63562500D03*
G04 #@! TD*
G04 #@! TO.C,D24*
X188912500Y-60262500D03*
X188912500Y-63562500D03*
G04 #@! TD*
G04 #@! TO.C,D25*
X207962500Y-63562500D03*
X207962500Y-60262500D03*
G04 #@! TD*
G04 #@! TO.C,D26*
X227012500Y-63562500D03*
X227012500Y-60262500D03*
G04 #@! TD*
G04 #@! TO.C,D27*
X246062500Y-63562500D03*
X246062500Y-60262500D03*
G04 #@! TD*
G04 #@! TO.C,D28*
X265112500Y-60262500D03*
X265112500Y-63562500D03*
G04 #@! TD*
G04 #@! TO.C,D29*
X268287500Y-60262500D03*
X268287500Y-63562500D03*
G04 #@! TD*
G04 #@! TO.C,D30*
X284162500Y-63562500D03*
X284162500Y-60262500D03*
G04 #@! TD*
G04 #@! TO.C,D31*
X287337500Y-60262500D03*
X287337500Y-63562500D03*
G04 #@! TD*
G04 #@! TO.C,D35*
X60325000Y-82612500D03*
X60325000Y-79312500D03*
G04 #@! TD*
G04 #@! TO.C,D36*
X84137500Y-79312500D03*
X84137500Y-82612500D03*
G04 #@! TD*
G04 #@! TO.C,D37*
X103187500Y-82612500D03*
X103187500Y-79312500D03*
G04 #@! TD*
G04 #@! TO.C,D38*
X122237500Y-79312500D03*
X122237500Y-82612500D03*
G04 #@! TD*
G04 #@! TO.C,D39*
X141287500Y-82612500D03*
X141287500Y-79312500D03*
G04 #@! TD*
G04 #@! TO.C,D40*
X160337500Y-79312500D03*
X160337500Y-82612500D03*
G04 #@! TD*
G04 #@! TO.C,D41*
X179387500Y-82612500D03*
X179387500Y-79312500D03*
G04 #@! TD*
G04 #@! TO.C,D42*
X198437500Y-82612500D03*
X198437500Y-79312500D03*
G04 #@! TD*
G04 #@! TO.C,D43*
X217487500Y-82612500D03*
X217487500Y-79312500D03*
G04 #@! TD*
G04 #@! TO.C,D44*
X236537500Y-82612500D03*
X236537500Y-79312500D03*
G04 #@! TD*
G04 #@! TO.C,D45*
X255587500Y-79312500D03*
X255587500Y-82612500D03*
G04 #@! TD*
G04 #@! TO.C,D46*
X274637500Y-79312500D03*
X274637500Y-82612500D03*
G04 #@! TD*
G04 #@! TO.C,D47*
X293687500Y-79312500D03*
X293687500Y-82612500D03*
G04 #@! TD*
G04 #@! TO.C,D48*
X296862500Y-82612500D03*
X296862500Y-79312500D03*
G04 #@! TD*
G04 #@! TO.C,D52*
X62706250Y-98362500D03*
X62706250Y-101662500D03*
G04 #@! TD*
G04 #@! TO.C,D53*
X88900000Y-98362500D03*
X88900000Y-101662500D03*
G04 #@! TD*
G04 #@! TO.C,D54*
X107950000Y-101662500D03*
X107950000Y-98362500D03*
G04 #@! TD*
G04 #@! TO.C,D55*
X127000000Y-101662500D03*
X127000000Y-98362500D03*
G04 #@! TD*
G04 #@! TO.C,D56*
X146050000Y-98362500D03*
X146050000Y-101662500D03*
G04 #@! TD*
G04 #@! TO.C,D57*
X165100000Y-98362500D03*
X165100000Y-101662500D03*
G04 #@! TD*
G04 #@! TO.C,D58*
X184150000Y-101662500D03*
X184150000Y-98362500D03*
G04 #@! TD*
G04 #@! TO.C,D59*
X203200000Y-101662500D03*
X203200000Y-98362500D03*
G04 #@! TD*
G04 #@! TO.C,D60*
X222250000Y-98362500D03*
X222250000Y-101662500D03*
G04 #@! TD*
G04 #@! TO.C,D61*
X241300000Y-98362500D03*
X241300000Y-101662500D03*
G04 #@! TD*
G04 #@! TO.C,D62*
X260350000Y-101662500D03*
X260350000Y-98362500D03*
G04 #@! TD*
G04 #@! TO.C,D63*
X279400000Y-101662500D03*
X279400000Y-98362500D03*
G04 #@! TD*
G04 #@! TO.C,D65*
X282575000Y-98362500D03*
X282575000Y-101662500D03*
G04 #@! TD*
G04 #@! TO.C,D66*
X322262500Y-120712500D03*
X322262500Y-117412500D03*
G04 #@! TD*
G04 #@! TO.C,D67*
X82550000Y-117412500D03*
X82550000Y-120712500D03*
G04 #@! TD*
G04 #@! TO.C,D68*
X98425000Y-117412500D03*
X98425000Y-120712500D03*
G04 #@! TD*
G04 #@! TO.C,D69*
X117475000Y-117412500D03*
X117475000Y-120712500D03*
G04 #@! TD*
G04 #@! TO.C,D70*
X136525000Y-120712500D03*
X136525000Y-117412500D03*
G04 #@! TD*
G04 #@! TO.C,D71*
X155575000Y-120712500D03*
X155575000Y-117412500D03*
G04 #@! TD*
G04 #@! TO.C,D72*
X174625000Y-117412500D03*
X174625000Y-120712500D03*
G04 #@! TD*
G04 #@! TO.C,D73*
X193675000Y-120712500D03*
X193675000Y-117412500D03*
G04 #@! TD*
G04 #@! TO.C,D74*
X212725000Y-117412500D03*
X212725000Y-120712500D03*
G04 #@! TD*
G04 #@! TO.C,D75*
X231775000Y-120712500D03*
X231775000Y-117412500D03*
G04 #@! TD*
G04 #@! TO.C,D76*
X250825000Y-117412500D03*
X250825000Y-120712500D03*
G04 #@! TD*
G04 #@! TO.C,D77*
X269875000Y-120712500D03*
X269875000Y-117412500D03*
G04 #@! TD*
G04 #@! TO.C,D78*
X305593750Y-117412500D03*
X305593750Y-120712500D03*
G04 #@! TD*
G04 #@! TO.C,D81*
X296068750Y-139762500D03*
X296068750Y-136462500D03*
G04 #@! TD*
G04 #@! TO.C,D82*
X319881250Y-136462500D03*
X319881250Y-139762500D03*
G04 #@! TD*
G04 #@! TO.C,D85*
X84137500Y-139762500D03*
X84137500Y-136462500D03*
G04 #@! TD*
G04 #@! TO.C,D86*
X107950000Y-139762500D03*
X107950000Y-136462500D03*
G04 #@! TD*
G04 #@! TO.C,D87*
X188912500Y-136462500D03*
X188912500Y-139762500D03*
G04 #@! TD*
G04 #@! TO.C,D90*
X248443750Y-136462500D03*
X248443750Y-139762500D03*
G04 #@! TD*
G04 #@! TO.C,D91*
X272256250Y-139762500D03*
X272256250Y-136462500D03*
G04 #@! TD*
G04 #@! TO.C,D92*
X346075000Y-36450000D03*
X346075000Y-39750000D03*
G04 #@! TD*
G04 #@! TO.C,D93*
X365125000Y-36450000D03*
X365125000Y-39750000D03*
G04 #@! TD*
G04 #@! TO.C,D94*
X384175000Y-36450000D03*
X384175000Y-39750000D03*
G04 #@! TD*
G04 #@! TO.C,D95*
X346075000Y-63562500D03*
X346075000Y-60262500D03*
G04 #@! TD*
G04 #@! TO.C,D96*
X365125000Y-60262500D03*
X365125000Y-63562500D03*
G04 #@! TD*
G04 #@! TO.C,D97*
X384175000Y-63562500D03*
X384175000Y-60262500D03*
G04 #@! TD*
G04 #@! TO.C,D99*
X346075000Y-79312500D03*
X346075000Y-82612500D03*
G04 #@! TD*
G04 #@! TO.C,D100*
X365125000Y-82612500D03*
X365125000Y-79312500D03*
G04 #@! TD*
G04 #@! TO.C,D101*
X384175000Y-79312500D03*
X384175000Y-82612500D03*
G04 #@! TD*
G04 #@! TO.C,D108*
X365125000Y-120712500D03*
X365125000Y-117412500D03*
G04 #@! TD*
G04 #@! TO.C,D111*
X346075000Y-139762500D03*
X346075000Y-136462500D03*
G04 #@! TD*
G04 #@! TO.C,D112*
X365125000Y-139762500D03*
X365125000Y-136462500D03*
G04 #@! TD*
G04 #@! TO.C,D113*
X384175000Y-136462500D03*
X384175000Y-139762500D03*
G04 #@! TD*
D13*
G04 #@! TO.C,F1*
X323056250Y-39281250D03*
X323056250Y-41681250D03*
G04 #@! TD*
D14*
G04 #@! TO.C,Q1*
X367587500Y-102418750D03*
X372187500Y-102418750D03*
X369887500Y-102418750D03*
D15*
X369887500Y-108718750D03*
G04 #@! TD*
D16*
G04 #@! TO.C,R1*
X55562500Y-42906250D03*
X55562500Y-44406250D03*
G04 #@! TD*
G04 #@! TO.C,R2*
X93662500Y-44406250D03*
X93662500Y-42906250D03*
G04 #@! TD*
G04 #@! TO.C,R3*
X112712500Y-44406250D03*
X112712500Y-42906250D03*
G04 #@! TD*
G04 #@! TO.C,R4*
X131762500Y-42906250D03*
X131762500Y-44406250D03*
G04 #@! TD*
G04 #@! TO.C,R5*
X150812500Y-44406250D03*
X150812500Y-42906250D03*
G04 #@! TD*
G04 #@! TO.C,R6*
X179387500Y-44406250D03*
X179387500Y-42906250D03*
G04 #@! TD*
G04 #@! TO.C,R7*
X198437500Y-44406250D03*
X198437500Y-42906250D03*
G04 #@! TD*
G04 #@! TO.C,R8*
X217487500Y-42906250D03*
X217487500Y-44406250D03*
G04 #@! TD*
G04 #@! TO.C,R9*
X236537500Y-42906250D03*
X236537500Y-44406250D03*
G04 #@! TD*
G04 #@! TO.C,R10*
X265112500Y-42906250D03*
X265112500Y-44406250D03*
G04 #@! TD*
G04 #@! TO.C,R11*
X284162500Y-42906250D03*
X284162500Y-44406250D03*
G04 #@! TD*
G04 #@! TO.C,R12*
X303212500Y-42906250D03*
X303212500Y-44406250D03*
G04 #@! TD*
G04 #@! TO.C,R13*
X306387500Y-42906250D03*
X306387500Y-44406250D03*
G04 #@! TD*
G04 #@! TO.C,R14*
X79375000Y-125368750D03*
X79375000Y-123868750D03*
G04 #@! TD*
G04 #@! TO.C,R16*
X346075000Y-44406250D03*
X346075000Y-42906250D03*
G04 #@! TD*
G04 #@! TO.C,R17*
X55562500Y-68218750D03*
X55562500Y-66718750D03*
G04 #@! TD*
G04 #@! TO.C,R18*
X74612500Y-66718750D03*
X74612500Y-68218750D03*
G04 #@! TD*
G04 #@! TO.C,R19*
X93662500Y-66718750D03*
X93662500Y-68218750D03*
G04 #@! TD*
G04 #@! TO.C,R20*
X112712500Y-68218750D03*
X112712500Y-66718750D03*
G04 #@! TD*
G04 #@! TO.C,R21*
X131762500Y-66718750D03*
X131762500Y-68218750D03*
G04 #@! TD*
G04 #@! TO.C,R22*
X150812500Y-66718750D03*
X150812500Y-68218750D03*
G04 #@! TD*
G04 #@! TO.C,R23*
X169862500Y-68218750D03*
X169862500Y-66718750D03*
G04 #@! TD*
G04 #@! TO.C,R24*
X188912500Y-68218750D03*
X188912500Y-66718750D03*
G04 #@! TD*
G04 #@! TO.C,R25*
X207962500Y-66718750D03*
X207962500Y-68218750D03*
G04 #@! TD*
G04 #@! TO.C,R26*
X227012500Y-66718750D03*
X227012500Y-68218750D03*
G04 #@! TD*
G04 #@! TO.C,R27*
X246062500Y-68218750D03*
X246062500Y-66718750D03*
G04 #@! TD*
G04 #@! TO.C,R28*
X265112500Y-68218750D03*
X265112500Y-66718750D03*
G04 #@! TD*
G04 #@! TO.C,R29*
X268287500Y-68218750D03*
X268287500Y-66718750D03*
G04 #@! TD*
G04 #@! TO.C,R30*
X287337500Y-66718750D03*
X287337500Y-68218750D03*
G04 #@! TD*
G04 #@! TO.C,R31*
X284162500Y-68218750D03*
X284162500Y-66718750D03*
G04 #@! TD*
G04 #@! TO.C,R32*
X365125000Y-42906250D03*
X365125000Y-44406250D03*
G04 #@! TD*
G04 #@! TO.C,R33*
X384175000Y-42906250D03*
X384175000Y-44406250D03*
G04 #@! TD*
G04 #@! TO.C,R35*
X60325000Y-85768750D03*
X60325000Y-87268750D03*
G04 #@! TD*
G04 #@! TO.C,R36*
X84137500Y-87268750D03*
X84137500Y-85768750D03*
G04 #@! TD*
G04 #@! TO.C,R37*
X103187500Y-85768750D03*
X103187500Y-87268750D03*
G04 #@! TD*
G04 #@! TO.C,R38*
X122237500Y-85768750D03*
X122237500Y-87268750D03*
G04 #@! TD*
G04 #@! TO.C,R39*
X141287500Y-87268750D03*
X141287500Y-85768750D03*
G04 #@! TD*
G04 #@! TO.C,R40*
X160337500Y-85768750D03*
X160337500Y-87268750D03*
G04 #@! TD*
G04 #@! TO.C,R41*
X179387500Y-87268750D03*
X179387500Y-85768750D03*
G04 #@! TD*
G04 #@! TO.C,R42*
X198437500Y-87268750D03*
X198437500Y-85768750D03*
G04 #@! TD*
G04 #@! TO.C,R43*
X217487500Y-87268750D03*
X217487500Y-85768750D03*
G04 #@! TD*
G04 #@! TO.C,R44*
X236537500Y-87268750D03*
X236537500Y-85768750D03*
G04 #@! TD*
G04 #@! TO.C,R45*
X255587500Y-87268750D03*
X255587500Y-85768750D03*
G04 #@! TD*
G04 #@! TO.C,R46*
X274637500Y-85768750D03*
X274637500Y-87268750D03*
G04 #@! TD*
G04 #@! TO.C,R47*
X293687500Y-85768750D03*
X293687500Y-87268750D03*
G04 #@! TD*
G04 #@! TO.C,R48*
X296862500Y-87268750D03*
X296862500Y-85768750D03*
G04 #@! TD*
G04 #@! TO.C,R52*
X62706250Y-106318750D03*
X62706250Y-104818750D03*
G04 #@! TD*
G04 #@! TO.C,R53*
X88900000Y-104818750D03*
X88900000Y-106318750D03*
G04 #@! TD*
G04 #@! TO.C,R54*
X107950000Y-104818750D03*
X107950000Y-106318750D03*
G04 #@! TD*
G04 #@! TO.C,R55*
X127000000Y-106318750D03*
X127000000Y-104818750D03*
G04 #@! TD*
G04 #@! TO.C,R56*
X146050000Y-106318750D03*
X146050000Y-104818750D03*
G04 #@! TD*
G04 #@! TO.C,R57*
X165100000Y-104818750D03*
X165100000Y-106318750D03*
G04 #@! TD*
G04 #@! TO.C,R58*
X184150000Y-104818750D03*
X184150000Y-106318750D03*
G04 #@! TD*
G04 #@! TO.C,R59*
X203200000Y-106318750D03*
X203200000Y-104818750D03*
G04 #@! TD*
G04 #@! TO.C,R60*
X222250000Y-106318750D03*
X222250000Y-104818750D03*
G04 #@! TD*
G04 #@! TO.C,R61*
X241300000Y-104818750D03*
X241300000Y-106318750D03*
G04 #@! TD*
G04 #@! TO.C,R62*
X260350000Y-104818750D03*
X260350000Y-106318750D03*
G04 #@! TD*
G04 #@! TO.C,R63*
X279400000Y-106318750D03*
X279400000Y-104818750D03*
G04 #@! TD*
G04 #@! TO.C,R65*
X282575000Y-106318750D03*
X282575000Y-104818750D03*
G04 #@! TD*
G04 #@! TO.C,R66*
X322262500Y-123868750D03*
X322262500Y-125368750D03*
G04 #@! TD*
G04 #@! TO.C,R67*
X82550000Y-125368750D03*
X82550000Y-123868750D03*
G04 #@! TD*
G04 #@! TO.C,R68*
X98425000Y-123868750D03*
X98425000Y-125368750D03*
G04 #@! TD*
G04 #@! TO.C,R69*
X117475000Y-123868750D03*
X117475000Y-125368750D03*
G04 #@! TD*
G04 #@! TO.C,R70*
X136525000Y-123868750D03*
X136525000Y-125368750D03*
G04 #@! TD*
G04 #@! TO.C,R71*
X155575000Y-125368750D03*
X155575000Y-123868750D03*
G04 #@! TD*
G04 #@! TO.C,R72*
X174625000Y-123868750D03*
X174625000Y-125368750D03*
G04 #@! TD*
G04 #@! TO.C,R73*
X193675000Y-125368750D03*
X193675000Y-123868750D03*
G04 #@! TD*
G04 #@! TO.C,R74*
X212725000Y-123868750D03*
X212725000Y-125368750D03*
G04 #@! TD*
G04 #@! TO.C,R75*
X231775000Y-125368750D03*
X231775000Y-123868750D03*
G04 #@! TD*
G04 #@! TO.C,R76*
X250825000Y-123868750D03*
X250825000Y-125368750D03*
G04 #@! TD*
G04 #@! TO.C,R77*
X269875000Y-125368750D03*
X269875000Y-123868750D03*
G04 #@! TD*
G04 #@! TO.C,R78*
X305593750Y-123868750D03*
X305593750Y-125368750D03*
G04 #@! TD*
G04 #@! TO.C,R81*
X296068750Y-142918750D03*
X296068750Y-144418750D03*
G04 #@! TD*
G04 #@! TO.C,R82*
X319881250Y-144418750D03*
X319881250Y-142918750D03*
G04 #@! TD*
G04 #@! TO.C,R84*
X60325000Y-142918750D03*
X60325000Y-144418750D03*
G04 #@! TD*
G04 #@! TO.C,R85*
X84137500Y-144418750D03*
X84137500Y-142918750D03*
G04 #@! TD*
G04 #@! TO.C,R86*
X107950000Y-144418750D03*
X107950000Y-142918750D03*
G04 #@! TD*
G04 #@! TO.C,R87*
X188912500Y-142918750D03*
X188912500Y-144418750D03*
G04 #@! TD*
G04 #@! TO.C,R90*
X248443750Y-142918750D03*
X248443750Y-144418750D03*
G04 #@! TD*
G04 #@! TO.C,R91*
X272256250Y-142918750D03*
X272256250Y-144418750D03*
G04 #@! TD*
G04 #@! TO.C,R95*
X346075000Y-68218750D03*
X346075000Y-66718750D03*
G04 #@! TD*
G04 #@! TO.C,R96*
X365125000Y-66718750D03*
X365125000Y-68218750D03*
G04 #@! TD*
G04 #@! TO.C,R97*
X384175000Y-68218750D03*
X384175000Y-66718750D03*
G04 #@! TD*
G04 #@! TO.C,R99*
X346075000Y-87268750D03*
X346075000Y-85768750D03*
G04 #@! TD*
G04 #@! TO.C,R100*
X365125000Y-87268750D03*
X365125000Y-85768750D03*
G04 #@! TD*
G04 #@! TO.C,R101*
X384175000Y-87268750D03*
X384175000Y-85768750D03*
G04 #@! TD*
G04 #@! TO.C,R108*
X365125000Y-123868750D03*
X365125000Y-125368750D03*
G04 #@! TD*
G04 #@! TO.C,R111*
X346075000Y-144418750D03*
X346075000Y-142918750D03*
G04 #@! TD*
G04 #@! TO.C,R112*
X365125000Y-142918750D03*
X365125000Y-144418750D03*
G04 #@! TD*
G04 #@! TO.C,R113*
X384175000Y-144418750D03*
X384175000Y-142918750D03*
G04 #@! TD*
G04 #@! TO.C,RC1*
X336946875Y-94500000D03*
X336946875Y-96000000D03*
G04 #@! TD*
G04 #@! TO.C,RC2*
X339328125Y-96000000D03*
X339328125Y-94500000D03*
G04 #@! TD*
D17*
G04 #@! TO.C,RC3*
X360803125Y-99218750D03*
X362303125Y-99218750D03*
G04 #@! TD*
D16*
G04 #@! TO.C,RC4*
X339090000Y-118098000D03*
X339090000Y-116598000D03*
G04 #@! TD*
D17*
G04 #@! TO.C,RC5*
X370637500Y-99218750D03*
X369137500Y-99218750D03*
G04 #@! TD*
D16*
G04 #@! TO.C,RC6*
X322262500Y-35675000D03*
X322262500Y-34175000D03*
G04 #@! TD*
G04 #@! TO.C,RC7*
X329803125Y-35675000D03*
X329803125Y-34175000D03*
G04 #@! TD*
D18*
G04 #@! TO.C,U2*
X325263000Y-35875000D03*
X327263000Y-35875000D03*
X325263000Y-33975000D03*
D19*
X327263000Y-34175000D03*
G04 #@! TD*
D20*
G04 #@! TO.C,USB1*
X325981250Y-30428000D03*
X326481250Y-30428000D03*
X326981250Y-30428000D03*
X325481250Y-30428000D03*
X327481250Y-30428000D03*
X324981250Y-30428000D03*
X327981250Y-30428000D03*
X324481250Y-30428000D03*
D21*
X323781250Y-30428000D03*
X328681250Y-30428000D03*
X323006250Y-30428000D03*
X329456250Y-30428000D03*
G04 #@! TD*
D22*
G04 #@! TO.C,Y1*
X350592125Y-107541875D03*
X350592125Y-105341875D03*
X348892125Y-105341875D03*
X348892125Y-107541875D03*
G04 #@! TD*
D23*
G04 #@! TO.C,SW1*
X363403125Y-108668750D03*
X359703125Y-102468750D03*
X359703125Y-108668750D03*
X363403125Y-102468750D03*
G04 #@! TD*
D24*
G04 #@! TO.C,U1*
X337460875Y-104288875D03*
X339298375Y-104288875D03*
X341135875Y-104288875D03*
X342973375Y-104288875D03*
X337460875Y-106126375D03*
X339298375Y-106126375D03*
X341135875Y-106126375D03*
X342973375Y-106126375D03*
X337460875Y-107963875D03*
X339298375Y-107963875D03*
X341135875Y-107963875D03*
X342973375Y-107963875D03*
X337460875Y-109801375D03*
X339298375Y-109801375D03*
X341135875Y-109801375D03*
X342973375Y-109801375D03*
D25*
X335767125Y-103295125D03*
X335767125Y-103795125D03*
X335767125Y-104295125D03*
X335767125Y-104795125D03*
X335767125Y-105295125D03*
X335767125Y-105795125D03*
X335767125Y-106295125D03*
X335767125Y-106795125D03*
X335767125Y-107295125D03*
X335767125Y-107795125D03*
X335767125Y-108295125D03*
X335767125Y-108795125D03*
X335767125Y-109295125D03*
X335767125Y-109795125D03*
X335767125Y-110295125D03*
X335767125Y-110795125D03*
D26*
X336467125Y-111495125D03*
X336967125Y-111495125D03*
X337467125Y-111495125D03*
X337967125Y-111495125D03*
X338467125Y-111495125D03*
X338967125Y-111495125D03*
X339467125Y-111495125D03*
X339967125Y-111495125D03*
X340467125Y-111495125D03*
X340967125Y-111495125D03*
X341467125Y-111495125D03*
X341967125Y-111495125D03*
X342467125Y-111495125D03*
X342967125Y-111495125D03*
X343467125Y-111495125D03*
X343967125Y-111495125D03*
D25*
X344667125Y-110795125D03*
X344667125Y-110295125D03*
X344667125Y-109795125D03*
X344667125Y-109295125D03*
X344667125Y-108795125D03*
X344667125Y-108295125D03*
X344667125Y-107795125D03*
X344667125Y-107295125D03*
X344667125Y-106795125D03*
X344667125Y-106295125D03*
X344667125Y-105795125D03*
X344667125Y-105295125D03*
X344667125Y-104795125D03*
X344667125Y-104295125D03*
X344667125Y-103795125D03*
X344667125Y-103295125D03*
D26*
X343967125Y-102595125D03*
X343467125Y-102595125D03*
X342967125Y-102595125D03*
X342467125Y-102595125D03*
X341967125Y-102595125D03*
X341467125Y-102595125D03*
X340967125Y-102595125D03*
X340467125Y-102595125D03*
X339967125Y-102595125D03*
X339467125Y-102595125D03*
X338967125Y-102595125D03*
X338467125Y-102595125D03*
X337967125Y-102595125D03*
X337467125Y-102595125D03*
X336967125Y-102595125D03*
X336467125Y-102595125D03*
G04 #@! TD*
D10*
G04 #@! TO.C,D15*
X407987500Y-36450000D03*
X407987500Y-39750000D03*
G04 #@! TD*
G04 #@! TO.C,D16*
X427037500Y-39750000D03*
X427037500Y-36450000D03*
G04 #@! TD*
G04 #@! TO.C,D32*
X446087500Y-36450000D03*
X446087500Y-39750000D03*
G04 #@! TD*
G04 #@! TO.C,D33*
X449262500Y-39750000D03*
X449262500Y-36450000D03*
G04 #@! TD*
G04 #@! TO.C,D34*
X407987500Y-63562500D03*
X407987500Y-60262500D03*
G04 #@! TD*
G04 #@! TO.C,D49*
X427037500Y-63562500D03*
X427037500Y-60262500D03*
G04 #@! TD*
G04 #@! TO.C,D50*
X446087500Y-63562500D03*
X446087500Y-60262500D03*
G04 #@! TD*
G04 #@! TO.C,D51*
X449262500Y-60262500D03*
X449262500Y-63562500D03*
G04 #@! TD*
G04 #@! TO.C,D64*
X407987500Y-82612500D03*
X407987500Y-79312500D03*
G04 #@! TD*
G04 #@! TO.C,D79*
X427037500Y-79312500D03*
X427037500Y-82612500D03*
G04 #@! TD*
G04 #@! TO.C,D80*
X430212500Y-82612500D03*
X430212500Y-79312500D03*
G04 #@! TD*
G04 #@! TO.C,D83*
X449262500Y-74675000D03*
X449262500Y-71375000D03*
G04 #@! TD*
G04 #@! TO.C,D88*
X407987500Y-98362500D03*
X407987500Y-101662500D03*
G04 #@! TD*
G04 #@! TO.C,D89*
X427037500Y-101662500D03*
X427037500Y-98362500D03*
G04 #@! TD*
G04 #@! TO.C,D98*
X430212500Y-98362500D03*
X430212500Y-101662500D03*
G04 #@! TD*
G04 #@! TO.C,D102*
X446087500Y-90425000D03*
X446087500Y-93725000D03*
G04 #@! TD*
G04 #@! TO.C,D103*
X407987500Y-117412500D03*
X407987500Y-120712500D03*
G04 #@! TD*
G04 #@! TO.C,D104*
X427037500Y-117412500D03*
X427037500Y-120712500D03*
G04 #@! TD*
G04 #@! TO.C,D105*
X430212500Y-120712500D03*
X430212500Y-117412500D03*
G04 #@! TD*
G04 #@! TO.C,D106*
X449262500Y-112775000D03*
X449262500Y-109475000D03*
G04 #@! TD*
G04 #@! TO.C,D107*
X392112500Y-139762500D03*
X392112500Y-136462500D03*
G04 #@! TD*
G04 #@! TO.C,D109*
X427037500Y-136462500D03*
X427037500Y-139762500D03*
G04 #@! TD*
G04 #@! TO.C,D110*
X430212500Y-136462500D03*
X430212500Y-139762500D03*
G04 #@! TD*
G04 #@! TO.C,D114*
X446087500Y-128525000D03*
X446087500Y-131825000D03*
G04 #@! TD*
D16*
G04 #@! TO.C,R15*
X407987500Y-44406250D03*
X407987500Y-42906250D03*
G04 #@! TD*
G04 #@! TO.C,R34*
X427037500Y-44406250D03*
X427037500Y-42906250D03*
G04 #@! TD*
G04 #@! TO.C,R49*
X446087500Y-42906250D03*
X446087500Y-44406250D03*
G04 #@! TD*
G04 #@! TO.C,R50*
X449262500Y-42906250D03*
X449262500Y-44406250D03*
G04 #@! TD*
G04 #@! TO.C,R51*
X407987500Y-66718750D03*
X407987500Y-68218750D03*
G04 #@! TD*
G04 #@! TO.C,R64*
X427037500Y-68218750D03*
X427037500Y-66718750D03*
G04 #@! TD*
G04 #@! TO.C,R79*
X446087500Y-66718750D03*
X446087500Y-68218750D03*
G04 #@! TD*
G04 #@! TO.C,R80*
X449262500Y-68218750D03*
X449262500Y-66718750D03*
G04 #@! TD*
G04 #@! TO.C,R83*
X407987500Y-85768750D03*
X407987500Y-87268750D03*
G04 #@! TD*
G04 #@! TO.C,R88*
X427037500Y-85768750D03*
X427037500Y-87268750D03*
G04 #@! TD*
G04 #@! TO.C,R89*
X430212500Y-87268750D03*
X430212500Y-85768750D03*
G04 #@! TD*
G04 #@! TO.C,R92*
X449262500Y-85681250D03*
X449262500Y-84181250D03*
G04 #@! TD*
G04 #@! TO.C,R93*
X407987500Y-104818750D03*
X407987500Y-106318750D03*
G04 #@! TD*
G04 #@! TO.C,R94*
X427037500Y-106318750D03*
X427037500Y-104818750D03*
G04 #@! TD*
G04 #@! TO.C,R98*
X430212500Y-104818750D03*
X430212500Y-106318750D03*
G04 #@! TD*
G04 #@! TO.C,R102*
X446087500Y-96881250D03*
X446087500Y-98381250D03*
G04 #@! TD*
G04 #@! TO.C,R103*
X407987500Y-125368750D03*
X407987500Y-123868750D03*
G04 #@! TD*
G04 #@! TO.C,R104*
X427037500Y-125368750D03*
X427037500Y-123868750D03*
G04 #@! TD*
G04 #@! TO.C,R105*
X430212500Y-125368750D03*
X430212500Y-123868750D03*
G04 #@! TD*
G04 #@! TO.C,R106*
X449262500Y-123781250D03*
X449262500Y-122281250D03*
G04 #@! TD*
G04 #@! TO.C,R107*
X392112500Y-142918750D03*
X392112500Y-144418750D03*
G04 #@! TD*
G04 #@! TO.C,R109*
X427037500Y-144418750D03*
X427037500Y-142918750D03*
G04 #@! TD*
G04 #@! TO.C,R110*
X430212500Y-142918750D03*
X430212500Y-144418750D03*
G04 #@! TD*
G04 #@! TO.C,R114*
X446087500Y-134981250D03*
X446087500Y-136481250D03*
G04 #@! TD*
M02*
