G04 #@! TF.GenerationSoftware,KiCad,Pcbnew,(5.0.0)*
G04 #@! TF.CreationDate,2019-02-16T19:44:34-08:00*
G04 #@! TF.ProjectId,Voyager104,566F79616765723130342E6B69636164,rev?*
G04 #@! TF.SameCoordinates,Original*
G04 #@! TF.FileFunction,Profile,NP*
%FSLAX46Y46*%
G04 Gerber Fmt 4.6, Leading zero omitted, Abs format (unit mm)*
G04 Created by KiCad (PCBNEW (5.0.0)) date 02/16/19 19:44:34*
%MOMM*%
%LPD*%
G01*
G04 APERTURE LIST*
%ADD10C,0.200000*%
G04 APERTURE END LIST*
D10*
X81756250Y-111918750D02*
X270668750Y-111918750D01*
X270668750Y-110331250D02*
X81756250Y-110331250D01*
X270668750Y-110331250D02*
G75*
G02X270668750Y-111918750I0J-793750D01*
G01*
X81756250Y-111918750D02*
G75*
G02X81756250Y-110331250I0J793750D01*
G01*
X67468750Y-73818750D02*
X284956250Y-73818750D01*
X284956250Y-72231250D02*
X67468750Y-72231250D01*
X284956250Y-72231250D02*
G75*
G02X284956250Y-73818750I0J-793750D01*
G01*
X67468750Y-73818750D02*
G75*
G02X67468750Y-72231250I0J793750D01*
G01*
X321071875Y-30162500D02*
G75*
G02X319484375Y-31750000I-1587500J0D01*
G01*
X332978125Y-31750000D02*
G75*
G02X331390625Y-30162500I0J1587500D01*
G01*
X321071875Y-30162500D02*
X321071875Y-25003125D01*
X331390625Y-25003125D02*
X331390625Y-30162500D01*
X321865625Y-24209375D02*
X330596875Y-24209375D01*
X330596875Y-24209375D02*
G75*
G02X331390625Y-25003125I0J-793750D01*
G01*
X321071875Y-25003125D02*
G75*
G02X321865625Y-24209375I793750J0D01*
G01*
X332978125Y-31750000D02*
X461962500Y-31750000D01*
X42862500Y-31750000D02*
X319484375Y-31750000D01*
X39687500Y-144462500D02*
X39687500Y-34925000D01*
X461962500Y-147637500D02*
X42862500Y-147637500D01*
X465137500Y-34925000D02*
X465137500Y-144462500D01*
X461962500Y-31750000D02*
G75*
G02X465137500Y-34925000I0J-3175000D01*
G01*
X465137500Y-144462500D02*
G75*
G02X461962500Y-147637500I-3175000J0D01*
G01*
X42862500Y-147637500D02*
G75*
G02X39687500Y-144462500I0J3175000D01*
G01*
X39687500Y-34925000D02*
G75*
G02X42862500Y-31750000I3175000J0D01*
G01*
M02*
